<svg width="742" height="810" viewBox="0 0 742 810" fill="none" xmlns="http://www.w3.org/2000/svg">
<g clip-path="url(#clip0_1051:20896)">
<path opacity="0.7" d="M22.8517 641.125C107.671 822.641 404.127 864.419 683.77 734.236C963.434 604.056 1121.92 350.444 1037.15 168.933C952.669 -11.9241 658.115 -54.1137 379.418 74.2662C378.348 74.7591 377.279 75.254 376.21 75.7513C96.567 205.935 -61.9284 459.57 22.8517 641.125ZM1034.16 170.305C1118.4 350.625 960.734 602.621 682.743 732.038C404.731 861.446 110.059 820.062 25.8474 639.731C-21.2806 538.851 7.30095 415.532 90.3061 303.794C13.0117 411.355 -12.8099 529.128 32.3683 625.88C114.868 802.549 403.41 843.2 675.501 716.532C947.597 589.84 1101.85 343.049 1019.34 166.413C974.129 69.6057 867.062 13.6351 734.735 3.65405C873.926 11.9442 987.016 69.3599 1034.16 170.305ZM308.632 184.101C324.878 218.921 381.669 226.985 435.207 202.063C488.744 177.141 519.056 128.532 502.785 93.7142C494.276 75.4736 474.638 64.5809 450.171 61.9207C481.494 62.9039 507.152 75.2511 517.604 97.6297C535.567 136.089 501.844 189.882 442.433 217.541C383.023 245.201 320.072 236.413 302.105 197.953C291.664 175.576 298.672 148.041 318.023 123.47C304.364 143.878 300.112 165.881 308.632 184.101ZM318.164 168.884C332.158 198.809 380.959 205.745 426.914 184.351C472.929 162.929 498.979 121.136 485.009 91.2205C477.737 75.6611 461.078 66.3196 440.306 63.9289C467.95 64.632 490.632 75.416 499.816 95.096C515.495 128.684 486.058 175.66 434.172 199.814C382.255 223.983 327.269 216.32 311.595 182.721C302.39 163.014 308.73 138.681 326.027 117.057C314.454 134.511 310.885 153.3 318.164 168.884ZM327.673 153.661C339.373 178.745 380.174 184.499 418.638 166.595C457.102 148.691 478.898 113.763 467.189 88.7028C467.007 88.3128 466.818 87.9277 466.622 87.5474C466.554 87.4176 466.484 87.2929 466.416 87.1651C466.283 86.9158 466.151 86.6667 466.013 86.4204C465.927 86.2679 465.835 86.1193 465.746 85.9685C465.621 85.7505 465.496 85.5329 465.364 85.322C465.264 85.1612 465.158 85.0049 465.057 84.8456C464.93 84.6469 464.805 84.4465 464.674 84.2515C464.563 84.0879 464.446 83.9269 464.333 83.7644C464.204 83.5789 464.076 83.3911 463.943 83.2089C463.823 83.0433 463.696 82.8823 463.573 82.719C463.44 82.5445 463.311 82.3674 463.175 82.1955C463.039 82.0236 462.908 81.8688 462.774 81.7052C462.641 81.5416 462.507 81.3733 462.368 81.2124C462.229 81.0516 462.083 80.8878 461.938 80.7245C461.801 80.5689 461.665 80.4105 461.524 80.257C461.374 80.0924 461.218 79.933 461.065 79.7714C460.925 79.6241 460.787 79.4747 460.643 79.3309C460.483 79.1682 460.318 79.0097 460.154 78.8495C460.012 78.7105 459.872 78.5696 459.73 78.4332C459.559 78.271 459.385 78.1153 459.212 77.9577C459.068 77.8266 458.928 77.694 458.78 77.5643C458.599 77.4042 458.413 77.2494 458.229 77.0926C458.084 76.9699 457.942 76.8449 457.795 76.7242C457.604 76.566 457.408 76.411 457.212 76.2587C457.066 76.1438 456.924 76.0265 456.776 75.9131C456.574 75.7578 456.367 75.6067 456.16 75.4546C456.016 75.3447 455.873 75.2353 455.725 75.1316C455.512 74.9783 455.293 74.8298 455.076 74.6802C454.931 74.5802 454.788 74.4778 454.641 74.3789C454.417 74.2284 454.187 74.0823 453.959 73.9356C453.814 73.8428 453.672 73.7481 453.527 73.6568C453.293 73.5096 453.05 73.3656 452.809 73.2233C452.667 73.1385 452.526 73.05 452.381 72.966C452.134 72.8188 451.88 72.6807 451.628 72.5397C451.484 72.4599 451.348 72.3805 451.206 72.3024C450.946 72.1607 450.681 72.0238 450.417 71.8858C450.279 71.8142 450.142 71.7397 450.002 71.6689C449.729 71.5307 449.453 71.3973 449.176 71.263C449.04 71.1974 448.906 71.1299 448.769 71.065C448.484 70.9304 448.196 70.7991 447.906 70.6707C447.773 70.611 447.642 70.5498 447.51 70.492C447.212 70.3614 446.912 70.2362 446.608 70.1101C446.48 70.0566 446.353 70.0012 446.223 69.9483C445.912 69.8223 445.597 69.7003 445.283 69.5797C445.157 69.534 445.035 69.4822 444.91 69.435C444.586 69.3134 444.258 69.198 443.93 69.079C443.811 69.0356 443.692 68.9924 443.572 68.9488C443.235 68.8321 442.893 68.7202 442.552 68.6087C442.436 68.5713 442.323 68.5323 442.207 68.496C441.857 68.3838 441.503 68.2771 441.149 68.1692C441.04 68.1363 440.931 68.1026 440.821 68.0705C440.456 67.9645 440.09 67.8626 439.723 67.7643C439.618 67.736 439.514 67.7055 439.409 67.6777C439.033 67.5777 438.652 67.4825 438.27 67.3897C438.172 67.3653 438.075 67.3399 437.975 67.3159C437.585 67.2223 437.191 67.1332 436.796 67.0467C436.704 67.0263 436.612 67.0045 436.52 66.9847C436.117 66.8958 435.709 66.816 435.301 66.7356L435.042 66.6836C434.626 66.6036 434.206 66.5285 433.783 66.456C433.704 66.4422 433.625 66.4273 433.545 66.4136C433.115 66.3413 432.682 66.2727 432.247 66.2081C432.174 66.197 432.101 66.185 432.029 66.1749C431.585 66.11 431.14 66.0494 430.692 65.9928C430.625 65.9845 430.559 65.9748 430.492 65.9667C430.447 65.961 430.4 65.9566 430.354 65.951C454.359 66.3584 474.106 75.5994 482.045 92.6097C495.45 121.29 470.257 161.429 425.884 182.106C381.527 202.737 334.533 196.205 321.154 167.519C313.223 150.54 318.773 129.565 333.799 110.986C324.469 125.392 321.671 140.83 327.673 153.661ZM337.175 138.462C346.607 158.618 379.429 163.294 410.369 148.887C441.309 134.481 458.823 106.365 449.414 86.2197C444.66 76.054 433.956 69.8205 420.549 67.98C423.082 67.9978 425.555 68.1332 427.969 68.386L427.977 68.3888C428.57 68.4511 429.159 68.5203 429.743 68.5966L429.782 68.6014C432.083 68.8987 434.366 69.3194 436.621 69.8621L436.73 69.8891C437.236 70.0123 437.737 70.1414 438.234 70.2767L438.375 70.3149C439.985 70.757 441.546 71.2603 443.056 71.8249L443.083 71.8346C443.554 72.0116 444.02 72.1957 444.481 72.384L444.707 72.4782C445.11 72.6456 445.508 72.8173 445.901 72.9932L446.151 73.1054C446.563 73.2935 446.971 73.4859 447.374 73.6825L447.518 73.7521C448.433 74.2047 449.323 74.6832 450.187 75.1876C450.247 75.2226 450.306 75.2594 450.366 75.2947C450.72 75.5038 451.07 75.7177 451.416 75.9361C451.518 76.0007 451.62 76.0675 451.721 76.132C452.027 76.3285 452.329 76.5288 452.627 76.7329C452.733 76.8058 452.838 76.8771 452.944 76.9503C453.252 77.1652 453.554 77.3851 453.856 77.6078C453.936 77.667 454.019 77.7245 454.098 77.7861C454.855 78.3574 455.584 78.9526 456.284 79.572C456.371 79.648 456.451 79.7243 456.535 79.8002C456.793 80.032 457.046 80.2671 457.296 80.5054C457.403 80.6081 457.508 80.7126 457.615 80.8168C457.839 81.0376 458.061 81.2606 458.278 81.486C458.384 81.5964 458.489 81.706 458.594 81.817C458.818 82.0559 459.036 82.2978 459.251 82.5416C459.338 82.6398 459.427 82.7364 459.512 82.8353C460.104 83.5221 460.666 84.232 461.198 84.9649C461.278 85.0763 461.355 85.1901 461.434 85.3022C461.616 85.5588 461.794 85.8181 461.968 86.0805C462.058 86.2168 462.147 86.3555 462.235 86.4939C462.393 86.7428 462.548 86.993 462.7 87.2446C462.785 87.387 462.87 87.5291 462.954 87.6734C463.109 87.9425 463.26 88.2149 463.406 88.4882C463.475 88.6155 463.544 88.7413 463.612 88.8701C463.822 89.2723 464.025 89.6796 464.219 90.0926C475.34 113.902 454.438 147.213 417.585 164.386C380.773 181.524 341.756 176.091 330.636 152.28C330.442 151.864 330.259 151.448 330.087 151.03C330.032 150.895 329.981 150.761 329.928 150.627C329.813 150.338 329.7 150.048 329.593 149.758C329.534 149.601 329.481 149.445 329.427 149.288C329.331 149.01 329.239 148.731 329.15 148.451C329.101 148.294 329.051 148.137 329.005 147.98C328.915 147.679 328.831 147.376 328.751 147.073C328.715 146.94 328.678 146.808 328.644 146.674C328.423 145.797 328.239 144.911 328.093 144.016C328.072 143.889 328.055 143.758 328.035 143.63C327.986 143.308 327.941 142.985 327.901 142.661C327.883 142.51 327.867 142.358 327.85 142.206C327.817 141.895 327.787 141.583 327.762 141.27C327.75 141.122 327.739 140.974 327.728 140.825C327.706 140.482 327.691 140.139 327.676 139.794C327.673 139.678 327.666 139.566 327.663 139.452C327.638 138.519 327.65 137.579 327.698 136.634C327.702 136.534 327.712 136.435 327.716 136.335C327.737 135.962 327.764 135.589 327.797 135.215C327.808 135.087 327.821 134.96 327.834 134.833C327.869 134.474 327.909 134.115 327.954 133.756C327.97 133.635 327.984 133.515 328.001 133.394C328.055 132.992 328.115 132.589 328.182 132.185C328.194 132.114 328.205 132.043 328.216 131.972C328.383 130.988 328.588 130 328.83 129.01C328.843 128.957 328.856 128.909 328.868 128.858C328.976 128.423 329.091 127.987 329.212 127.55C329.237 127.462 329.262 127.374 329.287 127.286C329.405 126.872 329.529 126.457 329.659 126.042C329.684 125.963 329.708 125.884 329.733 125.805C329.884 125.335 330.04 124.865 330.207 124.394C330.211 124.381 330.216 124.369 330.221 124.356C330.756 122.84 331.372 121.324 332.068 119.809C332.089 119.764 332.11 119.72 332.13 119.675C332.345 119.21 332.567 118.745 332.797 118.28L332.849 118.174C333.882 116.102 335.025 114.087 336.274 112.137C336.279 112.125 336.289 112.115 336.296 112.104C336.612 111.609 336.936 111.116 337.269 110.624C337.271 110.618 337.275 110.614 337.279 110.609C338.633 108.606 340.118 106.629 341.732 104.678C334.53 116.116 332.433 128.307 337.175 138.462ZM346.715 123.225C353.837 138.509 378.697 142.043 402.086 131.152C425.499 120.273 438.744 98.9806 431.599 83.6984C428.114 76.2304 420.386 71.562 410.664 70.0126C427.254 69.8627 441.024 75.9768 446.452 87.587C455.287 106.525 438.629 133.001 409.329 146.658C380.007 160.311 348.982 156.004 340.141 137.079C334.705 125.441 338.883 110.963 349.702 98.3571C344.61 106.807 343.211 115.739 346.715 123.225ZM356.219 108.023C361.066 118.401 377.948 120.837 393.808 113.47C409.707 106.069 418.664 91.5958 413.821 81.2066C411.586 76.4276 406.812 73.3265 400.766 72.0886C413.667 71.6306 424.469 76.1731 428.628 85.0869C435.19 99.1185 422.815 118.786 401.046 128.921C379.299 139.066 356.219 135.875 349.683 121.84C345.506 112.921 348.973 101.724 357.628 92.1489C354.678 97.5794 353.98 103.231 356.219 108.024L356.219 108.023ZM365.736 92.7778C368.325 98.2814 377.184 99.5978 385.532 95.712C393.88 91.8261 398.595 84.1895 396.033 78.6823C395.042 76.5622 393.119 75.0685 390.658 74.2487C399.961 73.3705 407.935 76.3191 410.856 82.5866C415.132 91.7447 407.023 104.587 392.775 111.219C378.528 117.85 363.461 115.801 359.184 106.643C356.264 100.363 359.126 92.3702 365.782 85.8223C364.827 88.2337 364.742 90.6637 365.737 92.7788L365.736 92.7778ZM299.142 199.331C317.69 239.043 382.432 248.222 443.497 219.775C504.529 191.363 539.122 135.948 520.573 96.2355C510.758 75.2324 488.012 62.7643 459.725 59.8865C494.884 61.0592 523.666 74.9576 535.414 100.094C555.677 143.459 517.679 204.099 450.718 235.272C383.78 266.454 312.812 256.53 292.552 213.154C280.818 188.007 288.66 157.047 310.373 129.397C294.386 152.892 289.327 178.315 299.143 199.332L299.142 199.331ZM289.587 214.537C310.418 259.135 383.177 269.429 451.758 237.502C520.34 205.576 559.209 143.312 538.379 98.7134C527.352 75.0982 501.743 61.0977 469.9 57.8994C508.594 59.4164 540.21 74.8614 553.175 102.621C575.721 150.868 533.468 218.304 458.987 252.977C384.506 287.651 305.592 276.615 283.068 228.388C270.071 200.543 278.621 166.317 302.469 135.683C284.318 162.163 278.525 190.85 289.587 214.537ZM280.108 229.747C303.188 279.243 383.917 290.657 460.042 255.238C536.151 219.785 579.257 150.711 556.167 101.238C543.84 74.8652 515.156 59.2988 479.531 55.8739C522.046 57.6025 556.77 74.6149 571.021 105.128C595.844 158.272 549.303 232.524 467.262 270.737C385.258 308.911 298.384 296.733 273.562 243.589C259.322 213.12 268.548 175.685 294.481 142.093C274.256 171.514 267.788 203.41 280.11 229.748L280.108 229.747ZM270.589 244.993C295.99 299.336 384.68 311.893 468.311 272.943C551.963 233.997 599.366 158.08 573.992 103.737C560.41 74.6561 528.704 57.537 489.348 53.8631C535.551 55.8503 573.264 74.4099 588.772 107.623C615.878 165.64 565.078 246.771 475.555 288.449C386.008 330.117 291.135 316.83 264.023 258.826C248.48 225.527 258.562 184.637 286.889 147.956C264.292 180.478 256.983 215.831 270.59 244.993L270.589 244.993ZM261.066 260.184C288.73 319.456 385.441 333.132 476.587 290.699C567.761 248.253 619.411 165.492 591.738 106.243C576.871 74.4135 542.087 55.7385 498.941 51.8477C501.262 51.9494 503.562 52.09 505.843 52.2695L506.076 52.2881C506.736 52.341 507.394 52.3968 508.051 52.4556L508.421 52.4894C509.041 52.5464 509.659 52.6064 510.276 52.6691L510.664 52.7096C511.295 52.7748 511.924 52.8433 512.552 52.9151L512.852 52.9485C513.567 53.0311 514.28 53.1177 514.991 53.2084L515.004 53.2099C517.219 53.4916 519.41 53.8118 521.576 54.1705L521.838 54.2145C522.453 54.3173 523.065 54.4225 523.674 54.5301L524.062 54.5995C524.638 54.7038 525.212 54.8103 525.783 54.9188L526.188 54.9966C526.771 55.1093 527.353 55.2248 527.932 55.3429L528.262 55.4098C528.919 55.5451 529.573 55.6841 530.225 55.8271L530.3 55.843C532.385 56.3007 534.443 56.7956 536.474 57.3276L536.789 57.411C537.342 57.5571 537.893 57.7059 538.442 57.8575L538.869 57.9763C539.387 58.1208 539.903 58.2681 540.418 58.418L540.859 58.5464C541.382 58.7006 541.904 58.8573 542.423 59.0165L542.799 59.1314C543.385 59.313 543.967 59.4972 544.546 59.6839L544.706 59.7345C546.013 60.1586 547.307 60.5995 548.588 61.0569C548.619 61.0682 548.651 61.0796 548.682 61.0911C549.266 61.3001 549.847 61.5122 550.425 61.7277L550.803 61.8702C551.287 62.0531 551.771 62.2382 552.253 62.4252L552.718 62.608C553.173 62.7876 553.627 62.969 554.079 63.1525L554.555 63.3469C555.013 63.536 555.469 63.727 555.923 63.9199C556.064 63.9798 556.205 64.039 556.346 64.0994C556.853 64.3169 557.356 64.537 557.857 64.7599C557.939 64.7967 558.022 64.8327 558.105 64.8696C559.299 65.403 560.478 65.9524 561.641 66.5179C561.711 66.5519 561.78 66.5863 561.85 66.6207C562.344 66.8617 562.836 67.1057 563.324 67.3526C563.467 67.4245 563.609 67.4978 563.751 67.5707C564.167 67.783 564.582 67.9973 564.994 68.2139C565.158 68.3004 565.322 68.3874 565.486 68.475C565.878 68.6833 566.268 68.8934 566.656 69.1051L567.155 69.379C567.547 69.5959 567.937 69.8144 568.326 70.0345L568.781 70.2938C569.21 70.5404 569.636 70.7892 570.059 71.0404C570.164 71.1027 570.27 71.164 570.375 71.2266C571.447 71.8663 572.502 72.521 573.54 73.1904C573.638 73.2537 573.735 73.3187 573.833 73.382C574.242 73.6477 574.65 73.9157 575.054 74.1862L575.506 74.4925C575.857 74.7298 576.205 74.9685 576.552 75.2087C576.718 75.3265 576.884 75.4409 577.05 75.5575C577.38 75.7902 577.709 76.0247 578.036 76.2609C578.203 76.3814 578.37 76.5022 578.537 76.6234C578.867 76.8652 579.195 77.1084 579.521 77.3529C579.676 77.4666 579.831 77.584 579.984 77.7011C580.34 77.9712 580.694 78.2437 581.045 78.5189C581.162 78.6104 581.281 78.7013 581.399 78.7935C582.34 79.5356 583.264 80.293 584.171 81.0657C584.283 81.1638 584.394 81.2617 584.508 81.3558C584.842 81.6424 585.173 81.9307 585.503 82.221C585.653 82.3531 585.801 82.4874 585.95 82.6196C586.239 82.8781 586.528 83.139 586.816 83.4023C586.975 83.548 587.133 83.6946 587.289 83.8411C587.564 84.0965 587.837 84.3533 588.108 84.6116C588.266 84.7621 588.423 84.9129 588.58 85.0642C588.853 85.3282 589.123 85.5939 589.392 85.8612C589.54 86.0069 589.689 86.1529 589.833 86.2992C590.125 86.5921 590.413 86.8872 590.699 87.1846C590.817 87.3069 590.936 87.4273 591.054 87.55C591.86 88.3935 592.648 89.2506 593.418 90.1214C593.531 90.2493 593.641 90.3784 593.753 90.5066C594.022 90.8146 594.289 91.1236 594.554 91.4338C594.691 91.5958 594.826 91.7595 594.963 91.9216C595.199 92.204 595.432 92.4871 595.664 92.771C595.807 92.9463 595.949 93.122 596.089 93.2985C596.313 93.577 596.534 93.857 596.754 94.1385C596.894 94.3176 597.033 94.4972 597.171 94.6771C597.392 94.965 597.611 95.2544 597.828 95.5452C597.958 95.7195 598.089 95.8923 598.217 96.0679C598.451 96.3856 598.682 96.7062 598.911 97.0269C599.018 97.1761 599.126 97.324 599.231 97.4737C599.896 98.4177 600.541 99.3754 601.167 100.347C601.267 100.501 601.364 100.658 601.462 100.813C601.673 101.146 601.883 101.479 602.09 101.815C602.205 102.003 602.319 102.193 602.433 102.383C602.619 102.69 602.803 102.999 602.985 103.309C603.103 103.51 603.219 103.712 603.336 103.914C603.511 104.219 603.684 104.525 603.856 104.833C603.97 105.036 604.083 105.241 604.196 105.446C604.369 105.762 604.539 106.078 604.707 106.397C604.812 106.594 604.918 106.792 605.021 106.99C605.202 107.338 605.378 107.689 605.555 108.041C605.64 108.211 605.728 108.38 605.812 108.55C606.069 109.073 606.322 109.599 606.57 110.128C635.951 173.051 580.892 260.986 483.826 306.158C386.77 351.359 283.909 336.943 254.524 274.031C254.277 273.501 254.036 272.969 253.801 272.436C253.724 272.262 253.651 272.087 253.575 271.912C253.419 271.551 253.263 271.189 253.114 270.825C253.027 270.618 252.943 270.411 252.859 270.204C252.723 269.87 252.59 269.536 252.458 269.201C252.372 268.983 252.288 268.765 252.206 268.547C252.08 268.218 251.956 267.888 251.835 267.557C251.755 267.339 251.675 267.12 251.596 266.902C251.475 266.562 251.356 266.222 251.239 265.881C251.168 265.672 251.095 265.465 251.026 265.255C250.9 264.879 250.779 264.502 250.658 264.124C250.603 263.951 250.546 263.778 250.493 263.604C250.321 263.052 250.154 262.498 249.993 261.943C249.99 261.932 249.988 261.921 249.984 261.909C249.828 261.366 249.677 260.821 249.532 260.275C249.485 260.098 249.44 259.919 249.395 259.742C249.295 259.361 249.199 258.979 249.104 258.595C249.053 258.385 249.004 258.174 248.953 257.965C248.869 257.611 248.787 257.257 248.707 256.902C248.658 256.682 248.61 256.461 248.563 256.239C248.488 255.889 248.415 255.539 248.344 255.187C248.3 254.967 248.256 254.748 248.213 254.528C248.143 254.164 248.076 253.8 248.011 253.436C247.974 253.23 247.936 253.024 247.901 252.818C247.83 252.409 247.764 251.999 247.7 251.589C247.675 251.428 247.648 251.267 247.623 251.106C247.449 249.956 247.298 248.8 247.169 247.64C247.15 247.471 247.135 247.302 247.117 247.133C247.074 246.723 247.034 246.312 246.994 245.9C246.976 245.696 246.958 245.492 246.942 245.287C246.908 244.906 246.879 244.527 246.853 244.146C246.837 243.931 246.823 243.717 246.809 243.502C246.785 243.125 246.763 242.748 246.743 242.37C246.732 242.158 246.722 241.946 246.712 241.734C246.694 241.341 246.679 240.946 246.667 240.551C246.661 240.358 246.654 240.165 246.648 239.969C246.637 239.516 246.629 239.062 246.627 238.608C246.625 238.475 246.621 238.342 246.62 238.208C246.612 237.017 246.625 235.82 246.662 234.619C246.666 234.471 246.673 234.323 246.678 234.175C246.694 233.728 246.712 233.28 246.733 232.832C246.744 232.644 246.755 232.456 246.763 232.267C246.785 231.854 246.81 231.442 246.837 231.03C246.85 230.831 246.864 230.631 246.879 230.431C246.908 230.021 246.941 229.611 246.976 229.202C246.992 229.008 247.009 228.812 247.026 228.619C247.065 228.188 247.107 227.757 247.153 227.324C247.17 227.155 247.186 226.987 247.205 226.817C247.26 226.308 247.319 225.797 247.382 225.287C247.393 225.196 247.402 225.107 247.414 225.018C247.568 223.788 247.745 222.555 247.944 221.32C247.963 221.202 247.984 221.084 248.002 220.966C248.083 220.477 248.166 219.987 248.253 219.498C248.283 219.333 248.315 219.169 248.343 219.003C248.425 218.556 248.51 218.108 248.597 217.659C248.632 217.48 248.668 217.303 248.702 217.128C248.792 216.682 248.884 216.237 248.979 215.791C249.015 215.621 249.051 215.451 249.088 215.282C249.191 214.808 249.296 214.335 249.406 213.861C249.438 213.725 249.468 213.588 249.498 213.451C249.631 212.875 249.77 212.301 249.915 211.726C249.924 211.693 249.931 211.659 249.94 211.625C250.256 210.364 250.594 209.102 250.954 207.838C250.978 207.756 251.003 207.673 251.026 207.591C251.179 207.058 251.334 206.526 251.493 205.993C251.534 205.857 251.576 205.72 251.618 205.584C251.765 205.101 251.916 204.617 252.07 204.132C252.118 203.982 252.166 203.831 252.215 203.681C252.369 203.2 252.527 202.72 252.688 202.238C252.735 202.098 252.782 201.957 252.83 201.816C253.005 201.3 253.182 200.785 253.364 200.27C253.401 200.169 253.434 200.07 253.469 199.969C254.142 198.074 254.862 196.178 255.63 194.282C255.647 194.235 255.669 194.188 255.688 194.14C255.921 193.571 256.156 193.001 256.396 192.431C256.441 192.323 256.488 192.214 256.534 192.106C256.752 191.591 256.974 191.076 257.199 190.561C257.253 190.437 257.307 190.314 257.362 190.19C257.587 189.678 257.816 189.167 258.049 188.657C258.099 188.545 258.15 188.433 258.202 188.321C258.454 187.769 258.711 187.217 258.971 186.665C259.002 186.6 259.032 186.536 259.062 186.472C259.965 184.564 260.915 182.659 261.912 180.758C261.919 180.737 261.932 180.72 261.942 180.701C262.255 180.104 262.572 179.508 262.894 178.913C262.939 178.828 262.985 178.744 263.032 178.66C263.323 178.123 263.618 177.586 263.916 177.05C263.972 176.949 264.029 176.848 264.085 176.746C264.383 176.213 264.685 175.68 264.99 175.148C265.041 175.06 265.092 174.972 265.144 174.884C265.477 174.307 265.814 173.729 266.155 173.153C266.176 173.118 266.196 173.082 266.217 173.047C267.343 171.146 268.515 169.251 269.732 167.362C269.732 167.362 269.734 167.358 269.734 167.357C270.125 166.75 270.52 166.145 270.92 165.54C270.966 165.47 271.013 165.401 271.058 165.332C271.419 164.788 271.784 164.243 272.153 163.699L272.328 163.44C272.696 162.9 273.067 162.361 273.442 161.822L273.595 161.602C274.005 161.015 274.418 160.429 274.835 159.844L274.872 159.792C276.211 157.919 277.594 156.054 279.02 154.199C254.239 189.717 246.188 228.349 261.067 260.184L261.066 260.184ZM251.555 275.407C281.51 339.541 386.158 354.352 484.862 308.382C583.585 262.441 639.486 172.887 609.534 108.744C593.437 74.278 555.76 54.0558 509.028 49.8544C562.634 52.3659 606.343 74.0345 624.382 112.655C656.048 180.452 596.706 275.193 492.106 323.887C387.506 372.581 276.669 357.07 245.002 289.272C226.938 250.596 238.465 203.159 271.104 160.499C244.189 198.992 235.432 240.886 251.556 275.406L251.555 275.407ZM242.037 290.654C274.258 359.64 386.922 375.589 493.17 326.124C599.389 276.676 659.57 180.261 627.346 111.274C609.971 74.0732 569.258 52.2943 518.782 47.8497C576.123 50.6045 622.86 73.8258 642.157 115.148C676.104 187.829 612.518 289.405 500.367 341.614C388.256 393.789 269.425 377.146 235.501 304.474C216.212 263.175 228.396 212.559 263.066 166.971C234.098 208.399 224.678 253.488 242.038 290.654L242.037 290.654ZM232.505 305.869C267.029 379.747 387.676 396.773 501.416 343.819C615.178 290.877 679.662 187.675 645.122 113.768C626.475 73.8219 582.682 50.4888 528.411 45.8283C589.552 48.7955 639.386 73.5748 659.977 117.658C696.208 195.209 628.315 303.659 508.682 359.335C389.009 415.048 262.197 397.251 225.981 319.719C205.413 275.683 218.375 221.702 255.307 173.07C224.081 217.53 213.868 265.966 232.507 305.869L232.505 305.869ZM223.002 321.068C259.792 399.876 388.432 418.03 509.715 361.586C631.014 305.097 699.74 195.062 662.943 116.275C643.049 73.6748 596.334 48.7925 538.458 43.8328C603.192 47.1033 655.914 73.4192 677.732 120.131C716.265 202.585 644.121 317.816 516.951 377.039C389.756 436.253 254.952 417.327 216.435 334.902C194.592 288.115 208.358 230.781 247.583 179.112C214.081 226.616 203.082 278.415 223.003 321.068L223.002 321.068ZM213.478 336.262C252.565 419.984 389.168 439.26 517.984 379.291C646.799 319.321 719.816 202.459 680.725 118.745C659.539 73.3923 609.684 46.956 547.95 41.8062C616.558 45.2554 672.438 73.1327 695.562 122.616C736.344 209.973 659.97 332.067 525.227 394.798C390.513 457.513 247.716 437.458 206.911 350.096C183.831 300.681 198.296 240.118 239.624 185.485C204.012 235.95 192.319 290.978 213.48 336.262L213.478 336.262ZM203.946 351.476C245.335 440.092 389.909 460.488 526.276 397.003C662.603 333.556 739.895 209.843 698.529 121.236C676.149 73.3321 623.545 45.37 558.382 39.8423C630.413 43.693 689.035 73.1139 713.344 125.161C756.42 217.366 675.741 346.261 533.497 412.498C391.239 478.708 240.489 457.562 197.417 365.345C173.089 313.281 188.231 249.499 231.636 191.907C193.949 245.316 181.569 303.545 203.947 351.476L203.946 351.476ZM194.441 366.752C238.093 460.165 390.641 481.739 534.538 414.731C678.426 347.745 759.957 217.208 716.314 123.772C692.655 73.094 636.962 43.5629 567.991 37.8225C643.821 41.8787 705.538 72.8504 731.145 127.651C776.492 224.763 691.544 360.496 541.779 430.237C391.99 499.97 233.235 477.665 187.89 380.541C162.266 325.702 178.223 258.523 223.958 197.874C183.936 254.362 170.746 316.019 194.442 366.752L194.441 366.752ZM184.917 381.944C230.832 480.287 391.434 502.96 542.821 432.465C694.229 361.977 780.029 224.603 734.111 126.27C709.175 72.8727 650.458 41.793 577.765 35.8098C657.329 40.1076 722.069 72.6349 748.937 130.163C796.571 232.146 707.357 374.706 550.057 447.918C392.74 521.176 226.008 497.769 178.374 395.786C151.488 338.226 168.179 267.757 216.087 204.117C173.893 263.589 159.965 328.521 184.919 381.944L184.917 381.944ZM175.401 397.189C223.62 500.425 392.158 524.159 551.09 450.171C710.042 376.188 800.128 232.007 751.91 128.773C725.721 72.7033 664.034 40.0732 587.673 33.8144C670.912 38.3897 738.625 72.4679 766.743 132.654C816.649 239.544 723.172 388.919 558.319 465.646C393.487 542.383 218.78 517.878 168.85 410.98C140.697 350.725 158.155 276.933 208.294 210.271C163.867 272.774 149.175 341.042 175.402 397.189L175.401 397.189ZM165.874 412.383C216.373 520.502 392.907 545.365 559.359 467.874C725.812 390.384 820.18 239.395 769.681 131.275C742.211 72.4436 677.41 38.2518 597.218 31.7916C684.268 36.5635 755.083 72.1993 784.485 135.16C836.696 246.943 738.964 403.121 566.602 483.381C394.225 563.611 211.558 537.962 159.347 426.179C129.916 363.168 148.151 286.019 200.555 216.326C153.853 281.862 138.367 353.486 165.875 412.383L165.874 412.383ZM156.382 427.56C209.16 540.561 393.661 566.621 567.636 485.631C741.617 404.614 840.238 246.769 787.454 133.778C758.718 72.2563 690.943 36.5201 607.083 29.7945C697.833 34.8312 771.646 72.0209 802.306 137.667C856.799 254.335 754.746 417.344 574.872 501.084C394.991 584.844 204.321 558.091 149.83 441.423C119.162 375.743 138.1 295.358 192.607 222.702C143.815 291.189 127.642 366.03 156.382 427.562L156.382 427.56ZM146.864 442.805C201.917 560.711 394.386 587.82 575.913 503.312C757.44 418.804 860.335 254.175 805.273 136.288C775.312 72.1304 704.656 34.8494 617.217 27.8083C711.523 33.1716 788.203 71.9017 820.1 140.181C876.871 261.729 770.551 431.576 583.155 518.819C395.75 606.081 197.099 578.175 140.317 456.647C108.364 388.255 128.054 304.54 184.79 228.863C133.773 300.37 116.846 378.54 146.864 442.807L146.864 442.805ZM137.354 458.028C194.696 580.798 395.162 609.086 584.196 521.047C773.264 433.046 880.404 261.579 823.061 138.809C791.767 71.7997 717.841 32.9346 626.408 25.7591C724.72 31.2392 804.677 71.5476 837.916 142.699C896.951 269.113 786.394 445.773 591.416 536.544C396.491 627.307 189.837 598.292 130.809 471.868C97.5765 400.717 118.055 313.647 177.059 234.934C123.769 309.483 106.051 391.013 137.354 458.029L137.354 458.028ZM127.837 473.274C187.438 600.921 395.888 630.286 592.466 538.753C789.065 447.227 900.511 268.964 840.886 141.309C808.326 71.6088 731.421 31.2032 636.307 23.7646C738.286 29.5122 821.214 71.3596 855.695 145.182C917.027 276.51 802.2 460.009 599.729 554.27C397.258 648.531 182.61 618.406 121.276 487.088C86.834 413.348 107.947 323.142 168.933 241.526C113.658 318.974 95.3163 403.65 127.836 473.275L127.837 473.274ZM118.313 488.465C180.217 621.006 396.643 651.545 600.74 556.508C804.862 461.483 920.547 276.333 858.657 143.811C824.858 71.4468 744.996 29.4871 646.225 21.7681C751.875 27.7923 837.772 71.1922 873.492 147.683C937.106 283.897 818.012 474.217 607.992 571.99C397.992 669.777 175.382 638.512 111.746 502.301C75.9825 425.709 97.9903 331.987 161.456 247.239C103.714 327.825 84.4799 416.011 118.313 488.467L118.313 488.465ZM108.777 503.684C172.979 641.136 397.39 672.753 609.032 574.222C820.674 475.691 940.663 283.746 876.466 146.292C841.361 71.12 758.281 27.6017 655.573 19.7307C765.143 25.9089 854.243 70.8805 891.29 150.196C957.19 291.271 833.829 488.432 616.276 589.73C398.711 691 168.142 658.591 102.235 517.527C65.2384 438.317 87.9202 341.394 153.445 253.697C93.6337 337.222 73.7115 428.607 108.777 503.683L108.777 503.684ZM99.2684 518.906C165.759 661.221 398.16 693.965 617.324 591.935C836.465 489.896 960.717 291.131 894.253 148.816C857.934 71.0644 772.091 26.0133 665.95 17.7702C778.968 24.3246 870.829 70.8188 909.062 152.69C977.24 298.659 849.618 502.633 624.544 607.434C399.481 712.213 160.912 678.695 92.733 532.726C54.5309 450.937 77.8281 350.906 145.298 260.322C83.5338 346.728 62.9969 441.225 99.2687 518.905L99.2684 518.906ZM89.7656 534.105C158.515 681.297 398.892 715.216 625.585 609.662C852.302 504.117 980.795 298.518 912.027 151.309C874.439 70.8314 785.546 24.2264 675.635 15.7575C792.425 22.5409 887.354 70.5994 926.874 155.219C997.338 306.064 865.413 516.89 632.836 625.146C400.218 733.439 153.682 698.803 83.236 547.979C43.6948 463.321 67.8604 359.787 137.775 266.086C73.5704 355.615 52.1642 453.6 89.7656 534.105ZM80.2478 549.353C151.3 701.436 399.618 736.415 633.869 627.397C868.113 518.328 1000.9 305.92 929.838 153.839C890.935 70.5387 798.832 22.3562 684.991 13.7231C805.695 20.6606 903.826 70.2847 944.67 157.72C1017.4 313.436 881.226 531.102 641.088 642.896C400.994 754.706 146.445 718.932 73.7032 563.195C32.8078 475.638 57.9245 368.523 130.407 271.65C63.6408 364.367 41.2904 465.946 80.2478 549.353ZM70.7392 564.576C144.048 721.534 400.393 757.682 642.153 645.131C883.913 532.58 1020.95 313.287 947.643 156.328C907.495 70.3824 812.488 20.6581 695.052 11.7241C819.36 18.9622 920.394 70.1269 962.474 160.209C1037.5 320.829 897.042 545.312 649.381 660.607C401.743 775.912 139.194 739.028 64.181 578.385C22.0675 488.221 47.8458 377.935 122.37 278.133C53.5608 373.775 30.5483 478.528 70.7392 564.576ZM61.2046 579.79C136.799 741.633 401.133 778.911 650.413 662.861C899.725 546.795 1041.03 320.685 965.443 158.821C924.1 70.3168 826.342 19.0667 705.466 9.76233C833.214 17.3858 936.993 70.0849 980.248 162.704C1057.57 328.229 912.877 559.533 657.664 678.347C402.474 797.168 131.987 759.148 54.6597 593.634C11.4636 501.151 37.5905 388.111 113.577 285.637C43.2965 383.927 19.9335 491.426 61.2051 579.788L61.2046 579.79ZM51.6959 595.013C129.562 761.763 401.894 800.147 658.705 680.574C915.515 561 1061.11 328.07 983.218 161.311C940.538 69.9438 839.455 17.1148 714.531 7.70551C846.322 15.421 953.433 69.698 998.06 165.235C1077.64 335.626 928.644 573.727 665.934 696.049C403.24 818.326 124.766 779.231 45.1824 608.843C0.629396 513.479 27.6757 396.884 106.178 291.254C33.3695 392.713 9.07755 503.768 51.6963 595.012L51.6959 595.013ZM42.2151 610.223C122.372 781.834 402.641 821.352 666.975 698.278C931.35 575.216 1081.16 335.445 1001.02 163.854C956.527 68.5953 850.383 14.0307 719.533 5.36842C857.488 12.2263 969.885 68.2592 1016.37 167.796C1098.31 343.21 944.959 588.371 674.461 714.301C403.984 840.238 117.273 799.925 35.3566 624.506C-11.2556 524.729 18.2478 402.399 102.126 292.275C24.2113 398.123 -2.39263 514.716 42.2154 610.222L42.2151 610.223ZM377.888 77.6968C384.418 74.911 391.129 75.9365 393.062 80.0742C395.059 84.3504 391.215 90.3656 384.484 93.5067C377.789 96.6257 370.72 95.6795 368.723 91.4062C366.792 87.2724 370.285 81.4901 376.601 78.2941C376.817 78.1898 377.03 78.0819 377.249 77.9804C377.468 77.8789 377.675 77.7914 377.888 77.6968Z" fill="#1649FF"/>
</g>
<defs>
<clipPath id="clip0_1051:20896">
<rect width="742" height="810" fill="white"/>
</clipPath>
</defs>
</svg>
