<svg width="123" height="32" viewBox="0 0 123 32" fill="none" xmlns="http://www.w3.org/2000/svg">
<path d="M13.4402 1.03194C11.8566 1.21131 9.48116 1.95638 8.12963 2.70146C4.49822 4.67453 2.04088 7.75142 0.81221 11.8493C0.566476 12.6496 0.279786 14.8297 0.293438 15.8507C0.293438 16.7475 0.566476 18.9414 0.730299 19.4657C0.81221 19.714 0.989685 20.3073 1.13986 20.7627C1.38559 21.5353 2.5733 23.9637 2.77808 24.1293C2.81904 24.1707 3.03747 24.4467 3.24225 24.764C3.74737 25.5229 5.0716 26.8751 6.06819 27.6477C6.8327 28.241 8.9897 29.4966 9.26273 29.5104C9.33099 29.5104 9.34464 28.9861 9.30369 28.2962C9.20813 26.7647 9.49482 24.6812 10.1092 22.5564C10.2184 22.1976 10.3003 21.7285 10.3003 21.5215C10.3003 21.3146 10.3549 21.0938 10.4231 21.0248C10.4914 20.942 10.6143 20.5419 10.6825 20.128C10.7644 19.714 10.901 19.0793 10.9965 18.7206C11.133 18.1825 11.1194 17.9755 10.9283 17.396C10.6552 16.513 10.6416 15.078 10.9146 14.3881C11.5563 12.7462 12.2662 12.1253 13.4675 12.1253C14.9146 12.1253 15.6109 13.2291 15.3378 15.078C15.215 15.9197 14.8737 17.2443 14.6552 17.6582C14.6006 17.7824 14.5051 18.1273 14.4641 18.4171C14.4095 18.7206 14.3003 19.1483 14.232 19.3829C14.0409 19.921 14.4095 20.9696 14.901 21.3698C15.3651 21.7423 16.3344 21.8527 17.2218 21.6457C17.8498 21.5077 18.1092 21.3422 18.7645 20.7075C19.5426 19.9348 20.1296 19.038 20.1296 18.6102C20.1296 18.486 20.1979 18.3205 20.2798 18.2377C20.6621 17.8514 20.8668 14.8434 20.5802 13.5741C20.2662 12.1805 19.2969 10.8145 18.0409 10.0142C16.7849 9.20018 14.1911 8.96562 12.5938 9.51753C11.4743 9.90387 10.4778 10.5524 9.83611 11.3112C9.26273 11.9873 8.66205 13.0911 8.66205 13.4775C8.66205 13.6155 8.59379 13.7948 8.51188 13.8776C8.42997 13.9604 8.33441 14.4847 8.29345 15.0504C8.22519 15.8921 8.2798 16.2784 8.52553 17.1063C8.68936 17.672 8.9897 18.3343 9.16717 18.5826C9.53577 19.0793 9.53577 19.2725 9.19448 20.5971C9.09891 20.9558 8.93509 21.287 8.83953 21.3284C7.97946 21.6595 6.23201 19.5761 5.64498 17.5064C5.42655 16.7199 5.4129 13.919 5.63133 13.0911C5.72689 12.7462 5.89072 12.2771 5.99993 12.0287C6.10915 11.7942 6.20471 11.5596 6.20471 11.5044C6.20471 11.4492 6.47775 10.9801 6.81905 10.4696C8.59379 7.76522 11.4743 6.33026 15.1194 6.33026C15.9522 6.33026 16.8122 6.38545 17.0443 6.45444C18.9283 7.04774 19.4334 7.24091 20.1706 7.68244C21.6041 8.55169 22.6416 9.73829 23.6791 11.7252C23.7474 11.8493 23.843 12.1805 23.8839 12.4564C23.9385 12.7324 24.0341 12.9946 24.1023 13.0359C24.1706 13.0773 24.2252 13.9742 24.2252 15.0366C24.2252 16.9545 24.0887 17.7272 23.5153 19.3001C22.8737 21.0248 21.2218 22.9289 19.7201 23.674C18.86 24.0879 17.2491 24.5432 16.6075 24.5432C15.7474 24.5432 14.0545 23.8258 13.5904 23.2463C13.372 22.9841 13.1672 23.0807 13.1672 23.4532C13.1672 23.5912 13.1126 23.8258 13.0307 23.9637C12.9624 24.0879 12.8395 24.4743 12.7713 24.8192C12.3754 26.6405 11.8156 28.1168 10.9556 29.4966C10.6962 29.9243 10.9146 30.1727 11.6245 30.2693C11.9795 30.3245 12.4573 30.4211 12.6757 30.4901C13.2218 30.6694 16.1842 30.6418 17.1808 30.4625C18.0819 30.2969 19.5426 29.883 20.1979 29.607C24.3208 27.8961 27.4471 24.4191 28.7986 19.99C29.5221 17.6306 29.5631 14.8848 28.9078 12.1253C28.6894 11.2284 28.6211 11.0215 28.0341 9.64171C27.1877 7.62724 25.2764 5.26783 23.3378 3.81907C21.6723 2.57728 20.0341 1.8598 17.4812 1.2389C16.7713 1.07333 14.2457 0.935353 13.4402 1.03194ZM49.8498 6.01291C49.3174 6.0957 48.471 6.97875 48.2526 7.66864C48.0205 8.42751 48.2525 9.24158 48.9078 9.87627C50.3549 11.2974 52.8669 9.95906 52.5529 7.917C52.3618 6.62001 51.1877 5.79215 49.8498 6.01291ZM34.9693 6.82698C34.8464 6.96495 34.8464 23.605 34.9829 23.7982C35.0512 23.9085 35.6382 23.9499 36.785 23.9361L38.4914 23.9223L38.5597 21.1214C38.6143 18.8448 38.6689 18.2929 38.8327 18.1963C38.942 18.1273 39.8703 18.0583 40.8942 18.0583C43.1331 18.0583 44.0751 17.8927 45.099 17.3408C46.4369 16.6096 47.215 15.5609 47.6382 13.8914C47.8976 12.8428 47.8976 12.0839 47.6246 11.0077C47.3788 10.0418 47.2696 9.80728 46.6826 9.02081C45.959 8.04118 45.2218 7.50307 44.0205 7.07534C43.3515 6.85457 42.7918 6.81318 39.174 6.77179C36.9215 6.74419 35.0239 6.77179 34.9693 6.82698ZM42.4641 10.2626C43.3788 10.5524 43.8293 10.9663 44.0341 11.7114C44.2935 12.691 44.1024 13.6017 43.529 14.1536C42.901 14.7469 42.3413 14.8848 40.5119 14.8848C39.3106 14.8848 38.942 14.8434 38.7781 14.6641C38.6007 14.4985 38.5597 14.0984 38.5597 12.5254C38.5597 10.0418 38.5461 10.0556 40.4437 10.0556C41.2628 10.0556 42.0546 10.1384 42.4641 10.2626ZM66.4096 9.44854C66.4096 10.4006 66.3413 11.2974 66.2731 11.4492C66.1775 11.6286 65.9864 11.7114 65.6587 11.7114C65.413 11.7114 65.1809 11.7666 65.1536 11.8493C65.14 11.9183 65.1399 12.4013 65.1809 12.9118C65.2492 13.8224 65.2628 13.8362 65.6724 13.9328C65.9045 13.9742 66.1638 14.057 66.2458 14.1122C66.3686 14.1812 66.4096 15.2712 66.4096 18.0307C66.4096 21.7423 66.4232 21.8803 66.7236 22.4322C67.3516 23.605 68.3345 24.0189 70.3277 23.9637L71.6656 23.9223L71.7065 22.584L71.7475 21.2318H71.4062C70.8874 21.2318 70.1229 20.8179 70.041 20.4867C70 20.3211 69.9591 18.8586 69.9591 17.2167C69.9591 14.9538 70 14.195 70.1365 14.0846C70.2321 14.0018 70.6144 13.919 70.983 13.8914L71.6656 13.85V11.7804L70.9147 11.739C70.5051 11.7114 70.1229 11.6148 70.0683 11.532C70.0137 11.4354 69.9591 10.5386 69.9591 9.53133V7.71003H66.4096V9.44854ZM117.154 7.79282C117.099 7.84801 117.058 8.71726 117.058 9.7245C117.058 11.6838 117.044 11.7114 116.294 11.7114C115.952 11.7114 115.952 11.7252 115.993 12.7738C116.034 13.8224 116.048 13.85 116.403 13.8914C116.594 13.919 116.826 14.0156 116.894 14.0984C116.976 14.195 117.058 15.8645 117.099 17.9893C117.14 20.0314 117.208 21.8941 117.263 22.1148C117.427 22.7219 118.273 23.4946 119.079 23.7568C119.98 24.0603 122.273 24.0879 122.505 23.7982C122.614 23.674 122.655 23.1773 122.628 22.4598L122.587 21.3008L122.109 21.218C121.591 21.1352 121.004 20.8593 120.853 20.6247C120.799 20.5419 120.744 19.038 120.744 17.2856C120.744 13.6844 120.662 13.919 121.85 13.919C122.628 13.919 122.696 13.781 122.628 12.5254L122.587 11.7804L121.7 11.7114L120.812 11.6424L120.744 9.7107L120.676 7.77902L118.956 7.73763C118.014 7.72383 117.208 7.75142 117.154 7.79282ZM59.6519 11.3802C58.9829 11.5596 58.2048 12.0149 57.686 12.553C57.058 13.2153 56.8942 13.1739 56.8259 12.3323L56.785 11.7804H53.372V23.9223L55.0922 23.9499C56.785 23.9913 56.8259 23.9775 56.9079 23.674C56.9488 23.5084 56.9898 21.7561 56.9898 19.7692C56.9898 15.8369 57.0034 15.7265 57.8089 14.9538C58.1638 14.6089 58.355 14.5399 59.1195 14.4985L60.0068 14.4433L60.5393 15.009C61.1672 15.6713 61.099 15.0366 61.1536 20.7489C61.1672 22.2666 61.1809 23.605 61.1945 23.743C61.2219 23.9361 61.4403 23.9637 62.9693 23.9361L64.7031 23.9223V14.2363L64.3072 13.4499C63.6246 12.0839 62.5734 11.4354 60.9625 11.3526C60.3891 11.3388 59.8021 11.3388 59.6519 11.3802ZM76.7168 11.3802C75.2424 11.7804 74.5325 12.1805 73.6178 13.0911C72.3891 14.3467 71.8294 15.8093 71.8294 17.7824C71.843 21.2456 73.9864 23.812 77.1536 24.1155C79.8567 24.3777 81.9454 23.5774 83.2833 21.7699C83.4744 21.5077 83.884 20.6661 83.884 20.5143C83.884 20.4591 83.0922 20.4039 82.1366 20.4039H80.3891L79.9796 20.8317C79.5018 21.3284 78.8328 21.6457 78.2185 21.6457C77.6041 21.6457 76.6622 21.2042 76.2253 20.7351C75.8977 20.3625 75.4198 19.2863 75.4198 18.9138C75.4198 18.7896 76.4164 18.7482 79.6246 18.7482C81.9318 18.7482 83.884 18.693 83.9796 18.6378C84.1844 18.4998 83.9932 16.306 83.6929 15.5057C83.0785 13.8362 81.9181 12.4288 80.7441 11.9321C80.4028 11.7942 80.0069 11.6148 79.8703 11.5458C79.5837 11.394 77.1536 11.2698 76.7168 11.3802ZM79.3789 14.4019C79.9113 14.7745 80.3755 15.6575 80.3072 16.1542C80.2662 16.4716 80.239 16.4716 77.9318 16.513C75.2697 16.5544 75.256 16.5406 75.6792 15.5471C75.9796 14.8572 76.5802 14.2363 77.14 14.057C77.7816 13.85 78.8192 14.0156 79.3789 14.4019ZM96.9216 11.3802C95.3379 11.808 94.2321 12.5116 93.3721 13.6017C93.0308 14.0432 92.7577 14.4571 92.7577 14.5399C92.7577 14.6089 92.6622 14.8572 92.5393 15.0918C92.4164 15.3126 92.239 16.0025 92.1434 16.6234C91.6656 19.5761 92.9762 22.3356 95.4335 23.5774L96.3755 24.0603H98.355C100.403 24.0603 100.58 24.0189 101.836 23.3428C102.751 22.8461 104.253 20.9144 104.021 20.5281C103.966 20.4591 103.188 20.4039 102.273 20.4039H100.594L100.253 20.8041C98.8874 22.3632 96.3345 21.5629 95.7885 19.3967C95.7065 19.1069 95.7065 18.8586 95.7748 18.8034C95.8431 18.762 97.7953 18.7344 100.13 18.7482C103.461 18.7482 104.362 18.7206 104.376 18.5826C104.498 16.8579 103.679 14.3053 102.655 13.2015C102.082 12.5806 101.085 11.8907 100.594 11.7666C100.376 11.7114 100.13 11.6148 100.034 11.5458C99.8431 11.394 97.3448 11.2698 96.9216 11.3802ZM99.0513 14.0708C99.6656 14.2915 100.375 15.0642 100.485 15.6575C100.649 16.5544 100.662 16.5544 98.1229 16.513C95.8431 16.4716 95.8294 16.4716 95.7885 16.1542C95.7339 15.7679 96.2117 14.8159 96.6212 14.4571C97.2083 13.9604 98.2321 13.7948 99.0513 14.0708ZM108.799 11.3802C106 12.0563 104.99 13.0635 104.976 15.1608C104.976 17.4236 106.096 18.3757 109.413 18.969C111.693 19.3691 112.348 19.7278 112.321 20.5971C112.307 21.218 111.884 21.6181 111.038 21.7975C109.973 22.0321 109.14 21.7699 108.471 21.011L107.939 20.4039H106.287C104.949 20.4039 104.635 20.4453 104.635 20.5971C104.635 20.9972 105.181 22.0459 105.631 22.5702C106.055 23.0255 106.382 23.2463 107.666 23.8672C107.788 23.9361 108.457 24.0465 109.126 24.1293C110.369 24.2811 112.526 24.1431 113.072 23.8672C113.195 23.812 113.55 23.6326 113.85 23.4946C114.628 23.1221 115.365 22.2804 115.638 21.4802C115.939 20.5695 115.857 19.3001 115.434 18.4171C114.928 17.3822 113.591 16.6372 111.597 16.2784C109.031 15.8231 108.99 15.8093 108.58 15.4092C108.089 14.8986 108.089 14.7193 108.58 14.1674C108.976 13.7258 109.003 13.712 110.096 13.712C111.188 13.712 111.215 13.7258 111.611 14.1674C111.829 14.4157 112.007 14.7055 112.007 14.8159C112.007 14.9814 112.294 15.0228 113.713 15.0228C115.597 15.0228 115.543 15.0642 115.215 14.0846C114.614 12.3461 113.072 11.463 110.505 11.3664C109.713 11.3388 108.949 11.3388 108.799 11.3802ZM90.6417 11.67C90.041 11.8769 89.2082 12.5668 88.9489 13.0635C88.6895 13.5603 88.4574 13.3533 88.3891 12.5254L88.3209 11.7804H84.9079L84.8669 17.5754C84.8533 20.7627 84.8669 23.5084 84.9079 23.6878C84.9762 23.9913 85.0171 23.9913 86.6553 23.9637C87.5973 23.9499 88.3618 23.8672 88.4164 23.7844C88.471 23.7154 88.5257 22.2528 88.5257 20.5419C88.5257 17.8376 88.553 17.3546 88.785 16.7475C89.2629 15.4919 90.2867 14.7469 91.57 14.7469C91.925 14.7469 92.0751 14.6779 92.1161 14.4985C92.2117 14.0984 92.2253 12.2357 92.1434 11.8217C92.0615 11.4906 91.9932 11.4354 91.6246 11.4492C91.3789 11.463 90.942 11.5596 90.6417 11.67ZM48.5938 11.8769C48.5529 11.9735 48.5392 14.6917 48.5529 17.9203L48.5938 23.7844L50.2184 23.8534C51.2014 23.8947 51.9113 23.8672 52.0205 23.7844C52.1706 23.674 52.2116 22.5012 52.2116 17.81C52.2253 14.6089 52.1843 11.9183 52.1433 11.8493C52.0068 11.6424 48.6621 11.67 48.5938 11.8769Z" fill="white"/>
</svg>
