<svg width="98" height="32" viewBox="0 0 98 32" fill="none" xmlns="http://www.w3.org/2000/svg">
<path d="M12.2486 0H13.1097C16.0993 0.0656857 19.0402 1.28087 21.1524 3.43208C20.3725 4.23673 19.5763 5.00853 18.8127 5.81318C17.6266 4.72937 16.1968 3.89188 14.637 3.59629C12.3298 3.10365 9.84393 3.54703 7.91045 4.87716C5.79824 6.27298 4.36843 8.63766 4.05973 11.1666C3.71852 13.6626 4.41718 16.29 6.02571 18.2278C7.56925 20.1162 9.92517 21.2986 12.3623 21.3807C14.637 21.5121 17.0092 20.8059 18.6665 19.1966C19.9663 18.0636 20.5675 16.3393 20.7624 14.6643C18.0653 14.6643 15.3682 14.6807 12.671 14.6643V11.2815H24.0282C24.6132 14.9106 23.7683 18.9996 21.0386 21.5942C19.2189 23.4334 16.7005 24.5172 14.1333 24.7307C11.6474 24.977 9.08029 24.5008 6.87059 23.2856C4.2222 21.8569 2.10999 19.443 1.07014 16.6021C0.0952696 13.991 0.0790219 11.0352 0.988897 8.40776C1.81753 6.01024 3.40982 3.89188 5.45703 2.41395C7.42302 0.952442 9.81144 0.147793 12.2486 0Z" fill="white"/>
<path d="M77.4023 0.854004H80.8794V24.3037C79.7258 24.3037 78.5559 24.3202 77.4023 24.2873C77.4186 16.4872 77.4023 8.67058 77.4023 0.854004V0.854004Z" fill="white"/>
<path d="M31.7625 8.98258C33.9072 8.57205 36.2306 9.03185 38.0016 10.3291C39.6101 11.4786 40.7312 13.285 41.0724 15.2555C41.5111 17.5381 40.9587 20.0341 39.4964 21.8405C37.9204 23.8603 35.337 24.9441 32.8186 24.7799C30.5114 24.6485 28.2692 23.4826 26.9044 21.5777C25.3608 19.4758 24.9871 16.5856 25.832 14.1224C26.6769 11.4786 29.0653 9.4588 31.7625 8.98258V8.98258ZM32.2499 12.1026C31.3725 12.3325 30.5601 12.8416 29.9752 13.5641C28.3992 15.469 28.4967 18.5726 30.2352 20.3461C31.2263 21.3642 32.7211 21.8405 34.1021 21.5613C35.3857 21.3314 36.5068 20.4611 37.1242 19.3116C38.1966 17.3574 37.8879 14.6643 36.2469 13.1372C35.1907 12.1519 33.6472 11.7414 32.2499 12.1026Z" fill="white"/>
<path d="M48.9839 8.98257C51.4373 8.50635 54.1182 9.19605 55.9542 10.9367C58.9438 13.6463 59.2688 18.7205 56.7179 21.8406C55.1743 23.8111 52.6722 24.8949 50.2025 24.78C47.8466 24.7143 45.5231 23.532 44.1258 21.5778C42.5498 19.4266 42.2086 16.4708 43.1022 13.9583C43.9958 11.3965 46.3355 9.44237 48.9839 8.98257V8.98257ZM49.4713 12.1026C48.594 12.3325 47.7816 12.8416 47.1967 13.5477C45.6369 15.4198 45.7019 18.4742 47.3754 20.2641C48.3665 21.3315 49.91 21.857 51.3398 21.5614C52.6072 21.3151 53.7445 20.4612 54.3619 19.3117C55.418 17.3411 55.1093 14.648 53.4521 13.1208C52.396 12.1355 50.8524 11.7414 49.4713 12.1026Z" fill="white"/>
<path d="M63.5915 9.93503C65.46 8.75269 67.9459 8.42427 69.9606 9.44239C70.5943 9.72156 71.1142 10.1978 71.6179 10.674C71.6341 10.2306 71.6179 9.77082 71.6341 9.31102C72.7228 9.32744 73.8114 9.31102 74.9162 9.32744V23.8111C74.9 25.9951 74.3475 28.3106 72.7877 29.9034C71.0817 31.6605 68.4658 32.2024 66.1099 31.8412C63.5915 31.4635 61.398 29.6079 60.4232 27.2596C61.398 26.7834 62.4216 26.4057 63.429 25.9623C63.9977 27.3089 65.1513 28.4584 66.5973 28.7211C68.0434 28.9838 69.7169 28.6226 70.6593 27.4074C71.6666 26.1594 71.6666 24.4515 71.6179 22.9244C70.8705 23.6633 70.0094 24.3202 68.9695 24.5665C66.7111 25.2069 64.2252 24.4187 62.4866 22.8751C60.7319 21.3315 59.692 18.9504 59.7895 16.5857C59.8382 13.909 61.333 11.3309 63.5915 9.93503V9.93503ZM66.9548 12.037C65.9637 12.2012 65.0375 12.7595 64.4039 13.5313C62.8766 15.3705 62.8766 18.3099 64.4201 20.1163C65.2975 21.1837 66.7111 21.7749 68.0759 21.6271C69.3595 21.4957 70.5455 20.6746 71.1792 19.5415C72.2516 17.6202 72.0728 15.0092 70.6268 13.3343C69.7332 12.2997 68.3034 11.7907 66.9548 12.037V12.037Z" fill="white"/>
<path d="M85.0533 10.7725C87.0031 8.93333 90.0089 8.30931 92.5111 9.27818C94.8833 10.1814 96.3943 12.4639 97.1579 14.8122C93.6322 16.2901 90.1227 17.7516 86.5969 19.2295C87.0843 20.1656 87.8317 21.0195 88.8391 21.3643C90.2526 21.8734 91.9424 21.6928 93.1285 20.7403C93.5997 20.379 93.9734 19.9028 94.3308 19.443C95.2245 20.0506 96.1181 20.6418 97.0117 21.2494C95.7444 23.1707 93.6159 24.5172 91.325 24.7307C88.7903 25.0427 86.0932 24.0574 84.4522 22.054C81.755 18.9011 82.015 13.6134 85.0533 10.7725V10.7725ZM86.7919 13.8105C86.2394 14.6151 86.012 15.6004 86.0282 16.5693C88.3841 15.584 90.7401 14.5987 93.096 13.597C92.706 12.6774 91.7637 12.1191 90.8051 11.9713C89.2615 11.6921 87.653 12.5296 86.7919 13.8105V13.8105Z" fill="white"/>
</svg>
