<svg width="95" height="32" viewBox="0 0 95 32" fill="none" xmlns="http://www.w3.org/2000/svg">
<path d="M90.6307 6.0842H86.5101V0.31543H77.4622L73.3013 6.0842H65.9074L63.4351 8.55653V6.0842H57.6663V0.31543H39.5359V6.0842H14.0297L9.86794 0.31543H0.802734V20.0941L12.3403 31.6316H23.8778V28.3352L27.1742 31.6316H49.4252V28.3352L52.7216 31.6316H63.4351V28.3352L66.7315 31.6316H87.3342L94.7512 24.2146V10.2047L90.6307 6.0842ZM14.8126 14.3253H9.04383V15.9735H14.8126V22.5664H5.74739L2.45095 19.2699V1.96365H9.04383V7.73242H14.8126V14.3253ZM39.5359 22.5664H19.7573L16.4608 19.2699V7.73242H23.0537V15.9735H24.7019V7.73242H31.2948V15.9735H32.943V7.73242H39.5359V22.5664ZM47.777 22.5664H41.1841V7.73242H47.777V22.5664ZM47.777 6.0842H41.1841V1.96365H47.777V6.0842ZM61.7868 14.3253H56.0181V15.9735H61.7868V22.5664H52.7216L49.4252 19.2699V1.96365H56.0181V7.73242H61.7868V14.3253ZM76.6208 14.3253H70.0279V15.9735H76.6208V22.5664H66.7315L63.4351 19.2699V11.0289L66.7315 7.73242H76.6208V14.3253ZM93.103 22.5664H86.5101V14.3253H84.8619V22.5664H78.269V1.96365H84.8619V7.73242H89.8066L93.103 11.0289V22.5664Z" fill="#A0A9BD"/>
</svg>
