<svg width="80" height="80" viewBox="0 0 80 80" fill="none" xmlns="http://www.w3.org/2000/svg">
<circle cx="40" cy="40" r="40" fill="#1649FF"/>
<path d="M45.5692 39.9997C45.5692 40.9812 45.535 41.939 45.4701 42.8679C45.4367 43.3466 45.0348 43.7123 44.555 43.7123H35.4457C34.9659 43.7123 34.564 43.3466 34.5305 42.8679C34.4657 41.939 34.4315 40.9812 34.4315 39.9997C34.4315 39.0182 34.4657 38.0604 34.5305 37.1314C34.564 36.6528 34.9659 36.2871 35.4457 36.2871H44.555C45.0348 36.2871 45.4367 36.6528 45.4701 37.1314C45.535 38.0604 45.5692 39.0182 45.5692 39.9997Z" fill="white"/>
<path d="M50.1376 36.2871C49.5945 36.2871 49.1683 36.7513 49.2009 37.2934C49.2542 38.1788 49.2817 39.0822 49.2817 39.9997C49.2817 40.9172 49.2542 41.8206 49.2009 42.706C49.1683 43.2481 49.5945 43.7123 50.1376 43.7123H57.4332C57.8746 43.7123 58.2575 43.4017 58.3274 42.9659C58.4826 42 58.5631 41.0093 58.5631 39.9997C58.5631 38.9901 58.4826 37.9994 58.3274 37.0335C58.2575 36.5977 57.8746 36.2871 57.4332 36.2871H50.1376Z" fill="white"/>
<path d="M56.4013 31.2977C56.7154 31.8886 56.2693 32.5746 55.6002 32.5746H49.4269C48.9769 32.5746 48.593 32.2511 48.505 31.8098C47.9235 28.8911 47.0406 26.3292 45.943 24.3143C45.5126 23.5241 46.2316 22.4853 47.0636 22.8279C51.0745 24.4795 54.3797 27.4954 56.4013 31.2977Z" fill="white"/>
<path d="M44.6328 31.4701C44.7669 32.0395 44.3269 32.5746 43.7419 32.5746H36.2588C35.6738 32.5746 35.2338 32.0395 35.3679 31.4701C35.7579 29.8143 36.2522 28.3404 36.8172 27.0975C38.3835 23.6516 39.7884 23.2931 40.0003 23.2931C40.2122 23.2931 41.6172 23.6516 43.1835 27.0975C43.7484 28.3404 44.2428 29.8143 44.6328 31.4701Z" fill="white"/>
<path d="M30.5737 32.5746C31.0238 32.5746 31.4077 32.2511 31.4956 31.8098C32.0772 28.8911 32.96 26.3292 34.0576 24.3143C34.488 23.5241 33.769 22.4853 32.937 22.8279C28.9262 24.4795 25.621 27.4954 23.5994 31.2977C23.2852 31.8886 23.7313 32.5746 24.4005 32.5746H30.5737Z" fill="white"/>
<path d="M22.5675 36.2871C22.1261 36.2871 21.7432 36.5977 21.6732 37.0335C21.5181 37.9994 21.4375 38.9901 21.4375 39.9997C21.4375 41.0093 21.5181 42 21.6732 42.9659C21.7432 43.4017 22.1261 43.7123 22.5675 43.7123H29.8631C30.4061 43.7123 30.8323 43.2481 30.7997 42.706C30.7464 41.8206 30.7189 40.9172 30.7189 39.9997C30.7189 39.0822 30.7464 38.1788 30.7997 37.2934C30.8323 36.7513 30.4061 36.2871 29.8631 36.2871H22.5675Z" fill="white"/>
<path d="M36.8172 52.9019C36.2522 51.659 35.7579 50.185 35.3679 48.5293C35.2338 47.9599 35.6738 47.4248 36.2588 47.4248H43.7419C44.3269 47.4248 44.7669 47.9599 44.6328 48.5293C44.2428 50.185 43.7484 51.659 43.1835 52.9019C41.6172 56.3478 40.2122 56.7062 40.0003 56.7062C39.7884 56.7062 38.3835 56.3478 36.8172 52.9019Z" fill="white"/>
<path d="M31.4956 48.1896C31.4077 47.7482 31.0238 47.4248 30.5737 47.4248H24.4005C23.7313 47.4248 23.2852 48.1108 23.5994 48.7016C25.621 52.504 28.9262 55.5199 32.937 57.1714C33.769 57.514 34.488 56.4752 34.0576 55.6851C32.96 53.6702 32.0772 51.1082 31.4956 48.1896Z" fill="white"/>
<path d="M56.4013 48.7016C56.7154 48.1108 56.2693 47.4248 55.6002 47.4248H49.4269C48.9769 47.4248 48.593 47.7482 48.505 48.1896C47.9235 51.1082 47.0406 53.6702 45.943 55.6851C45.5126 56.4753 46.2316 57.514 47.0636 57.1714C51.0745 55.5199 54.3797 52.504 56.4013 48.7016Z" fill="white"/>
</svg>
