<svg width="97" height="97" viewBox="0 0 97 97" fill="none" xmlns="http://www.w3.org/2000/svg">
<circle cx="48.6016" cy="48.3564" r="48" fill="#1649FF"/>
<path d="M56.7174 32.4888H45.716C44.03 32.4899 42.3969 33.0777 41.0969 34.1513C39.7969 35.2249 38.9109 36.7174 38.5909 38.3728C38.271 40.0282 38.537 41.7433 39.3434 43.224C40.1497 44.7047 41.4462 45.8587 43.0103 46.4881L54.1795 50.9525C55.7471 51.5796 57.0472 52.7333 57.8563 54.2153C58.6653 55.6973 58.9327 57.4149 58.6124 59.0726C58.2921 60.7304 57.4042 62.2248 56.1014 63.2987C54.7985 64.3727 53.1622 64.9591 51.4738 64.9572H40.4832" stroke="white" stroke-width="8" stroke-linecap="round" stroke-linejoin="round"/>
<path d="M48.6035 32.5103V26.6734" stroke="white" stroke-width="8" stroke-linecap="round" stroke-linejoin="round"/>
<path d="M48.6035 70.0392V64.9783" stroke="white" stroke-width="8" stroke-linecap="round" stroke-linejoin="round"/>
</svg>
