<svg width="80" height="80" viewBox="0 0 80 80" fill="none" xmlns="http://www.w3.org/2000/svg">
<circle cx="40" cy="40" r="40" fill="#1649FF"/>
<path d="M51.5502 39.0729C51.5502 45.9642 45.9637 51.5507 39.0724 51.5507C32.1811 51.5507 26.5947 45.9642 26.5947 39.0729C26.5947 32.1816 32.1811 26.5951 39.0724 26.5951C45.9637 26.5951 51.5502 32.1816 51.5502 39.0729ZM52.7752 49.4467C54.9609 46.5638 56.2581 42.9692 56.2581 39.0729C56.2581 29.5815 48.5638 21.8872 39.0724 21.8872C29.581 21.8872 21.8867 29.5815 21.8867 39.0729C21.8867 48.5643 29.581 56.2586 39.0724 56.2586C42.9688 56.2586 46.5634 54.9614 49.4462 52.7757L54.0936 57.4231C55.0129 58.3424 56.5034 58.3424 57.4226 57.4231C58.3419 56.5039 58.3419 55.0134 57.4227 54.0941L52.7752 49.4467Z" fill="white" stroke="white" stroke-linecap="round"/>
</svg>
