<svg width="80" height="80" viewBox="0 0 80 80" fill="none" xmlns="http://www.w3.org/2000/svg">
<circle cx="40" cy="40" r="40" fill="#1649FF"/>
<path d="M18.1113 49.9498V55.9199C18.1113 57.0189 19.0023 57.9099 20.1013 57.9099H47.9616C49.0606 57.9099 49.9516 57.0189 49.9516 55.9199V49.9498C49.9516 45.5536 46.3877 41.9897 41.9915 41.9897H26.0714C21.6752 41.9897 18.1113 45.5536 18.1113 49.9498Z" fill="white"/>
<path d="M53.901 56.5403C53.8305 57.2234 54.3135 57.9099 55.0002 57.9099H59.9029C61.002 57.9099 61.893 57.0189 61.893 55.9199V49.9498C61.893 45.5536 58.3291 41.9897 53.9329 41.9897H52.0055C51.5755 41.9897 51.3394 42.5066 51.5953 42.8522C53.0643 44.8363 53.9329 47.2916 53.9329 49.9498V55.9199C53.9329 56.1294 53.9221 56.3364 53.901 56.5403Z" fill="white"/>
<path d="M41.9924 30.0499C41.9924 34.4461 38.4286 38.01 34.0323 38.01C29.6361 38.01 26.0723 34.4461 26.0723 30.0499C26.0723 25.6537 29.6361 22.0898 34.0323 22.0898C38.4286 22.0898 41.9924 25.6537 41.9924 30.0499Z" fill="white"/>
<path d="M44.6788 37.9057C44.0007 37.795 43.7695 36.9936 44.1361 36.4126C45.2983 34.5706 45.9708 32.3888 45.9708 30.0499C45.9708 27.711 45.2983 25.5292 44.1361 23.6873C43.7695 23.1062 44.0007 22.3048 44.6788 22.1942C45.0993 22.1255 45.5309 22.0898 45.9708 22.0898C50.367 22.0898 53.9309 25.6537 53.9309 30.0499C53.9309 34.4461 50.367 38.01 45.9708 38.01C45.5309 38.01 45.0993 37.9743 44.6788 37.9057Z" fill="white"/>
</svg>
