<svg width="111" height="32" viewBox="0 0 111 32" fill="none" xmlns="http://www.w3.org/2000/svg">
<path d="M19.2008 28.3408L12.0487 28.2085C9.73299 28.1625 7.41156 28.2545 5.14135 27.7772C1.68766 27.0641 1.443 23.5678 1.18696 20.6351C0.834195 16.5119 0.97075 12.3141 1.63645 8.22544C2.01198 5.93098 3.49132 4.56236 5.7786 4.41284C13.4996 3.87229 21.2718 3.93555 28.9758 4.18857C29.7894 4.21158 30.6087 4.33809 31.411 4.48185C35.3711 5.18341 35.4678 9.14552 35.7238 12.4808C35.9799 15.8506 35.8718 19.2377 35.3824 22.5845C34.9899 25.3562 34.2388 27.6795 31.0696 27.9037C27.0981 28.197 23.2177 28.4328 19.2349 28.358C19.2349 28.3408 19.2121 28.3408 19.2008 28.3408V28.3408ZM14.996 21.3251C17.9888 19.5885 20.9248 17.8806 23.9005 16.1554C20.902 14.4187 17.9718 12.7108 14.996 10.9857V21.3251Z" fill="white"/>
<path d="M93.0898 25.1895C92.9532 25.7531 92.8338 26.1959 92.7143 26.6674H89.9149V4.84399H93.1808V12.8948C93.3515 12.6763 93.4369 12.5843 93.5108 12.4865C94.0684 11.7102 94.791 11.2041 95.7241 11.0086C97.2092 10.7153 98.478 11.3767 98.9275 12.82C99.2177 13.7171 99.4054 14.6775 99.4282 15.6148C99.4737 18.0243 99.4396 20.4281 99.3542 22.8376C99.3201 23.5736 99.0982 24.327 98.8194 25.017C97.9033 27.2943 94.9105 27.6393 93.4255 25.6668C93.3344 25.5461 93.2491 25.4138 93.0898 25.1895V25.1895ZM93.2491 19.1859V23.1768C93.2491 23.8267 93.5905 24.2234 94.2334 24.373C94.865 24.5225 95.3771 24.2752 95.6331 23.6829C95.7412 23.4356 95.8493 23.1768 95.855 22.9181C95.9176 20.4798 95.9745 18.0416 95.9916 15.5976C95.9916 15.1433 95.8835 14.6717 95.7469 14.2289C95.4909 13.4296 94.7853 13.1938 94.0912 13.6596C93.5677 14.0162 93.2491 14.5222 93.2491 15.195V19.1859ZM84.3731 11.3191H87.7926V26.6789H85.1241C85.0274 26.0981 84.9307 25.5001 84.8169 24.7985C84.6348 25.0688 84.5267 25.2413 84.4129 25.4138C83.5253 26.7077 82.2679 27.1505 80.7828 26.9147C79.514 26.7077 78.7516 25.7186 78.5809 24.0969C78.5297 23.6139 78.5069 23.1251 78.5069 22.642C78.4956 19.0479 78.5069 15.4423 78.5069 11.8482V11.3076H81.9663V11.9345C81.9663 15.4078 81.9549 18.8754 81.9777 22.3488C81.9777 22.8433 82.0289 23.3551 82.1143 23.8497C82.211 24.3557 82.5751 24.5397 83.0644 24.5052C83.8553 24.442 84.4015 23.8497 84.4015 23.0561V11.9977C84.3731 11.7734 84.3731 11.5664 84.3731 11.3191V11.3191ZM60.8289 11.3076H64.2655V11.9575C64.2655 15.4136 64.2541 18.8639 64.2769 22.3085C64.2769 22.803 64.3224 23.3149 64.4248 23.7979C64.5557 24.3672 64.8857 24.5512 65.449 24.4765C66.2285 24.3672 66.7007 23.8209 66.7064 23.0216V12.0207V11.3306H70.1259V26.6789H67.4688C67.3721 26.1096 67.2754 25.5231 67.1502 24.7812C66.9795 25.04 66.8828 25.1895 66.786 25.3448C65.8984 26.6617 64.6524 27.1447 63.1332 26.909C61.9156 26.7249 61.1703 25.8164 60.9427 24.327C60.8801 23.8612 60.8346 23.4011 60.8346 22.9353C60.8232 19.2032 60.8232 15.4538 60.8232 11.7217L60.8289 11.3076ZM59.065 19.508C59.0537 20.0255 59.0195 20.5431 58.9911 21.0606C58.8602 22.6133 58.7976 24.8158 57.5573 25.9486C56.7664 26.6617 55.765 26.9205 54.7295 26.955C54.2686 26.9665 53.802 26.9665 53.3412 26.9032C51.162 26.5697 50.1492 25.5978 49.7851 23.1768C49.3697 20.3821 49.3356 17.5413 49.8306 14.7465C50.3427 11.8539 52.1065 10.8303 54.8489 11.0201C57.4093 11.2041 58.553 12.9006 58.8545 15.3158C59.0195 16.7017 59.0992 18.1048 59.065 19.508V19.508ZM55.5829 18.9789C55.5829 17.9956 55.6057 17.0065 55.5715 16.0231C55.5488 15.4538 55.4748 14.8788 55.3553 14.3152C55.2188 13.6654 54.8091 13.3548 54.297 13.3664C53.7963 13.3779 53.4436 13.6884 53.2615 14.2922C53.1989 14.5165 53.1306 14.7465 53.1306 14.9708C53.1306 16.5119 53.1193 18.0588 53.1079 19.6C53.0965 21.0376 52.9144 22.5443 53.3639 23.9187C53.5005 24.3385 53.8532 24.5685 54.3141 24.5685C54.7636 24.5685 55.0595 24.3442 55.2245 23.9417C55.3553 23.6311 55.4691 23.2918 55.4691 22.9583C55.5089 21.6357 55.5829 20.3073 55.5829 18.9789ZM44.7667 16.0864C45.0682 14.597 45.3527 13.1421 45.6657 11.6814C46.0583 9.824 46.4964 7.96656 46.8833 6.10337C46.98 5.64907 47.1621 5.53981 47.5888 5.55132C48.5049 5.58582 49.438 5.56282 50.4166 5.56282C50.098 6.74744 49.7851 7.87455 49.4778 8.98441C48.5049 12.4693 47.5319 15.9656 46.5703 19.462C46.4964 19.7322 46.4622 20.0255 46.4622 20.313C46.4509 22.2222 46.4622 24.1257 46.4622 26.0349V26.6559H43.1223C43.111 26.4834 43.0882 26.3109 43.0882 26.1384C43.0882 25.0573 43.0029 23.9704 43.0996 22.9008C43.3443 20.3303 42.5363 17.9668 41.882 15.5746C41.0171 12.4118 40.1409 9.23744 39.2761 6.07462C39.2306 5.9251 39.2135 5.76409 39.168 5.58007H42.5761C43.293 9.07067 44.0156 12.5613 44.7667 16.0864ZM110.114 20.0945H104.356C104.418 21.2619 104.441 22.3718 104.56 23.4701C104.646 24.2349 105.061 24.5627 105.715 24.5685C106.398 24.58 106.796 24.2349 106.956 23.4759C107.007 23.2286 107.041 22.9813 107.064 22.7283C107.087 22.504 107.098 22.2625 107.115 21.9405C108.088 21.9922 109.038 22.0497 109.977 22.09C110.523 23.7289 109.539 25.8336 107.883 26.4834C106.58 27.001 105.243 27.001 103.912 26.6042C102.927 26.3109 102.193 25.6783 101.863 24.7065C101.556 23.7979 101.266 22.8491 101.203 21.9002C101.033 19.5597 100.97 17.1962 101.323 14.85C101.385 14.459 101.494 14.0852 101.613 13.7056C102.091 12.1415 103.132 11.1811 104.742 11.0201C105.619 10.9339 106.523 10.9684 107.388 11.1179C108.788 11.3652 109.533 12.383 109.858 13.7171C110.005 14.3439 110.114 14.988 110.136 15.6263C110.142 17.0927 110.114 18.5476 110.114 20.0945ZM106.842 18.0761C106.842 16.9202 106.853 15.8333 106.831 14.7407C106.831 14.482 106.734 14.2117 106.637 13.9644C106.444 13.4814 106.04 13.3491 105.556 13.3491C105.072 13.3491 104.765 13.5964 104.646 14.0392C104.282 15.3676 104.401 16.7247 104.412 18.0876C105.283 18.0761 106.074 18.0761 106.842 18.0761V18.0761Z" fill="white"/>
<path d="M72.7662 8.38091H69.3809V5.60913H79.4858V8.36366H76.1232V26.6563H72.7719L72.7662 8.38091Z" fill="white"/>
</svg>
