<svg width="97" height="97" viewBox="0 0 97 97" fill="none" xmlns="http://www.w3.org/2000/svg">
<circle cx="48.6016" cy="48.0691" r="48" fill="#1649FF"/>
<path d="M35.7795 42.0856C39.5561 42.0856 42.6176 39.0241 42.6176 35.2475C42.6176 31.4709 39.5561 28.4094 35.7795 28.4094C32.0029 28.4094 28.9414 31.4709 28.9414 35.2475C28.9414 39.0241 32.0029 42.0856 35.7795 42.0856Z" fill="white"/>
<path d="M61.4221 67.7285C65.1987 67.7285 68.2602 64.6669 68.2602 60.8903C68.2602 57.1138 65.1987 54.0522 61.4221 54.0522C57.6455 54.0522 54.584 57.1138 54.584 60.8903C54.584 64.6669 57.6455 67.7285 61.4221 67.7285Z" fill="white"/>
<path d="M66.4018 30.2662C65.7606 29.6252 64.8911 29.2651 63.9845 29.2651C63.0779 29.2651 62.2084 29.6252 61.5672 30.2662L30.7957 61.0377C30.4692 61.353 30.2087 61.7303 30.0295 62.1475C29.8503 62.5646 29.756 63.0132 29.7521 63.4672C29.7481 63.9212 29.8346 64.3714 30.0066 64.7916C30.1785 65.2118 30.4323 65.5935 30.7534 65.9146C31.0744 66.2356 31.4561 66.4895 31.8763 66.6614C32.2965 66.8333 32.7467 66.9198 33.2007 66.9159C33.6547 66.9119 34.1033 66.8176 34.5205 66.6384C34.9376 66.4592 35.3149 66.1987 35.6303 65.8722L66.4018 35.1007C67.0427 34.4596 67.4028 33.5901 67.4028 32.6835C67.4028 31.7768 67.0427 30.9074 66.4018 30.2662V30.2662Z" fill="white"/>
</svg>
