<svg width="622" height="348" viewBox="0 0 622 348" fill="none" xmlns="http://www.w3.org/2000/svg">
<mask id="mask0_1051:21291" style="mask-type:alpha" maskUnits="userSpaceOnUse" x="0" y="0" width="622" height="348">
<rect width="622" height="348" fill="#1649FF"/>
</mask>
<g mask="url(#mask0_1051:21291)">
<path opacity="0.1" d="M-18.4308 615.77C66.2376 797.263 362.165 839.035 641.309 708.869C920.473 578.707 1078.68 325.128 994.06 143.641C909.728 -37.1916 615.699 -79.3757 337.499 48.9872C336.431 49.48 335.364 49.9748 334.297 50.4721C55.1529 180.639 -103.06 434.24 -18.4308 615.77ZM991.077 145.013C1075.17 325.309 917.778 577.272 640.283 706.672C362.767 836.063 68.6212 794.684 -15.4404 614.376C-62.4844 513.51 -33.9538 390.207 48.9032 278.484C-28.2533 386.031 -54.0288 503.789 -8.93117 600.528C73.4213 777.174 361.448 817.819 633.054 691.168C904.665 564.492 1058.64 317.734 976.276 141.121C931.149 44.3273 824.273 -11.6358 692.183 -21.6156C831.125 -13.3265 944.013 44.0816 991.077 145.013ZM266.839 158.807C283.056 193.622 339.747 201.686 393.188 176.767C446.63 151.848 476.888 103.246 460.646 68.4326C452.152 50.1945 432.549 39.3032 408.126 36.6433C439.393 37.6264 465.005 49.972 475.439 72.3476C493.37 110.802 459.706 164.587 400.402 192.243C341.098 219.899 278.259 211.113 260.324 172.658C249.902 150.283 256.897 122.752 276.213 98.1847C262.579 118.589 258.335 140.59 266.839 158.807ZM276.354 143.593C290.323 173.513 339.038 180.448 384.911 159.057C430.843 137.639 456.847 95.851 442.902 65.9392C435.642 50.3819 419.014 41.0417 398.279 38.6513C425.873 39.3543 448.515 50.1368 457.683 69.8142C473.334 103.398 443.949 150.367 392.156 174.518C340.331 198.684 285.444 191.022 269.797 157.427C260.609 137.724 266.937 113.394 284.203 91.7728C272.651 109.224 269.089 128.01 276.354 143.593V143.593ZM285.846 128.372C297.525 153.452 338.254 159.205 376.649 141.303C415.044 123.402 436.802 88.479 425.114 63.4218C424.932 63.032 424.743 62.6469 424.547 62.2667C424.479 62.1368 424.41 62.0122 424.342 61.8844C424.209 61.6351 424.078 61.386 423.94 61.1398C423.854 60.9873 423.762 60.8387 423.673 60.688C423.548 60.47 423.424 60.2524 423.291 60.0415C423.192 59.8808 423.087 59.7245 422.985 59.5652C422.858 59.3666 422.734 59.1662 422.603 58.9712C422.493 58.8076 422.376 58.6466 422.263 58.4841C422.134 58.2986 422.006 58.1109 421.874 57.9287C421.754 57.7631 421.627 57.6021 421.504 57.4388C421.372 57.2644 421.242 57.0873 421.107 56.9155C420.971 56.7436 420.841 56.5888 420.707 56.4252C420.573 56.2616 420.44 56.0933 420.301 55.9325C420.162 55.7717 420.017 55.6079 419.872 55.4447C419.735 55.289 419.6 55.1307 419.459 54.9772C419.309 54.8126 419.153 54.6532 419 54.4917C418.861 54.3443 418.723 54.195 418.58 54.0513C418.42 53.8885 418.255 53.73 418.091 53.5699C417.949 53.4309 417.81 53.29 417.668 53.1537C417.497 52.9915 417.324 52.8358 417.151 52.6782C417.007 52.5471 416.867 52.4145 416.719 52.2849C416.539 52.1248 416.354 51.97 416.169 51.8132C416.025 51.6905 415.883 51.5656 415.737 51.4449C415.545 51.2867 415.35 51.1317 415.154 50.9794C415.009 50.8646 414.867 50.7472 414.719 50.6339C414.517 50.4786 414.311 50.3275 414.105 50.1754C413.961 50.0656 413.818 49.9561 413.67 49.8525C413.458 49.6992 413.239 49.5507 413.022 49.4011C412.877 49.3011 412.735 49.1988 412.588 49.0999C412.364 48.9494 412.135 48.8034 411.907 48.6567C411.763 48.5639 411.621 48.4692 411.476 48.3779C411.242 48.2307 411 48.0867 410.759 47.9445C410.618 47.8596 410.477 47.7711 410.332 47.6872C410.085 47.54 409.832 47.4019 409.58 47.2609C409.437 47.1811 409.301 47.1017 409.159 47.0237C408.899 46.882 408.636 46.7451 408.372 46.6071C408.234 46.5355 408.097 46.461 407.957 46.3902C407.685 46.252 407.409 46.1187 407.133 45.9844C406.997 45.9188 406.864 45.8513 406.726 45.7864C406.442 45.6518 406.154 45.5205 405.865 45.3921C405.732 45.3325 405.602 45.2713 405.47 45.2135C405.173 45.0829 404.873 44.9577 404.57 44.8317C404.441 44.7781 404.314 44.7228 404.185 44.6699C403.875 44.5438 403.561 44.422 403.246 44.3013C403.121 44.2557 402.999 44.2038 402.874 44.1567C402.551 44.0351 402.223 43.9197 401.896 43.8007C401.777 43.7573 401.658 43.7141 401.538 43.6705C401.202 43.5538 400.861 43.4419 400.52 43.3304C400.405 43.2931 400.292 43.2541 400.176 43.2178C399.827 43.1056 399.474 42.9989 399.12 42.891C399.011 42.8581 398.903 42.8244 398.793 42.7923C398.429 42.6864 398.063 42.5845 397.697 42.4861C397.592 42.4578 397.488 42.4274 397.383 42.3996C397.008 42.2996 396.628 42.2044 396.247 42.1117C396.148 42.0873 396.051 42.0619 395.952 42.0378C395.562 41.9443 395.169 41.8551 394.775 41.7687C394.683 41.7482 394.591 41.7265 394.499 41.7067C394.097 41.6178 393.69 41.5379 393.283 41.4576L393.024 41.4056C392.609 41.3256 392.189 41.2505 391.767 41.178C391.688 41.1642 391.609 41.1493 391.529 41.1357C391.1 41.0634 390.668 40.9948 390.234 40.9302C390.161 40.9191 390.088 40.9071 390.016 40.8969C389.574 40.8321 389.129 40.7715 388.682 40.7149C388.615 40.7066 388.549 40.6969 388.482 40.6888C388.437 40.6831 388.39 40.6787 388.344 40.6731C412.306 41.0805 432.018 50.3202 439.943 67.3283C453.324 96.0044 428.176 136.138 383.882 156.813C339.604 177.441 292.694 170.91 279.339 142.228C271.422 125.251 276.962 104.279 291.962 85.7016C282.648 100.106 279.855 115.543 285.846 128.372V128.372ZM295.332 113.175C304.746 133.328 337.51 138.003 368.395 123.599C399.28 109.194 416.763 81.0821 407.37 60.9391C402.624 50.7748 391.94 44.5421 378.557 42.7018C381.085 42.7196 383.554 42.855 385.964 43.1077L385.971 43.1105C386.564 43.1729 387.151 43.2421 387.735 43.3184L387.773 43.3231C390.07 43.6204 392.349 44.0411 394.6 44.5836L394.709 44.6107C395.214 44.7339 395.714 44.863 396.21 44.9982L396.351 45.0364C397.958 45.4785 399.516 45.9817 401.024 46.5462L401.05 46.5559C401.521 46.7329 401.986 46.917 402.446 47.1052L402.672 47.1994C403.074 47.3668 403.471 47.5385 403.864 47.7144L404.114 47.8266C404.525 48.0146 404.932 48.207 405.334 48.4036L405.478 48.4732C406.392 48.9257 407.28 49.4041 408.142 49.9085C408.202 49.9435 408.26 49.9802 408.321 50.0156C408.674 50.2247 409.024 50.4385 409.369 50.6568C409.471 50.7215 409.572 50.7883 409.673 50.8527C409.979 51.0492 410.28 51.2495 410.577 51.4535C410.683 51.5265 410.789 51.5977 410.894 51.671C411.201 51.8858 411.503 52.1057 411.804 52.3283C411.885 52.3876 411.967 52.445 412.046 52.5067C412.802 53.0779 413.529 53.673 414.228 54.2923C414.315 54.3683 414.395 54.4445 414.479 54.5205C414.736 54.7522 414.989 54.9873 415.238 55.2256C415.345 55.3283 415.45 55.4327 415.556 55.5369C415.781 55.7577 416.001 55.9807 416.218 56.206C416.324 56.3164 416.43 56.426 416.534 56.537C416.758 56.7759 416.975 57.0178 417.19 57.2615C417.277 57.3597 417.365 57.4563 417.451 57.5552C418.041 58.2419 418.602 58.9517 419.133 59.6844C419.213 59.7958 419.291 59.9097 419.369 60.0217C419.55 60.2783 419.729 60.5376 419.902 60.7999C419.992 60.9362 420.08 61.0748 420.169 61.2133C420.326 61.4621 420.481 61.7123 420.633 61.9639C420.718 62.1063 420.803 62.2483 420.886 62.3926C421.041 62.6617 421.191 62.934 421.337 63.2073C421.406 63.3346 421.475 63.4603 421.543 63.5891C421.753 63.9913 421.955 64.3986 422.149 64.8115C433.25 88.6176 412.385 121.925 375.599 139.095C338.851 156.231 299.905 150.798 288.804 126.991C288.611 126.575 288.428 126.159 288.257 125.741C288.202 125.606 288.151 125.472 288.097 125.338C287.982 125.049 287.87 124.759 287.763 124.469C287.705 124.312 287.652 124.156 287.598 123.999C287.502 123.721 287.409 123.442 287.321 123.162C287.272 123.005 287.222 122.848 287.176 122.692C287.086 122.39 287.003 122.088 286.922 121.784C286.887 121.651 286.849 121.519 286.816 121.385C286.595 120.509 286.412 119.623 286.265 118.728C286.245 118.6 286.228 118.47 286.208 118.342C286.159 118.02 286.115 117.697 286.074 117.373C286.056 117.222 286.04 117.07 286.023 116.918C285.99 116.607 285.961 116.295 285.935 115.982C285.924 115.834 285.912 115.686 285.902 115.537C285.88 115.195 285.864 114.851 285.85 114.506C285.847 114.39 285.84 114.279 285.836 114.164C285.812 113.231 285.823 112.292 285.871 111.347C285.876 111.247 285.886 111.148 285.889 111.048C285.91 110.675 285.938 110.301 285.971 109.928C285.982 109.8 285.995 109.673 286.007 109.546C286.042 109.187 286.083 108.828 286.127 108.469C286.143 108.349 286.157 108.228 286.174 108.107C286.228 107.705 286.288 107.302 286.355 106.898C286.367 106.827 286.377 106.757 286.389 106.685C286.555 105.701 286.76 104.714 287.001 103.724C287.014 103.671 287.027 103.622 287.04 103.572C287.147 103.137 287.262 102.701 287.383 102.264C287.408 102.176 287.433 102.088 287.458 102C287.575 101.586 287.699 101.171 287.829 100.756C287.854 100.677 287.878 100.598 287.903 100.519C288.053 100.049 288.21 99.5792 288.376 99.1085C288.381 99.0953 288.385 99.0831 288.39 99.0699C288.924 97.5541 289.539 96.0388 290.234 94.5237C290.255 94.4788 290.276 94.4348 290.296 94.3904C290.51 93.925 290.732 93.4601 290.961 92.9955L291.013 92.8891C292.044 90.8174 293.186 88.8024 294.433 86.8528C294.437 86.8411 294.447 86.8309 294.454 86.8202C294.769 86.3254 295.093 85.8319 295.425 85.3397C295.427 85.3346 295.432 85.3299 295.435 85.3254C296.787 83.3228 298.269 81.346 299.881 79.3951C292.692 90.8319 290.598 103.021 295.332 113.175L295.332 113.175ZM304.855 97.9392C311.964 113.221 336.779 116.755 360.126 105.865C383.498 94.9879 396.719 73.6983 389.587 58.4182C386.108 50.9511 378.394 46.2834 368.689 44.7342C385.25 44.5843 398.995 50.6976 404.413 62.3062C413.233 81.2417 396.605 107.714 367.357 121.37C338.087 135.021 307.118 130.714 298.293 111.792C292.866 100.156 297.036 85.6788 307.836 73.0749C302.753 81.5236 301.357 90.4542 304.855 97.9392V97.9392ZM314.341 82.7396C319.18 93.1158 336.032 95.5518 351.864 88.1862C367.734 80.7862 376.676 66.3145 371.841 55.9266C369.61 51.1483 364.844 48.0476 358.809 46.8098C371.687 46.3519 382.47 50.8938 386.621 59.8065C393.172 73.8362 380.819 93.5012 359.089 103.635C337.38 113.779 314.342 110.588 307.817 96.5542C303.648 87.6367 307.109 76.4418 315.748 66.8675C312.803 72.2973 312.107 77.9483 314.342 82.7405L314.341 82.7396ZM323.842 67.4963C326.426 72.9992 335.27 74.3154 343.603 70.4301C351.936 66.5448 356.642 58.9092 354.084 53.4027C353.096 51.2829 351.176 49.7894 348.719 48.9697C358.006 48.0916 365.965 51.0398 368.881 57.3065C373.149 66.4633 365.055 79.3042 350.833 85.9348C336.611 92.5654 321.571 90.5168 317.301 81.3592C314.387 75.0809 317.243 67.0888 323.887 60.5418C322.934 62.9529 322.849 65.3825 323.843 67.4974L323.842 67.4963ZM257.366 174.035C275.882 213.742 340.508 222.92 401.464 194.477C462.387 166.068 496.918 110.661 478.403 70.9536C468.605 49.9533 445.9 37.4868 417.663 34.6094C452.759 35.782 481.49 49.6785 493.216 74.8118C513.444 118.17 475.514 178.803 408.672 209.972C341.853 241.149 271.012 231.227 250.788 187.857C239.075 162.713 246.903 131.757 268.577 104.111C252.619 127.602 247.569 153.022 257.367 174.036L257.366 174.035ZM247.828 189.239C268.622 233.831 341.251 244.124 409.71 212.202C478.169 180.279 516.969 118.023 496.176 73.4311C485.17 49.8191 459.606 35.8205 427.82 32.6225C466.445 34.1393 498.004 49.5824 510.946 77.3379C533.452 125.579 491.275 193.006 416.926 227.675C342.578 262.344 263.805 251.309 241.321 203.089C228.347 175.248 236.883 141.026 260.688 110.396C242.569 136.872 236.786 165.555 247.828 189.239L247.828 189.239ZM238.367 204.448C261.405 253.936 341.99 265.349 417.979 229.935C493.952 194.487 536.982 125.422 513.933 75.9555C501.628 49.5861 472.995 34.0218 437.434 30.5974C479.873 32.3257 514.534 49.3358 528.761 79.8453C553.539 132.982 507.081 207.224 425.186 245.432C343.329 283.601 256.61 271.425 231.832 218.287C217.618 187.822 226.827 150.392 252.714 116.805C232.524 146.222 226.069 178.114 238.369 204.448L238.367 204.448ZM228.864 219.691C254.221 274.027 342.752 286.583 426.234 247.637C509.736 208.696 557.055 132.79 531.726 78.4536C518.168 49.377 486.518 32.2602 447.233 28.5868C493.353 30.5737 530.999 49.1309 546.48 82.3393C573.537 140.349 522.828 221.469 433.464 263.142C344.077 304.804 249.374 291.519 222.31 233.523C206.794 200.228 216.859 159.344 245.136 122.667C222.579 155.185 215.283 190.533 228.866 219.691L228.864 219.691ZM219.358 234.88C246.973 294.144 343.511 307.819 434.494 265.391C525.506 222.95 577.064 140.201 549.44 80.96C534.6 49.1345 499.878 30.462 456.809 26.5717C459.126 26.6734 461.422 26.814 463.698 26.9934L463.931 27.0121C464.59 27.0649 465.247 27.1207 465.903 27.1795L466.272 27.2133C466.891 27.2703 467.508 27.3302 468.124 27.393L468.511 27.4335C469.141 27.4986 469.769 27.5672 470.396 27.639L470.695 27.6724C471.409 27.7549 472.121 27.8415 472.83 27.9322L472.844 27.9337C475.055 28.2153 477.241 28.5355 479.404 28.8942L479.665 28.9382C480.279 29.0409 480.89 29.1461 481.498 29.2537L481.885 29.3231C482.461 29.4274 483.033 29.5338 483.603 29.6424L484.007 29.7201C484.59 29.8329 485.17 29.9483 485.748 30.0664L486.077 30.1333C486.733 30.2686 487.387 30.4076 488.037 30.5505L488.112 30.5664C490.193 31.0241 492.247 31.5189 494.275 32.0508L494.59 32.1343C495.142 32.2804 495.692 32.4291 496.24 32.5807L496.665 32.6994C497.183 32.844 497.698 32.9912 498.212 33.1411L498.652 33.2695C499.174 33.4236 499.695 33.5804 500.213 33.7396L500.589 33.8544C501.174 34.036 501.755 34.2202 502.332 34.4068L502.492 34.4574C503.797 34.8815 505.089 35.3223 506.368 35.7796C506.399 35.7909 506.43 35.8024 506.462 35.8138C507.044 36.0228 507.624 36.2349 508.201 36.4504L508.578 36.5928C509.062 36.7758 509.544 36.9608 510.026 37.1478L510.49 37.3306C510.944 37.5101 511.397 37.6915 511.848 37.8749L512.324 38.0693C512.781 38.2584 513.236 38.4494 513.69 38.6423C513.83 38.7022 513.971 38.7614 514.112 38.8218C514.617 39.0392 515.12 39.2592 515.62 39.4822C515.702 39.5189 515.785 39.5549 515.867 39.5919C517.059 40.1252 518.236 40.6745 519.398 41.2399C519.467 41.2739 519.536 41.3083 519.605 41.3427C520.099 41.5836 520.59 41.8277 521.078 42.0745C521.22 42.1464 521.361 42.2197 521.503 42.2926C521.919 42.5048 522.332 42.7192 522.744 42.9357C522.908 43.0222 523.072 43.1092 523.235 43.1967C523.627 43.4051 524.016 43.6151 524.403 43.8268L524.901 44.1007C525.292 44.3175 525.682 44.536 526.07 44.7561L526.525 45.0153C526.953 45.2619 527.378 45.5107 527.8 45.7618C527.905 45.8241 528.011 45.8855 528.116 45.948C529.186 46.5877 530.239 47.2422 531.274 47.9115C531.373 47.9748 531.469 48.0398 531.567 48.1031C531.976 48.3688 532.382 48.6368 532.786 48.9072L533.238 49.2134C533.587 49.4507 533.935 49.6894 534.281 49.9295C534.447 50.0473 534.613 50.1617 534.778 50.2783C535.108 50.511 535.436 50.7454 535.763 50.9816C535.93 51.1022 536.096 51.2229 536.263 51.3441C536.592 51.5859 536.92 51.829 537.245 52.0735C537.4 52.1872 537.555 52.3045 537.708 52.4217C538.063 52.6917 538.416 52.9642 538.766 53.2393C538.884 53.3308 539.002 53.4217 539.12 53.5139C540.059 54.2559 540.982 55.0132 541.887 55.7858C541.999 55.8839 542.11 55.9817 542.223 56.0759C542.557 56.3624 542.888 56.6507 543.217 56.941C543.366 57.073 543.514 57.2073 543.663 57.3395C543.952 57.598 544.24 57.8588 544.527 58.1221C544.686 58.2677 544.844 58.4144 545 58.5608C545.274 58.8162 545.546 59.073 545.817 59.3312C545.974 59.4817 546.131 59.6325 546.288 59.7837C546.56 60.0477 546.83 60.3134 547.098 60.5806C547.246 60.7263 547.395 60.8723 547.539 61.0186C547.83 61.3114 548.118 61.6065 548.403 61.9039C548.521 62.0262 548.64 62.1466 548.758 62.2692C549.562 63.1126 550.349 63.9696 551.117 64.8403C551.23 64.9681 551.34 65.0973 551.452 65.2254C551.72 65.5334 551.986 65.8424 552.251 66.1525C552.388 66.3145 552.523 66.4781 552.659 66.6402C552.895 66.9226 553.128 67.2057 553.36 67.4896C553.502 67.6648 553.644 67.8405 553.784 68.017C554.007 68.2954 554.228 68.5754 554.447 68.8568C554.587 69.0359 554.726 69.2155 554.864 69.3954C555.084 69.6832 555.303 69.9726 555.52 70.2634C555.649 70.4377 555.78 70.6104 555.908 70.786C556.142 71.1037 556.372 71.4242 556.6 71.7448C556.707 71.894 556.815 72.042 556.92 72.1916C557.583 73.1355 558.228 74.0931 558.852 75.0643C558.952 75.2184 559.049 75.3755 559.147 75.5306C559.358 75.8638 559.567 76.1964 559.774 76.5325C559.889 76.7204 560.002 76.9099 560.116 77.0998C560.302 77.4075 560.485 77.7165 560.668 78.0265C560.785 78.2275 560.901 78.4288 561.017 78.6308C561.192 78.9359 561.365 79.2421 561.537 79.5495C561.651 79.7533 561.764 79.9579 561.876 80.1633C562.049 80.4785 562.219 80.7953 562.386 81.1133C562.491 81.3108 562.597 81.5085 562.699 81.7067C562.88 82.0548 563.056 82.4057 563.233 82.7574C563.318 82.9274 563.405 83.096 563.489 83.2667C563.746 83.7891 563.999 84.315 564.246 84.8443C593.575 147.759 538.613 235.682 441.721 280.848C344.838 326.043 242.161 311.629 212.828 248.726C212.582 248.195 212.341 247.663 212.106 247.13C212.029 246.956 211.957 246.781 211.881 246.607C211.725 246.246 211.569 245.884 211.42 245.52C211.334 245.313 211.25 245.105 211.166 244.898C211.031 244.565 210.897 244.231 210.765 243.896C210.68 243.678 210.597 243.461 210.514 243.242C210.388 242.913 210.265 242.583 210.144 242.252C210.064 242.034 209.984 241.816 209.906 241.597C209.784 241.257 209.665 240.917 209.549 240.576C209.478 240.368 209.405 240.16 209.336 239.951C209.211 239.575 209.089 239.198 208.969 238.82C208.914 238.647 208.857 238.474 208.804 238.3C208.632 237.748 208.466 237.194 208.305 236.639C208.302 236.628 208.3 236.617 208.297 236.605C208.14 236.062 207.99 235.517 207.845 234.972C207.798 234.794 207.754 234.615 207.708 234.438C207.609 234.057 207.512 233.675 207.418 233.292C207.367 233.082 207.318 232.871 207.267 232.662C207.184 232.308 207.102 231.954 207.022 231.599C206.972 231.378 206.924 231.157 206.878 230.936C206.803 230.586 206.73 230.236 206.659 229.884C206.615 229.664 206.572 229.445 206.529 229.225C206.458 228.861 206.391 228.497 206.327 228.133C206.29 227.927 206.252 227.721 206.216 227.515C206.146 227.106 206.08 226.697 206.016 226.286C205.991 226.125 205.964 225.964 205.939 225.803C205.766 224.653 205.615 223.498 205.486 222.338C205.467 222.169 205.452 222 205.434 221.831C205.392 221.421 205.351 221.01 205.312 220.599C205.294 220.394 205.276 220.19 205.26 219.985C205.226 219.605 205.197 219.225 205.17 218.845C205.155 218.63 205.14 218.415 205.127 218.201C205.103 217.824 205.081 217.446 205.061 217.068C205.05 216.857 205.04 216.645 205.03 216.433C205.012 216.039 204.997 215.645 204.985 215.25C204.979 215.057 204.972 214.864 204.967 214.668C204.955 214.215 204.948 213.761 204.945 213.307C204.943 213.174 204.939 213.041 204.938 212.907C204.93 211.716 204.944 210.52 204.98 209.319C204.984 209.171 204.991 209.023 204.996 208.874C205.012 208.428 205.03 207.98 205.051 207.532C205.062 207.344 205.073 207.156 205.08 206.967C205.103 206.554 205.128 206.142 205.155 205.73C205.168 205.531 205.182 205.331 205.196 205.132C205.226 204.721 205.258 204.311 205.293 203.903C205.309 203.708 205.326 203.512 205.343 203.32C205.382 202.889 205.425 202.457 205.47 202.025C205.487 201.856 205.503 201.687 205.522 201.518C205.577 201.009 205.636 200.498 205.699 199.988C205.709 199.897 205.719 199.808 205.731 199.718C205.885 198.489 206.061 197.257 206.26 196.021C206.279 195.904 206.299 195.785 206.318 195.668C206.398 195.178 206.482 194.689 206.569 194.2C206.598 194.035 206.631 193.871 206.658 193.705C206.74 193.258 206.824 192.81 206.912 192.361C206.947 192.182 206.982 192.005 207.017 191.83C207.106 191.385 207.198 190.939 207.293 190.493C207.329 190.323 207.365 190.154 207.402 189.984C207.504 189.511 207.61 189.037 207.719 188.564C207.751 188.427 207.781 188.291 207.811 188.153C207.944 187.578 208.083 187.003 208.227 186.429C208.236 186.395 208.244 186.362 208.252 186.328C208.567 185.067 208.905 183.805 209.265 182.542C209.288 182.459 209.313 182.376 209.336 182.294C209.489 181.762 209.644 181.229 209.802 180.697C209.843 180.561 209.886 180.424 209.927 180.288C210.074 179.805 210.225 179.321 210.379 178.836C210.426 178.686 210.474 178.535 210.523 178.384C210.677 177.904 210.835 177.424 210.995 176.942C211.043 176.802 211.089 176.661 211.137 176.52C211.311 176.004 211.489 175.489 211.67 174.974C211.707 174.873 211.74 174.774 211.775 174.674C212.447 172.778 213.166 170.883 213.932 168.987C213.949 168.94 213.971 168.893 213.99 168.845C214.222 168.276 214.457 167.706 214.696 167.136C214.742 167.028 214.789 166.919 214.834 166.811C215.053 166.296 215.274 165.782 215.499 165.267C215.552 165.143 215.607 165.019 215.661 164.895C215.886 164.384 216.114 163.873 216.347 163.363C216.397 163.251 216.448 163.139 216.499 163.027C216.751 162.475 217.007 161.923 217.268 161.371C217.298 161.307 217.328 161.242 217.358 161.178C218.26 159.27 219.208 157.366 220.203 155.465C220.21 155.444 220.223 155.426 220.232 155.408C220.545 154.811 220.862 154.215 221.183 153.62C221.228 153.535 221.274 153.451 221.321 153.367C221.611 152.83 221.905 152.293 222.204 151.757C222.259 151.656 222.316 151.555 222.372 151.454C222.669 150.921 222.971 150.388 223.276 149.856C223.326 149.768 223.378 149.679 223.429 149.592C223.761 149.014 224.098 148.437 224.438 147.86C224.459 147.825 224.479 147.79 224.5 147.755C225.624 145.855 226.794 143.96 228.009 142.071C228.009 142.071 228.01 142.067 228.011 142.065C228.401 141.459 228.796 140.853 229.195 140.248C229.241 140.179 229.288 140.11 229.332 140.041C229.693 139.497 230.057 138.952 230.425 138.409L230.601 138.149C230.968 137.61 231.338 137.07 231.712 136.531L231.866 136.311C232.274 135.724 232.687 135.139 233.103 134.554L233.14 134.501C234.477 132.629 235.857 130.764 237.281 128.909C212.543 164.423 204.507 203.05 219.359 234.881L219.358 234.88ZM209.864 250.101C239.766 314.226 344.227 329.036 442.755 283.072C541.302 237.137 597.103 147.595 567.204 83.4602C551.137 48.999 513.526 28.7795 466.878 24.5786C520.389 27.0898 564.019 48.7555 582.026 87.3706C613.635 155.159 554.399 249.887 449.986 298.575C345.573 347.262 234.934 331.753 203.323 263.964C185.292 225.294 196.798 177.863 229.379 135.208C202.511 173.697 193.771 215.584 209.866 250.1L209.864 250.101ZM200.363 265.346C232.527 334.323 344.99 350.27 451.048 300.811C557.077 251.37 617.151 154.968 584.985 85.9902C567.641 48.7942 527 27.0183 476.615 22.5742C533.853 25.3287 580.507 48.5469 599.769 89.8637C633.656 162.535 570.183 264.097 458.232 316.3C346.322 368.467 227.703 351.826 193.839 279.165C174.584 237.871 186.747 187.262 221.355 141.679C192.439 183.102 183.036 228.185 200.364 265.346L200.363 265.346ZM190.849 280.559C225.311 354.427 345.742 371.451 459.28 318.505C572.839 265.569 637.207 162.381 602.73 88.4838C584.116 48.543 540.4 25.2129 486.226 20.5531C547.258 23.5199 597.003 48.2959 617.558 92.3731C653.724 169.914 585.952 278.35 466.532 334.018C347.073 389.723 220.487 371.929 184.337 294.408C163.805 250.377 176.743 196.403 213.609 147.778C182.439 192.232 172.245 240.662 190.851 280.56L190.849 280.559ZM181.362 295.756C218.087 374.553 346.497 392.705 467.563 336.269C588.647 279.787 657.249 169.767 620.518 90.9906C600.66 48.3959 554.028 23.5169 496.255 18.5578C560.874 21.8279 613.502 48.1403 635.281 94.8456C673.745 177.289 601.73 292.505 474.786 351.719C347.819 410.926 213.256 392.002 174.807 309.588C153.003 262.807 166.745 205.481 205.9 153.819C172.457 201.316 161.478 253.109 181.364 295.756L181.362 295.756ZM171.855 310.948C210.872 394.659 347.232 413.932 475.818 353.971C604.404 294.01 677.29 177.163 638.269 93.4604C617.12 48.1134 567.354 21.6806 505.73 16.5315C574.216 19.9803 629.996 47.8538 653.079 97.3305C693.789 184.676 617.551 306.754 483.048 369.476C348.574 432.183 206.032 412.131 165.3 324.781C142.261 275.372 156.701 214.817 197.955 160.192C162.407 210.65 150.734 265.67 171.858 310.948L171.855 310.948ZM162.34 326.16C203.656 414.764 347.971 435.158 484.095 371.681C620.179 308.243 697.333 184.546 656.041 95.9506C633.701 48.0532 581.191 20.0948 516.144 14.5679C588.046 18.4181 646.563 47.8351 670.829 99.875C713.828 192.068 633.294 320.945 491.303 387.174C349.299 453.375 198.819 432.232 155.823 340.028C131.538 287.97 146.653 224.197 189.981 166.612C152.361 220.014 140.004 278.235 162.341 326.16L162.34 326.16ZM152.852 341.434C196.427 434.835 348.703 456.406 492.343 389.407C635.973 322.43 717.36 191.91 673.794 98.4865C650.177 47.8152 594.584 18.288 525.736 12.5484C601.43 16.604 663.037 47.5716 688.598 102.365C733.865 199.464 649.069 335.179 499.571 404.911C350.048 474.635 191.577 452.332 146.313 355.221C120.734 300.39 136.663 233.219 182.316 172.579C142.366 229.059 129.2 290.708 152.854 341.434L152.852 341.434ZM143.346 356.624C189.178 454.954 349.494 477.624 500.61 407.139C651.748 336.66 737.396 199.304 691.559 100.984C666.668 47.5939 608.055 16.5183 535.492 10.5359C614.914 14.8332 679.539 47.3561 706.359 104.876C753.908 206.846 664.853 349.387 507.834 422.589C350.798 495.837 184.363 472.434 136.814 370.464C109.976 312.912 126.637 242.453 174.459 178.821C132.341 238.285 118.438 303.208 143.347 356.624L143.346 356.624ZM133.846 371.867C181.979 475.089 350.217 498.821 508.865 424.842C667.533 350.869 757.458 206.707 709.327 103.486C683.184 47.4245 621.607 14.7987 545.383 8.54079C628.473 13.1154 696.066 47.1892 724.133 107.368C773.95 214.243 680.64 363.598 516.081 440.315C351.543 517.042 177.148 492.54 127.307 385.656C99.2037 325.409 116.631 251.627 166.681 184.974C122.332 247.469 107.667 315.727 133.847 371.867L133.846 371.867ZM124.336 387.059C174.746 495.164 350.964 520.023 517.12 442.543C683.275 365.063 777.475 214.094 727.065 105.989C699.645 47.1649 634.959 12.9775 554.911 6.51827C641.806 11.2895 712.494 46.9206 741.844 109.873C793.962 221.641 696.404 377.798 524.349 458.048C352.28 538.267 169.939 512.622 117.821 400.853C88.4426 337.85 106.645 260.711 158.956 191.028C112.337 256.555 96.8783 328.17 124.337 387.059L124.336 387.059ZM114.861 402.234C167.545 515.22 351.717 541.277 525.381 460.297C699.052 379.291 797.497 221.467 744.807 108.491C716.122 46.9776 648.468 11.2462 564.758 4.52143C655.346 9.5574 729.027 46.7422 759.633 112.38C814.029 229.032 712.158 392.02 532.605 475.748C353.044 559.497 162.715 532.748 108.321 416.096C77.7078 350.424 96.6115 270.05 151.021 197.403C102.317 265.881 86.1728 340.712 114.861 402.236L114.861 402.234ZM105.361 417.477C160.315 535.368 352.441 562.473 533.644 477.976C714.846 393.48 817.558 228.872 762.594 111C732.687 46.8516 662.157 9.57561 574.874 2.53543C669.011 7.89801 745.555 46.623 777.395 114.893C834.065 236.425 727.934 406.249 540.873 493.481C353.802 580.732 155.506 552.829 98.8254 431.317C66.9289 362.935 86.5839 279.231 143.218 203.563C92.2929 275.061 75.3959 353.22 105.361 417.479L105.361 417.477ZM95.8667 432.698C153.107 555.451 353.215 583.736 541.912 495.709C730.642 407.719 837.591 236.276 780.35 113.522C749.112 46.5211 675.319 7.6611 584.049 0.486527C682.185 5.96587 762 46.269 795.179 117.411C854.109 243.808 743.749 420.445 549.119 511.203C354.541 601.954 148.257 572.943 89.3337 446.536C56.1606 375.395 76.6027 288.336 135.502 209.633C82.3066 284.173 64.6204 365.692 95.8667 432.699L95.8667 432.698ZM86.3667 447.942C145.862 575.572 353.94 604.933 550.167 513.412C746.416 421.898 857.662 243.659 798.144 116.021C765.642 46.3301 688.874 5.92991 593.93 -1.50771C695.727 4.23912 778.507 46.0809 812.927 119.893C874.149 251.204 759.526 434.678 557.417 528.927C355.307 623.176 141.043 593.055 79.818 461.754C45.4373 388.024 66.513 297.829 127.39 216.224C72.2138 293.662 53.9045 378.328 86.3662 447.943L86.3667 447.942ZM76.8601 463.131C138.654 595.654 354.693 626.189 558.426 531.165C762.184 436.152 877.662 251.027 815.883 118.523C782.144 46.1682 702.425 4.21402 603.83 -3.50396C709.291 2.51949 795.036 45.9136 830.692 122.394C894.193 258.59 775.311 448.885 565.665 546.645C356.04 644.419 133.827 613.158 70.3047 476.965C34.6052 400.383 56.5737 306.674 119.927 221.937C62.2868 302.512 43.0874 390.687 76.86 463.133L76.8601 463.131ZM67.3411 478.347C131.429 615.782 355.439 647.394 566.704 548.877C777.968 450.359 897.743 258.439 833.661 121.003C798.618 45.8414 715.686 2.32891 613.162 -5.54103C722.536 0.63632 811.477 45.6019 848.458 124.907C914.24 265.963 791.1 463.098 573.935 564.383C356.758 665.639 126.6 633.234 60.8113 492.189C23.8803 412.99 46.5216 316.079 111.93 228.394C52.2248 311.908 32.3382 403.281 67.3414 478.346L67.3411 478.347ZM57.8495 493.568C124.221 635.864 356.208 668.604 574.981 566.587C793.731 464.562 917.761 265.824 851.415 123.527C815.161 45.7858 729.472 0.740678 623.52 -7.50125C736.336 -0.947761 828.033 45.5403 866.198 127.4C934.255 273.35 806.86 477.297 582.188 582.084C357.527 686.849 119.383 653.336 51.3258 507.386C13.1918 425.608 36.4475 325.59 103.797 235.018C42.143 321.413 21.6428 415.898 57.8499 493.567L57.8495 493.568ZM48.3637 508.765C116.991 655.937 356.939 689.852 583.227 584.312C809.539 478.781 937.804 273.209 869.158 126.02C831.637 45.5528 742.903 -1.04597 633.188 -9.51373C749.769 -2.73127 844.529 45.3209 883.978 129.93C954.317 280.754 822.627 491.552 590.465 599.794C358.262 708.073 112.166 673.441 41.8457 522.637C2.37511 437.99 26.4976 334.47 96.2879 240.781C32.1974 330.299 10.8297 428.27 48.364 508.764L48.3637 508.765ZM38.8629 524.011C109.789 676.073 357.663 711.048 591.496 602.045C825.322 492.99 957.867 280.61 886.937 128.549C848.104 45.2602 756.165 -2.91594 642.527 -11.5478C763.015 -4.61126 860.972 45.0062 901.743 132.43C974.338 288.125 838.412 505.762 598.703 617.541C359.037 729.336 104.942 693.568 32.33 537.851C-8.49247 450.305 16.5795 343.205 88.9329 246.345C22.2855 339.05 -0.0253348 440.614 38.8626 524.01L38.8629 524.011ZM29.3713 539.232C102.549 696.169 358.437 732.312 599.765 619.776C841.094 507.24 977.891 287.976 904.711 131.038C864.634 45.1039 769.796 -4.61374 652.57 -13.5466C776.656 -6.30948 877.51 44.8485 919.515 134.919C994.403 295.517 854.199 519.97 606.981 635.25C359.785 750.54 97.7037 713.661 22.8248 553.039C-19.2136 462.887 6.51869 352.616 80.9094 252.827C12.2235 348.456 -10.7477 453.195 29.3715 539.231L29.3713 539.232ZM19.8537 554.443C95.3135 716.266 359.176 753.538 608.011 637.503C856.877 521.454 997.927 295.373 922.478 133.531C881.21 45.0384 783.625 -6.20495 662.966 -15.5081C790.486 -7.88564 894.08 44.8065 937.257 137.413C1014.44 302.917 870.006 534.19 615.248 652.987C360.514 771.793 90.5093 733.778 13.3204 568.286C-29.7986 475.815 -3.71827 362.79 72.1327 260.33C1.97749 358.606 -21.3438 466.092 19.8541 554.442L19.8537 554.443ZM10.3619 569.664C88.0895 736.393 359.935 774.772 616.287 655.214C872.64 535.657 1017.97 302.757 940.222 136.02C897.618 44.6653 796.715 -8.15657 672.015 -17.5647C803.57 -9.85023 910.49 44.4196 955.037 139.944C1034.48 310.312 885.745 548.381 623.503 670.688C361.278 792.948 83.3017 753.858 3.86007 583.493C-40.6135 488.141 -13.6154 371.562 64.7471 265.946C-7.93181 367.391 -32.1804 478.432 10.3623 569.663L10.3619 569.664ZM0.897992 584.872C80.9114 756.46 360.681 795.974 624.543 672.916C888.447 549.871 1037.99 310.132 957.997 138.563C913.579 43.3171 807.623 -11.2403 677.008 -19.9014C814.716 -13.0445 926.913 42.981 973.315 142.504C1055.11 317.895 902.031 563.024 632.015 688.937C362.021 814.857 75.8224 774.55 -5.94823 599.154C-52.4772 499.39 -23.0265 377.076 60.7025 266.967C-17.0736 372.801 -43.6301 489.378 0.898353 584.871L0.897992 584.872ZM335.972 52.4174C342.491 49.6319 349.189 50.6572 351.119 54.7944C353.112 59.0701 349.276 65.0844 342.556 68.2251C335.873 71.3437 328.817 70.3976 326.823 66.1249C324.896 61.9917 328.382 56.2101 334.687 53.0146C334.903 52.9102 335.115 52.8024 335.334 52.7009C335.553 52.5994 335.759 52.5114 335.972 52.4169L335.972 52.4174Z" fill="white"/>
</g>
</svg>
