<svg width="128" height="32" viewBox="0 0 128 32" fill="none" xmlns="http://www.w3.org/2000/svg">
<path d="M41.3312 12.5135C41.3312 10.2312 39.0984 7.80718 35.2344 7.80718C30.8955 7.80718 26.1289 10.971 25.4005 17.2828C24.6562 23.6576 28.6468 26.4909 32.6691 26.4909C36.6913 26.4909 38.7975 24.9326 40.9511 22.8549C39.0984 20.5411 36.7072 21.6114 36.2479 21.8475C35.7412 22.0994 35.0919 22.4456 33.7617 22.4456C32.2098 22.4456 30.6263 21.7531 30.6263 18.8726C40.5711 17.8967 41.3312 14.7959 41.3312 12.5135ZM36.4063 12.8913C36.3429 13.5996 36.0579 14.8116 31.0221 15.4884C32.0831 11.7423 34.1101 11.4589 35.0444 11.4589C35.9154 11.4589 36.4696 12.1358 36.4063 12.8913ZM19.5571 13.5052C19.5571 13.5052 17.4193 20.179 17.2451 20.73C17.1817 20.1633 15.614 8.18495 15.614 8.18495C11.9718 8.18495 10.024 10.7664 8.99468 13.4894C8.99468 13.4894 6.39762 20.179 6.17593 20.7457C6.16009 20.2263 5.78003 13.5681 5.78003 13.5681C5.55833 10.2312 2.48621 8.20069 0 8.20069L3.00878 26.3492C6.82519 26.3335 8.88383 23.7678 9.96066 21.0448C9.96066 21.0448 12.2568 15.1422 12.3519 14.8746C12.3677 15.1264 13.9988 26.3492 13.9988 26.3492C17.831 26.3492 19.8896 23.941 20.9981 21.3123L26.3664 8.20069C22.5817 8.20069 20.5864 10.7664 19.5571 13.5052ZM55.3933 7.7757C53.0338 7.7757 51.2285 9.05066 49.7083 10.9238V10.908L51.0701 0C47.9347 0 45.3851 2.70733 44.8942 6.73684L42.5189 26.2076C44.3241 26.2076 46.2403 25.6881 47.2696 24.366C48.1881 25.5465 49.5658 26.4909 51.6086 26.4909C56.8977 26.4909 60.5241 20.3837 60.5241 14.6542C60.4924 9.42843 57.9428 7.7757 55.3933 7.7757ZM54.9024 17.1412C54.3481 20.3364 52.5587 22.5086 50.8326 22.5086C49.0907 22.5086 48.3464 21.7373 48.3464 21.7373C48.679 18.9356 48.8848 17.2199 49.5183 15.7403C50.1517 14.2607 51.6561 11.8997 53.2238 11.8997C54.7599 11.8997 55.4566 13.9302 54.9024 17.1412ZM73.731 8.20069H70.0413L70.0572 8.0118C70.3105 5.61928 70.8806 4.36006 72.7651 4.15544C74.0478 4.02951 74.6178 3.36842 74.7604 2.64437C74.8712 2.07772 75.2196 0.110182 75.2196 0.110182C67.8085 0.0629611 65.4806 3.2425 64.8789 8.09051L64.8631 8.20069H64.7839C63.5804 8.20069 62.2502 9.55435 62.0285 11.27L61.9493 11.8997H64.4196L62.3452 28.9306L61.7117 31.9843C61.7909 31.9843 61.8859 32 61.9651 32C65.4331 31.8741 67.6501 29.151 68.141 25.2002L69.7563 11.8997H70.9123C72.0525 11.8997 73.3827 10.7664 73.6202 8.87752L73.731 8.20069ZM92.9239 7.88588C88.6641 7.88588 84.6418 11.0025 83.4067 15.8977C82.1715 20.7929 84.0401 26.5853 90.311 26.5853C96.5661 26.5853 100.177 20.5568 100.177 15.5357C100.177 10.546 96.772 7.88588 92.9239 7.88588ZM94.65 16.9838C94.4283 19.2031 93.4465 22.5716 90.7544 22.5716C88.0465 22.5716 88.4266 18.6365 88.6958 16.7634C88.9808 14.7644 90.1052 11.9154 92.528 11.9154C94.6975 11.9154 94.9034 14.4811 94.65 16.9838ZM121.222 13.5052C121.222 13.5052 119.085 20.179 118.91 20.73C118.847 20.1633 117.279 8.18495 117.279 8.18495C113.637 8.18495 111.689 10.7664 110.66 13.4894C110.66 13.4894 108.063 20.179 107.841 20.7457C107.825 20.2263 107.445 13.5681 107.445 13.5681C107.224 10.2312 104.151 8.20069 101.665 8.20069L104.658 26.3492C108.475 26.3335 110.533 23.7678 111.61 21.0448C111.61 21.0448 113.906 15.1422 113.985 14.8746C114.017 15.1264 115.632 26.3492 115.632 26.3492C119.465 26.3492 121.523 23.941 122.632 21.3123L128 8.20069C124.231 8.20069 122.236 10.7664 121.222 13.5052ZM77.2149 0.110182L74.1111 24.9956L73.4777 28.0649C73.5569 28.0649 73.6519 28.0807 73.731 28.0807C77.0724 28.0334 79.4477 25.1215 79.8911 21.454L81.6806 7.17757C82.219 2.81751 79.6061 0.110182 77.2149 0.110182Z" fill="#A0A9BD"/>
</svg>
