<svg width="88" height="88" viewBox="0 0 88 88" fill="none" xmlns="http://www.w3.org/2000/svg">
<g clip-path="url(#clip0_13_241)">
<path d="M44 88C68.3005 88 88 68.3005 88 44C88 19.6995 68.3005 0 44 0C19.6995 0 0 19.6995 0 44C0 68.3005 19.6995 88 44 88Z" fill="#29FCEF"/>
<path fill-rule="evenodd" clip-rule="evenodd" d="M25.9492 33.1684C25.9492 30.1774 28.3739 27.7527 31.365 27.7527H56.6384C59.6295 27.7527 62.0542 30.1774 62.0542 33.1684V51.2209C62.0542 54.2119 59.6295 56.6366 56.6384 56.6366H37.4343C37.012 56.6366 36.603 56.7847 36.2786 57.0551L31.8711 60.728C29.5195 62.6877 25.9492 61.0154 25.9492 57.9543V33.1684ZM34.9755 38.5842C34.9755 37.5872 35.7837 36.7789 36.7807 36.7789H51.2227C52.2197 36.7789 53.0279 37.5872 53.0279 38.5842C53.0279 39.5812 52.2197 40.3894 51.2227 40.3894H36.7807C35.7837 40.3894 34.9755 39.5812 34.9755 38.5842ZM36.7807 43.9999C35.7837 43.9999 34.9755 44.8081 34.9755 45.8052C34.9755 46.8022 35.7837 47.6104 36.7807 47.6104H44.0017C44.9987 47.6104 45.8069 46.8022 45.8069 45.8052C45.8069 44.8081 44.9987 43.9999 44.0017 43.9999H36.7807Z" fill="#00041E"/>
</g>
<defs>
<clipPath id="clip0_13_241">
<rect width="88" height="88" fill="white"/>
</clipPath>
</defs>
</svg>
