<svg width="88" height="88" viewBox="0 0 88 88" fill="none" xmlns="http://www.w3.org/2000/svg">
<g clip-path="url(#clip0_13_244)">
<path d="M44 88C68.3005 88 88 68.3005 88 44C88 19.6995 68.3005 0 44 0C19.6995 0 0 19.6995 0 44C0 68.3005 19.6995 88 44 88Z" fill="#29FCEF"/>
<path d="M30.3498 44C30.3498 36.4618 36.4608 30.3508 43.9991 30.3508C48.2936 30.3508 52.0672 32.3359 54.5469 35.4577L51.6818 35.4493C50.7395 35.4465 49.9734 36.2081 49.9706 37.1504C49.9679 38.0927 50.7295 38.8588 51.6718 38.8616L57.5458 38.8788C57.6114 38.8828 57.6773 38.883 57.7434 38.8794L58.4964 38.8816C58.9498 38.8829 59.385 38.7037 59.7061 38.3836C60.0271 38.0635 60.2076 37.6288 60.2076 37.1754L60.2075 30.3508C60.2075 29.4085 59.4437 28.6446 58.5014 28.6446C57.5591 28.6446 56.7952 29.4085 56.7952 30.3508V32.8238C53.7027 29.2254 49.1567 26.9385 43.9991 26.9385C34.5762 26.9385 26.9375 34.5772 26.9375 44C26.9375 44.9423 27.7014 45.7062 28.6437 45.7062C29.5859 45.7062 30.3498 44.9423 30.3498 44Z" fill="#00041E"/>
<path d="M57.6488 44.0001C57.6488 51.5384 51.5378 57.6494 43.9995 57.6494C39.705 57.6494 35.9314 55.6642 33.4516 52.5425L36.3168 52.5509C37.2591 52.5536 38.0252 51.792 38.0279 50.8497C38.0307 49.9074 37.2691 49.1413 36.3268 49.1386L30.4527 49.1214C30.3872 49.1174 30.3212 49.1171 30.2552 49.1208L29.5022 49.1186C29.0488 49.1173 28.6136 49.2964 28.2925 49.6165C27.9715 49.9366 27.791 50.3714 27.791 50.8247V57.6494C27.791 58.5916 28.5549 59.3555 29.4972 59.3555C30.4395 59.3555 31.2033 58.5916 31.2033 57.6494V55.1763C34.2958 58.7748 38.8418 61.0617 43.9995 61.0617C53.4223 61.0617 61.0611 53.4229 61.0611 44.0001C61.0611 43.0578 60.2972 42.2939 59.3549 42.2939C58.4126 42.2939 57.6488 43.0578 57.6488 44.0001Z" fill="#00041E"/>
</g>
<defs>
<clipPath id="clip0_13_244">
<rect width="88" height="88" fill="white"/>
</clipPath>
</defs>
</svg>
