<svg width="88" height="88" viewBox="0 0 88 88" fill="none" xmlns="http://www.w3.org/2000/svg">
<g clip-path="url(#clip0_13_237)">
<path d="M44 88C68.3005 88 88 68.3005 88 44C88 19.6995 68.3005 0 44 0C19.6995 0 0 19.6995 0 44C0 68.3005 19.6995 88 44 88Z" fill="#29FCEF"/>
<path d="M48.8513 29.6016C48.1733 28.9236 48.1733 27.8243 48.8513 27.1462C49.5293 26.4682 50.6287 26.4682 51.3067 27.1462L57.024 32.8635C58.38 34.2196 58.38 36.4182 57.024 37.7743L51.3067 43.4915C50.6287 44.1696 49.5293 44.1696 48.8513 43.4915C48.1733 42.8135 48.1733 41.7142 48.8513 41.0361L52.8323 37.0551H31.8485C30.8896 37.0551 30.1123 36.2778 30.1123 35.3189C30.1123 34.36 30.8896 33.5826 31.8485 33.5826H52.8323L48.8513 29.6016Z" fill="#00041E"/>
<path d="M56.1544 54.4174C57.1133 54.4174 57.8906 53.6401 57.8906 52.6812C57.8906 51.7223 57.1133 50.9449 56.1544 50.9449H35.1706L39.1516 46.9639C39.8297 46.2859 39.8297 45.1866 39.1516 44.5085C38.4736 43.8305 37.3742 43.8305 36.6962 44.5085L30.979 50.2258C29.6229 51.5819 29.6229 53.7805 30.979 55.1366L36.6962 60.8538C37.3742 61.5319 38.4736 61.5319 39.1516 60.8538C39.8297 60.1758 39.8297 59.0765 39.1516 58.3984L35.1706 54.4174H56.1544Z" fill="#00041E"/>
</g>
<defs>
<clipPath id="clip0_13_237">
<rect width="88" height="88" fill="white"/>
</clipPath>
</defs>
</svg>
