<svg width="88" height="88" viewBox="0 0 88 88" fill="none" xmlns="http://www.w3.org/2000/svg">
<g clip-path="url(#clip0_13_253)">
<path d="M44 88C68.3005 88 88 68.3005 88 44C88 19.6995 68.3005 0 44 0C19.6995 0 0 19.6995 0 44C0 68.3005 19.6995 88 44 88Z" fill="#29FCEF"/>
<path d="M44.1664 63.3259C43.927 63.3259 43.6877 63.271 43.4718 63.1592L36.5124 59.5566C34.5376 58.5333 32.9928 57.3849 31.7865 56.047C29.1463 53.121 27.6774 49.365 27.6541 45.4687L27.5723 32.6448C27.5626 31.1647 28.5179 29.8363 29.946 29.336L42.7247 24.8807C43.4835 24.6097 44.3298 24.6059 45.1022 24.8674L57.9295 29.1711C59.3654 29.6506 60.3362 30.9695 60.344 32.4477L60.4257 45.2811C60.451 49.1717 59.0327 52.9429 56.4334 55.9011C55.2407 57.2579 53.7095 58.4234 51.7542 59.4657L44.857 63.1497C44.643 63.2653 44.4057 63.324 44.1664 63.3259Z" fill="#00041E"/>
<path d="M42.6819 48.4854C42.3084 48.4873 41.9348 48.3527 41.6469 48.0761L37.9424 44.5133C37.3704 43.96 37.3646 43.0617 37.9308 42.5046C38.4969 41.9455 39.4211 41.9398 39.9951 42.4913L42.6605 45.0534L49.1686 38.6367C49.7367 38.0777 50.6608 38.072 51.2328 38.6235C51.8068 39.1768 51.8126 40.077 51.2465 40.6322L43.7111 48.0628C43.4271 48.3433 43.0555 48.4835 42.6819 48.4854Z" fill="#29FCEF"/>
</g>
<defs>
<clipPath id="clip0_13_253">
<rect width="88" height="88" fill="white"/>
</clipPath>
</defs>
</svg>
