<svg width="88" height="88" viewBox="0 0 88 88" fill="none" xmlns="http://www.w3.org/2000/svg">
<g clip-path="url(#clip0_13_234)">
<path d="M44 88C68.3005 88 88 68.3005 88 44C88 19.6995 68.3005 0 44 0C19.6995 0 0 19.6995 0 44C0 68.3005 19.6995 88 44 88Z" fill="#29FCEF"/>
<path fill-rule="evenodd" clip-rule="evenodd" d="M32.4335 27.4768C29.6959 27.4768 27.4766 29.6961 27.4766 32.4338V55.5663C27.4766 58.304 29.6959 60.5233 32.4335 60.5233H55.5661C58.3037 60.5233 60.523 58.304 60.523 55.5663V39.0431C60.523 36.8848 59.1437 35.0486 57.2184 34.3682V32.4338C57.2184 29.6961 54.9991 27.4768 52.2614 27.4768H32.4335ZM32.4335 30.7815C31.521 30.7815 30.7812 31.5212 30.7812 32.4338C30.7812 33.3463 31.521 34.0861 32.4335 34.0861H53.9137V32.4338C53.9137 31.5212 53.174 30.7815 52.2614 30.7815H32.4335ZM52.2614 44C50.4363 44 48.9568 45.4796 48.9568 47.3047C48.9568 49.1298 50.4363 50.6093 52.2614 50.6093H55.5661C56.4786 50.6093 57.2184 49.8696 57.2184 48.957V45.6524C57.2184 44.7398 56.4786 44 55.5661 44H52.2614Z" fill="#00041E"/>
</g>
<defs>
<clipPath id="clip0_13_234">
<rect width="88" height="88" fill="white"/>
</clipPath>
</defs>
</svg>
