<svg width="88" height="88" viewBox="0 0 88 88" fill="none" xmlns="http://www.w3.org/2000/svg">
<g clip-path="url(#clip0_13_248)">
<path d="M44 88C68.3005 88 88 68.3005 88 44C88 19.6995 68.3005 0 44 0C19.6995 0 0 19.6995 0 44C0 68.3005 19.6995 88 44 88Z" fill="#29FCEF"/>
<path d="M33.575 39.8366C33.575 37.6051 31.766 35.7961 29.5345 35.7961C27.303 35.7961 25.4941 37.6051 25.4941 39.8366V58.4082C25.4941 60.6397 27.303 62.4486 29.5345 62.4486C31.766 62.4486 33.575 60.6397 33.575 58.4082V39.8366Z" fill="#00041E"/>
<path d="M48.1532 29.5915C48.1532 27.36 46.3442 25.551 44.1128 25.551C41.8813 25.551 40.0723 27.36 40.0723 29.5915V58.4083C40.0723 60.6398 41.8813 62.4487 44.1128 62.4487C46.3442 62.4487 48.1532 60.6398 48.1532 58.4083V29.5915Z" fill="#00041E"/>
<path d="M62.5067 51.1637C62.5067 48.9323 60.6977 47.1233 58.4662 47.1233C56.2347 47.1233 54.4258 48.9323 54.4258 51.1637V58.4082C54.4258 60.6396 56.2347 62.4486 58.4662 62.4486C60.6977 62.4486 62.5067 60.6396 62.5067 58.4082V51.1637Z" fill="#00041E"/>
</g>
<defs>
<clipPath id="clip0_13_248">
<rect width="88" height="88" fill="white"/>
</clipPath>
</defs>
</svg>
