<svg width="78" height="78" viewBox="0 0 78 78" fill="none" xmlns="http://www.w3.org/2000/svg">
<g clip-path="url(#clip0_20_343)">
<path opacity="0.1" d="M39 78C60.5391 78 78 60.5391 78 39C78 17.4609 60.5391 0 39 0C17.4609 0 0 17.4609 0 39C0 60.5391 17.4609 78 39 78Z" fill="white"/>
<path d="M52.6571 33.2619C53.2811 29.0906 50.1052 26.8482 45.7625 25.3523L47.1712 19.7018L43.7317 18.8447L42.3602 24.3463C41.456 24.121 40.5273 23.9084 39.6045 23.6978L40.9858 18.1599L37.5483 17.3027L36.1386 22.9513C35.3902 22.7808 34.6554 22.6123 33.9423 22.435L33.9462 22.4174L29.2028 21.233L28.2878 24.9066C28.2878 24.9066 30.8398 25.4915 30.7859 25.5277C32.1789 25.8755 32.4307 26.7973 32.3886 27.5281L30.7839 33.9652C30.88 33.9897 31.0044 34.025 31.1415 34.0799C31.0269 34.0515 30.9044 34.0201 30.7781 33.9897L28.5288 43.0072C28.3584 43.4304 27.9264 44.0652 26.9526 43.8242C26.9869 43.8742 24.4526 43.2002 24.4526 43.2002L22.7451 47.1373L27.221 48.2531C28.0537 48.4618 28.8697 48.6803 29.673 48.886L28.2496 54.6011L31.6852 55.4583L33.0949 49.8039C34.0334 50.0586 34.9444 50.2937 35.8359 50.5151L34.4311 56.1431L37.8706 57.0002L39.294 51.2959C45.159 52.4058 49.5693 51.9581 51.4257 46.6534C52.9216 42.3822 51.3513 39.9185 48.2654 38.3119C50.5127 37.7936 52.2055 36.3154 52.6571 33.2619ZM44.7985 44.2817C43.7356 48.5529 36.5442 46.2439 34.2126 45.665L36.1014 38.0934C38.4329 38.6753 45.9094 39.8274 44.7985 44.2817ZM45.8624 33.2002C44.8926 37.0854 38.907 35.1114 36.9654 34.6275L38.6778 27.7603C40.6194 28.2442 46.8724 29.1474 45.8624 33.2002Z" fill="white"/>
</g>
<defs>
<clipPath id="clip0_20_343">
<rect width="78" height="78" fill="white"/>
</clipPath>
</defs>
</svg>
