<svg width="18" height="18" viewBox="0 0 18 18" fill="none" xmlns="http://www.w3.org/2000/svg">
<path d="M16.7137 6.36865H0.338922C0.151792 6.36865 0 6.51015 0 6.6852V17.6833C0 17.8581 0.151792 17.9998 0.338922 17.9998H16.7134C16.9016 17.9998 17.0526 17.8581 17.0526 17.6833V6.6852C17.0526 6.51015 16.9016 6.36865 16.7137 6.36865ZM5.68136 15.6811C5.11622 15.6811 4.49192 15.5749 4.01004 15.3966C3.93749 15.3698 3.89305 15.3002 3.90402 15.2278L4.06197 14.1524C4.0684 14.1048 4.09838 14.0628 4.14229 14.0382C4.1878 14.0134 4.24188 14.0092 4.28899 14.0259C4.81879 14.213 5.26426 14.2897 5.82672 14.2897C6.41622 14.2897 6.82689 14.0292 6.82689 13.6566C6.82689 13.194 6.58836 12.9466 5.28434 12.877C5.19466 12.8722 5.12505 12.8028 5.12505 12.7189V11.6438C5.12505 11.5607 5.19332 11.4915 5.28166 11.4855C6.40471 11.4114 6.53455 11.0883 6.53455 10.8519C6.53455 10.6919 6.53455 10.4239 5.77425 10.4239C5.3676 10.4239 4.93578 10.5276 4.49138 10.731C4.44212 10.7528 4.38483 10.7518 4.33772 10.7287C4.28926 10.7047 4.2566 10.6606 4.24937 10.6105L4.09196 9.53565C4.08125 9.46678 4.12114 9.39966 4.18806 9.37011C4.70555 9.14622 5.3585 9.03278 6.13004 9.03278C7.50527 9.03278 8.4294 9.63032 8.4294 10.5196C8.4294 11.1865 8.06077 11.6774 7.30448 12.0109C7.95368 12.2451 8.61707 12.6701 8.61707 13.5692C8.61707 14.8519 7.46538 15.6811 5.68136 15.6811ZM12.834 15.4249C12.834 15.5123 12.758 15.5832 12.6646 15.5832H11.2653C11.1713 15.5832 11.0958 15.5123 11.0958 15.4249V11.1119L10.1762 11.44C10.127 11.457 10.0737 11.453 10.0295 11.4279C9.9848 11.4036 9.95482 11.3613 9.9484 11.3135L9.79178 10.2381C9.78188 10.1708 9.81909 10.1049 9.88441 10.0751L11.8904 9.14698C11.9139 9.13646 11.9396 9.1307 11.9659 9.1307H12.6649C12.7583 9.1307 12.8343 9.20157 12.8343 9.28922L12.834 15.4249Z" fill="white"/>
<path d="M16.7137 1.41699H14.9685V2.18107C14.9685 2.99123 14.4746 3.85648 13.0865 3.85648C11.6984 3.85648 11.2042 2.99123 11.2042 2.18107V1.41699H5.87063V2.18107C5.87063 2.99123 5.3767 3.85648 3.98862 3.85648C2.60027 3.85648 2.10501 2.99123 2.10501 2.18107V1.41699H0.338922C0.151792 1.41699 0 1.55849 0 1.73354V4.95388C0 5.12919 0.151792 5.27093 0.338922 5.27093H16.7134C16.9016 5.27093 17.0526 5.12919 17.0526 4.95388V1.73354C17.0526 1.55849 16.9016 1.41699 16.7137 1.41699Z" fill="white"/>
<path d="M3.98865 2.83317C4.5495 2.83317 4.77732 2.64409 4.77732 2.18054V1.41671V0.652884C4.77732 0.188828 4.5495 0 3.98865 0C3.42619 0 3.19836 0.189078 3.19836 0.652884V1.41671V2.18079C3.19836 2.64434 3.42619 2.83317 3.98865 2.83317Z" fill="white"/>
<path d="M13.0862 2.83317C13.6471 2.83317 13.8749 2.64409 13.8749 2.18054V1.41671V0.652884C13.8749 0.188828 13.6471 0 13.0862 0C12.5238 0 12.2975 0.189078 12.2975 0.652884V1.41671V2.18079C12.2973 2.64434 12.5238 2.83317 13.0862 2.83317Z" fill="white"/>
</svg>
