<svg width="870" height="406" viewBox="0 0 870 406" fill="none" xmlns="http://www.w3.org/2000/svg">
<g clip-path="url(#clip0_23_162)">
<mask id="mask0_23_162" style="mask-type:luminance" maskUnits="userSpaceOnUse" x="0" y="0" width="870" height="406">
<path d="M870 0H0V406H870V0Z" fill="white"/>
</mask>
<g mask="url(#mask0_23_162)">
<mask id="mask1_23_162" style="mask-type:alpha" maskUnits="userSpaceOnUse" x="0" y="0" width="1146" height="406">
<path d="M1145.27 0H0V405.171H1145.27V0Z" fill="#1649FF"/>
</mask>
<g mask="url(#mask1_23_162)">
<path opacity="0.1" d="M858.975 568.233C765.311 718.92 437.944 753.602 129.143 645.53C-179.681 537.461 -354.695 326.923 -261.087 176.24C-167.794 26.1012 157.473 -8.92281 465.23 97.6526C466.411 98.0619 467.592 98.4729 468.773 98.8855C777.573 206.959 952.595 417.515 858.975 568.233ZM-257.787 177.379C-350.81 327.073 -176.7 536.269 130.277 643.705C437.277 751.134 762.674 716.779 855.666 567.076C907.709 483.329 876.147 380.956 784.487 288.196C869.841 377.489 898.355 475.259 848.466 555.578C757.365 702.24 438.736 735.986 138.275 630.833C-162.194 525.659 -332.526 320.784 -241.412 174.149C-191.491 93.7832 -73.2608 47.3194 72.8635 39.0334C-80.8407 45.9155 -205.722 93.5793 -257.787 177.379ZM543.397 188.832C525.457 217.738 462.743 224.433 403.624 203.744C344.504 183.054 311.032 142.701 329 113.797C338.395 98.6552 360.082 89.6121 387.099 87.404C352.511 88.2201 324.177 98.4704 312.635 117.048C292.799 148.975 330.039 193.631 395.644 216.593C461.249 239.555 530.764 232.26 550.604 200.332C562.134 181.755 554.395 158.897 533.027 138.5C548.109 155.44 552.805 173.707 543.397 188.832ZM532.871 176.2C517.418 201.042 463.528 206.8 412.781 189.04C361.968 171.257 333.202 136.561 348.629 111.728C356.659 98.8101 375.055 91.0555 397.993 89.0711C367.467 89.6544 342.42 98.6071 332.277 114.944C314.964 142.828 347.471 181.825 404.766 201.877C462.098 221.941 522.816 215.579 540.125 187.687C550.289 171.328 543.289 151.127 524.188 133.176C536.968 147.665 540.908 163.263 532.871 176.2ZM522.371 163.563C509.451 184.387 464.395 189.163 421.92 174.3C379.445 159.437 355.377 130.441 368.306 109.637C368.507 109.313 368.716 108.993 368.933 108.678C369.009 108.57 369.085 108.466 369.161 108.36C369.307 108.154 369.453 107.947 369.605 107.742C369.7 107.615 369.802 107.493 369.9 107.368C370.039 107.186 370.176 107.006 370.322 106.831C370.432 106.697 370.55 106.567 370.661 106.435C370.802 106.27 370.939 106.104 371.085 105.942C371.206 105.806 371.335 105.672 371.461 105.537C371.603 105.383 371.745 105.227 371.891 105.077C372.024 104.939 372.163 104.805 372.301 104.67C372.446 104.525 372.589 104.378 372.739 104.235C372.89 104.092 373.034 103.964 373.181 103.828C373.33 103.692 373.477 103.553 373.631 103.419C373.784 103.285 373.945 103.149 374.105 103.014C374.257 102.885 374.407 102.753 374.562 102.626C374.729 102.489 374.901 102.356 375.07 102.223C375.224 102.1 375.376 101.976 375.535 101.857C375.711 101.722 375.894 101.59 376.076 101.457C376.232 101.342 376.386 101.225 376.543 101.112C376.733 100.977 376.924 100.848 377.115 100.717C377.274 100.608 377.429 100.498 377.593 100.39C377.793 100.258 377.998 100.129 378.202 99.9991C378.361 99.8972 378.517 99.7928 378.68 99.6934C378.892 99.5616 379.108 99.4332 379.325 99.3064C379.485 99.2111 379.643 99.1134 379.805 99.0197C380.029 98.8905 380.257 98.7654 380.486 98.6394C380.645 98.5475 380.802 98.4571 380.966 98.371C381.201 98.2434 381.443 98.1207 381.683 97.9965C381.844 97.9128 382.001 97.8283 382.163 97.7462C382.411 97.6211 382.664 97.5001 382.916 97.3783C383.075 97.3013 383.233 97.2226 383.393 97.1463C383.651 97.0245 383.921 96.9052 384.186 96.7867C384.343 96.7163 384.499 96.6426 384.659 96.573C384.932 96.4512 385.212 96.336 385.49 96.2192C385.649 96.1529 385.799 96.0874 385.956 96.022C386.243 95.9043 386.536 95.7908 386.827 95.6765C386.98 95.6168 387.132 95.5547 387.286 95.4967C387.587 95.3815 387.893 95.2705 388.197 95.1594C388.348 95.1047 388.495 95.0492 388.647 94.9945C388.962 94.8835 389.281 94.7741 389.601 94.6673C389.747 94.6184 389.892 94.567 390.037 94.5189C390.366 94.4112 390.697 94.3068 391.033 94.2024C391.175 94.1577 391.316 94.1121 391.46 94.0682C391.802 93.963 392.15 93.8619 392.497 93.7616C392.636 93.7243 392.771 93.6813 392.91 93.6415C393.266 93.5412 393.63 93.4451 393.991 93.3465C394.123 93.3101 394.254 93.2744 394.387 93.238C394.759 93.141 395.136 93.0482 395.513 92.9554C395.64 92.9248 395.766 92.8925 395.894 92.8626C396.28 92.769 396.671 92.6803 397.061 92.5909C397.183 92.5635 397.303 92.5353 397.425 92.5088C397.827 92.421 398.231 92.3365 398.636 92.2545C398.753 92.2313 398.867 92.2064 398.983 92.1832C399.398 92.1003 399.819 92.0208 400.24 91.9437C400.35 91.9239 400.457 91.9023 400.567 91.8824C400.998 91.8045 401.432 91.7308 401.869 91.6595C401.971 91.6421 402.072 91.6239 402.174 91.6073C402.619 91.5336 403.069 91.4673 403.52 91.401L403.805 91.3579C404.266 91.2917 404.729 91.2287 405.196 91.169C405.284 91.1574 405.37 91.145 405.459 91.1334C405.934 91.0737 406.412 91.0166 406.892 90.9627C406.973 90.9536 407.054 90.9437 407.134 90.9354C407.623 90.8815 408.115 90.831 408.609 90.7846C408.683 90.7771 408.756 90.7697 408.829 90.7622C408.88 90.7581 408.932 90.7539 408.982 90.7498C382.475 91.0878 360.669 98.7596 351.901 112.88C337.099 136.689 364.919 170.011 413.919 187.176C462.902 204.303 514.795 198.881 529.569 175.067C538.327 160.972 532.198 143.559 515.605 128.135C525.909 140.095 528.998 152.911 522.371 163.563ZM511.878 150.945C501.462 167.678 465.218 171.56 431.051 159.6C396.885 147.64 377.545 124.299 387.935 107.576C393.185 99.1366 405.004 93.9621 419.81 92.4343C417.013 92.4483 414.282 92.561 411.616 92.7707L411.608 92.7731C410.953 92.8253 410.303 92.8825 409.657 92.9455L409.615 92.9496C407.074 93.1965 404.553 93.5462 402.062 93.9961L401.942 94.0185C401.383 94.1212 400.83 94.2281 400.281 94.3408L400.125 94.3723C398.347 94.7393 396.624 95.1569 394.957 95.6259L394.927 95.6342C394.406 95.7809 393.892 95.9333 393.383 96.0899L393.133 96.1678C392.688 96.307 392.249 96.4495 391.814 96.5953L391.538 96.689C391.083 96.8447 390.633 97.0047 390.188 97.1679L390.028 97.2259C389.018 97.6012 388.036 97.9989 387.081 98.4174C387.015 98.4464 386.951 98.477 386.884 98.506C386.493 98.68 386.106 98.8573 385.724 99.0388C385.612 99.0927 385.499 99.1482 385.387 99.2012C385.05 99.3644 384.717 99.531 384.388 99.7C384.271 99.7605 384.153 99.8201 384.038 99.8806C383.698 100.059 383.363 100.242 383.03 100.427C382.941 100.476 382.851 100.524 382.763 100.575C381.927 101.049 381.123 101.543 380.349 102.057C380.252 102.12 380.164 102.183 380.071 102.246C379.788 102.439 379.507 102.634 379.232 102.832C379.113 102.917 378.997 103.004 378.879 103.091C378.631 103.274 378.388 103.459 378.147 103.646C378.03 103.738 377.914 103.829 377.798 103.921C377.55 104.119 377.31 104.32 377.072 104.522C376.976 104.603 376.878 104.684 376.784 104.766C376.13 105.336 375.51 105.926 374.923 106.534C374.834 106.627 374.749 106.721 374.661 106.814C374.462 107.027 374.264 107.242 374.072 107.46C373.972 107.573 373.875 107.688 373.777 107.803C373.603 108.01 373.432 108.218 373.263 108.427C373.17 108.545 373.076 108.663 372.983 108.783C372.811 109.006 372.645 109.232 372.485 109.459C372.408 109.565 372.332 109.669 372.256 109.776C372.025 110.11 371.8 110.448 371.586 110.791C359.306 130.556 382.388 158.21 423.082 172.466C463.734 186.693 506.819 182.183 519.099 162.416C519.312 162.071 519.514 161.725 519.703 161.378C519.764 161.266 519.821 161.155 519.881 161.043C520.008 160.804 520.132 160.563 520.251 160.322C520.315 160.192 520.374 160.063 520.432 159.932C520.54 159.702 520.642 159.47 520.739 159.237C520.793 159.107 520.848 158.977 520.9 158.847C520.999 158.597 521.091 158.345 521.18 158.094C521.219 157.983 521.261 157.873 521.297 157.762C521.542 157.034 521.745 156.299 521.907 155.556C521.93 155.45 521.949 155.342 521.97 155.235C522.024 154.967 522.074 154.7 522.118 154.431C522.138 154.305 522.156 154.179 522.175 154.053C522.211 153.795 522.244 153.536 522.272 153.276C522.284 153.154 522.298 153.03 522.309 152.907C522.333 152.623 522.351 152.337 522.366 152.051C522.37 151.954 522.377 151.862 522.382 151.767C522.408 150.992 522.396 150.212 522.343 149.428C522.338 149.345 522.326 149.263 522.323 149.18C522.3 148.87 522.27 148.56 522.232 148.249C522.221 148.143 522.207 148.038 522.192 147.932C522.154 147.635 522.109 147.336 522.059 147.038C522.043 146.939 522.026 146.838 522.009 146.737C521.949 146.404 521.881 146.069 521.807 145.734C521.795 145.675 521.783 145.616 521.77 145.557C521.586 144.74 521.36 143.921 521.092 143.099C521.078 143.055 521.064 143.014 521.05 142.972C520.931 142.611 520.804 142.249 520.67 141.887C520.644 141.814 520.615 141.74 520.587 141.667C520.458 141.323 520.32 140.979 520.177 140.634C520.15 140.568 520.123 140.503 520.096 140.438C519.929 140.047 519.755 139.657 519.573 139.267C519.567 139.255 519.562 139.245 519.556 139.234C518.966 137.976 518.286 136.718 517.517 135.46C517.494 135.423 517.47 135.386 517.448 135.349C517.211 134.963 516.966 134.577 516.713 134.191L516.655 134.103C515.514 132.383 514.251 130.709 512.872 129.091C512.867 129.081 512.856 129.073 512.849 129.064C512.499 128.653 512.141 128.243 511.773 127.835C511.771 127.831 511.767 127.827 511.763 127.823C510.267 126.16 508.627 124.519 506.845 122.899C514.797 132.395 517.114 142.515 511.876 150.945H511.878ZM501.342 138.296C493.479 150.984 466.027 153.918 440.198 144.876C414.345 135.846 399.717 118.169 407.608 105.483C411.456 99.2832 419.989 95.408 430.726 94.1212C412.406 93.9969 397.201 99.0728 391.207 108.711C381.45 124.432 399.845 146.412 432.2 157.749C464.579 169.083 498.839 165.507 508.602 149.797C514.605 140.136 509.991 128.116 498.045 117.652C503.667 124.667 505.211 132.081 501.342 138.296ZM490.848 125.676C485.495 134.291 466.853 136.314 449.339 130.198C431.783 124.054 421.891 112.039 427.239 103.414C429.707 99.4465 434.979 96.8721 441.655 95.8447C427.41 95.4643 415.481 99.2352 410.889 106.635C403.642 118.284 417.308 134.611 441.347 143.024C465.361 151.447 490.848 148.797 498.066 137.146C502.678 129.742 498.849 120.447 489.292 112.498C492.549 117.006 493.32 121.698 490.847 125.677L490.848 125.676ZM480.338 113.02C477.479 117.589 467.696 118.682 458.478 115.456C449.259 112.23 444.053 105.89 446.882 101.318C447.977 99.5583 450.1 98.3188 452.818 97.6377C442.544 96.9085 433.739 99.357 430.514 104.56C425.793 112.163 434.746 122.824 450.48 128.329C466.213 133.834 482.85 132.133 487.573 124.53C490.798 119.317 487.638 112.681 480.288 107.246C481.342 109.248 481.436 111.265 480.337 113.021L480.338 113.02ZM553.876 201.476C533.393 234.443 461.901 242.063 394.469 218.448C327.073 194.861 288.873 148.858 309.356 115.89C320.195 98.4547 345.312 88.1041 376.549 85.7154C337.725 86.6889 305.941 98.2268 292.969 119.094C270.592 155.093 312.553 205.434 386.495 231.312C460.413 257.198 538.781 248.961 561.152 212.952C574.111 192.075 565.451 166.373 541.474 143.42C559.127 162.924 564.715 184.029 553.875 201.477L553.876 201.476ZM564.428 214.098C541.424 251.122 461.078 259.668 385.346 233.164C309.614 206.659 266.692 154.971 289.694 117.948C301.87 98.3428 330.15 86.7204 365.313 84.0657C322.584 85.3251 287.673 98.1464 273.355 121.191C248.459 161.244 295.116 217.226 377.364 246.011C459.612 274.795 546.753 265.634 571.627 225.597C585.978 202.482 576.536 174.069 550.202 148.639C570.245 170.62 576.644 194.435 564.428 214.098ZM574.894 226.726C549.409 267.815 460.261 277.29 376.199 247.888C292.154 218.456 244.553 161.114 270.051 120.043C283.664 98.1497 315.339 85.2273 354.677 82.3837C307.73 83.8188 269.386 97.9418 253.647 123.273C226.237 167.39 277.631 229.031 368.227 260.754C458.78 292.444 554.712 282.335 582.123 238.216C597.847 212.923 587.66 181.845 559.023 153.959C581.357 178.383 588.499 204.861 574.892 226.727L574.894 226.726ZM585.407 239.382C557.356 284.495 459.418 294.92 367.068 262.585C274.694 230.254 222.348 167.231 250.368 122.118C265.366 97.9757 300.378 83.7649 343.837 80.7149C292.817 82.3646 251.172 97.7719 234.046 125.343C204.115 173.507 260.212 240.858 359.069 275.457C457.953 310.049 562.718 299.019 592.656 250.866C609.821 223.222 598.687 189.278 567.406 158.826C592.36 185.825 600.431 215.174 585.404 239.382H585.407ZM595.922 251.993C565.373 301.198 458.578 312.552 357.93 277.325C257.249 242.088 200.212 173.384 230.771 124.198C247.188 97.7744 285.599 82.2718 333.244 79.0421C330.681 79.1257 328.141 79.2426 325.622 79.3917L325.365 79.4075C324.635 79.4514 323.909 79.4978 323.184 79.5467L322.776 79.574C322.091 79.6221 321.409 79.6718 320.727 79.7231L320.299 79.7571C319.602 79.811 318.906 79.8681 318.213 79.9278L317.883 79.9551C317.093 80.0239 316.306 80.096 315.521 80.1714L315.506 80.1722C313.06 80.4059 310.641 80.6719 308.248 80.9701L307.959 81.0066C307.28 81.0919 306.604 81.1789 305.933 81.2684L305.503 81.3264C304.867 81.4126 304.234 81.5013 303.604 81.5907L303.156 81.6554C302.511 81.749 301.87 81.8451 301.23 81.9429L300.866 81.9984C300.141 82.1111 299.418 82.2263 298.698 82.3447L298.616 82.358C296.314 82.7383 294.041 83.1493 291.798 83.5909L291.45 83.6597C290.838 83.7815 290.23 83.9049 289.624 84.0309L289.154 84.1295C288.581 84.2496 288.01 84.3714 287.442 84.4957L286.956 84.6026C286.378 84.7302 285.802 84.8611 285.228 84.9929L284.813 85.0881C284.166 85.2389 283.523 85.3922 282.884 85.5472L282.708 85.5886C281.264 85.9407 279.835 86.307 278.42 86.6865C278.386 86.6964 278.351 86.7055 278.316 86.7155C277.671 86.8886 277.03 87.0643 276.392 87.2433L275.974 87.3617C275.439 87.5134 274.905 87.6675 274.374 87.8224L273.86 87.9741C273.357 88.1232 272.856 88.274 272.356 88.4265L271.831 88.588C271.325 88.7446 270.821 88.9029 270.321 89.0636C270.164 89.1133 270.009 89.1622 269.853 89.2128C269.294 89.3926 268.738 89.5757 268.185 89.7605C268.094 89.7911 268.002 89.8209 267.911 89.8516C266.593 90.2949 265.292 90.7506 264.006 91.2204C263.929 91.2486 263.853 91.2767 263.776 91.3057C263.23 91.5054 262.687 91.7084 262.148 91.9131C261.99 91.9727 261.833 92.0341 261.676 92.0945C261.216 92.2702 260.759 92.4483 260.304 92.6281C260.122 92.7002 259.941 92.7723 259.76 92.8452C259.328 93.0176 258.897 93.1924 258.468 93.3681L257.918 93.5951C257.485 93.7757 257.054 93.9572 256.625 94.1395L256.122 94.3549C255.648 94.5595 255.178 94.7659 254.711 94.9747C254.595 95.026 254.478 95.0774 254.361 95.1288C253.178 95.6599 252.013 96.2034 250.867 96.7594C250.759 96.8116 250.652 96.8655 250.544 96.9185C250.091 97.1389 249.642 97.3618 249.195 97.5863L248.695 97.8407C248.308 98.0371 247.924 98.2351 247.541 98.4348C247.358 98.5325 247.174 98.6278 246.991 98.7248C246.627 98.9178 246.264 99.1125 245.901 99.3081C245.717 99.4083 245.532 99.5086 245.349 99.6097C244.984 99.8102 244.622 100.012 244.262 100.215C244.091 100.309 243.92 100.407 243.75 100.504C243.357 100.728 242.967 100.954 242.579 101.183C242.45 101.259 242.318 101.334 242.188 101.411C241.149 102.027 240.128 102.656 239.127 103.297C239.004 103.379 238.881 103.46 238.756 103.538C238.387 103.776 238.02 104.015 237.657 104.256C237.491 104.366 237.327 104.478 237.163 104.587C236.843 104.802 236.525 105.019 236.207 105.237C236.031 105.357 235.857 105.479 235.684 105.601C235.38 105.813 235.079 106.026 234.78 106.241C234.606 106.366 234.432 106.491 234.259 106.616C233.957 106.836 233.658 107.056 233.362 107.278C233.198 107.399 233.034 107.52 232.875 107.642C232.552 107.885 232.235 108.13 231.919 108.377C231.788 108.478 231.656 108.578 231.527 108.68C230.636 109.38 229.767 110.092 228.916 110.814C228.792 110.921 228.67 111.028 228.546 111.134C228.249 111.39 227.954 111.646 227.662 111.904C227.51 112.039 227.361 112.175 227.21 112.309C226.95 112.544 226.692 112.779 226.436 113.014C226.277 113.16 226.121 113.306 225.966 113.453C225.72 113.684 225.475 113.916 225.233 114.149C225.078 114.299 224.925 114.447 224.771 114.597C224.528 114.836 224.286 115.076 224.046 115.318C223.902 115.462 223.758 115.605 223.617 115.751C223.359 116.015 223.104 116.281 222.85 116.547C222.733 116.671 222.613 116.794 222.497 116.919C221.763 117.702 221.05 118.497 220.359 119.303C220.249 119.432 220.142 119.562 220.033 119.691C219.801 119.967 219.568 120.244 219.34 120.523C219.212 120.679 219.087 120.836 218.961 120.993C218.756 121.249 218.552 121.506 218.351 121.763C218.221 121.93 218.093 122.097 217.964 122.264C217.771 122.518 217.58 122.772 217.389 123.028C217.264 123.197 217.139 123.366 217.014 123.537C216.823 123.799 216.635 124.062 216.45 124.326C216.334 124.49 216.217 124.654 216.103 124.818C215.904 125.107 215.709 125.399 215.513 125.691C215.42 125.831 215.322 125.972 215.23 126.113C214.946 126.547 214.666 126.984 214.393 127.423C181.948 179.66 242.749 252.659 349.935 290.159C457.112 327.682 570.697 315.715 603.146 263.489C603.419 263.048 603.686 262.606 603.945 262.164C604.03 262.02 604.11 261.874 604.194 261.73C604.367 261.43 604.539 261.13 604.704 260.826C604.799 260.655 604.892 260.483 604.985 260.311C605.135 260.034 605.282 259.757 605.428 259.478C605.522 259.298 605.615 259.117 605.706 258.936C605.846 258.662 605.982 258.389 606.116 258.114C606.205 257.933 606.292 257.752 606.38 257.57C606.514 257.288 606.644 257.005 606.773 256.722C606.853 256.549 606.932 256.377 607.009 256.203C607.148 255.891 607.282 255.577 607.415 255.264C607.475 255.12 607.538 254.977 607.598 254.833C607.788 254.374 607.971 253.915 608.15 253.453C608.153 253.444 608.155 253.435 608.159 253.425C608.333 252.974 608.499 252.523 608.659 252.069C608.71 251.922 608.76 251.773 608.81 251.626C608.92 251.31 609.027 250.992 609.131 250.674C609.188 250.5 609.242 250.324 609.298 250.151C609.39 249.858 609.481 249.564 609.57 249.269C609.624 249.086 609.677 248.903 609.728 248.719C609.811 248.428 609.892 248.137 609.971 247.845C610.02 247.662 610.067 247.48 610.115 247.298C610.193 246.996 610.267 246.694 610.339 246.391C610.378 246.22 610.421 246.049 610.46 245.878C610.538 245.539 610.611 245.199 610.682 244.858C610.71 244.724 610.74 244.591 610.767 244.456C610.959 243.502 611.126 242.543 611.268 241.58C611.289 241.44 611.306 241.3 611.326 241.159C611.372 240.818 611.417 240.478 611.461 240.135C611.482 239.966 611.501 239.797 611.518 239.627C611.556 239.31 611.588 238.995 611.618 238.68C611.635 238.501 611.651 238.322 611.666 238.144C611.692 237.832 611.717 237.518 611.739 237.205C611.75 237.029 611.762 236.853 611.773 236.677C611.793 236.35 611.81 236.022 611.823 235.694C611.828 235.534 611.837 235.374 611.843 235.212C611.856 234.836 611.864 234.459 611.867 234.082C611.869 233.972 611.873 233.861 611.874 233.75C611.884 232.761 611.868 231.768 611.828 230.77C611.823 230.647 611.816 230.525 611.811 230.401C611.793 230.03 611.773 229.659 611.75 229.286C611.738 229.131 611.725 228.975 611.717 228.818C611.692 228.475 611.665 228.133 611.635 227.791C611.62 227.626 611.605 227.46 611.589 227.294C611.556 226.953 611.521 226.613 611.482 226.273C611.464 226.112 611.445 225.949 611.426 225.789C611.383 225.432 611.337 225.074 611.286 224.715C611.267 224.574 611.249 224.434 611.229 224.294C611.168 223.871 611.103 223.447 611.033 223.023C611.021 222.948 611.01 222.874 610.998 222.799C610.827 221.778 610.632 220.755 610.412 219.73C610.392 219.632 610.369 219.534 610.347 219.436C610.259 219.03 610.167 218.623 610.071 218.217C610.038 218.08 610.002 217.945 609.972 217.807C609.881 217.436 609.788 217.063 609.691 216.69C609.652 216.542 609.613 216.395 609.575 216.249C609.477 215.88 609.375 215.51 609.27 215.14C609.23 214.998 609.19 214.858 609.149 214.717C609.036 214.325 608.919 213.931 608.798 213.538C608.762 213.425 608.729 213.311 608.696 213.197C608.55 212.72 608.396 212.242 608.236 211.766C608.226 211.738 608.217 211.71 608.208 211.682C607.86 210.635 607.486 209.587 607.087 208.538C607.062 208.47 607.034 208.401 607.009 208.332C606.84 207.891 606.669 207.448 606.494 207.007C606.448 206.893 606.401 206.78 606.355 206.667C606.193 206.266 606.026 205.864 605.856 205.461C605.803 205.337 605.749 205.212 605.696 205.087C605.526 204.687 605.351 204.289 605.173 203.89C605.121 203.773 605.069 203.656 605.017 203.538C604.824 203.111 604.627 202.683 604.427 202.256C604.386 202.171 604.35 202.089 604.311 202.005C603.568 200.432 602.773 198.858 601.925 197.284C601.906 197.245 601.881 197.206 601.86 197.167C601.604 196.693 601.344 196.22 601.079 195.747C601.03 195.658 600.977 195.567 600.927 195.478C600.685 195.05 600.44 194.623 600.192 194.195C600.132 194.093 600.072 193.99 600.013 193.887C599.763 193.462 599.511 193.039 599.254 192.614C599.197 192.522 599.142 192.429 599.084 192.335C598.806 191.878 598.523 191.419 598.235 190.961C598.202 190.907 598.168 190.854 598.135 190.801C597.138 189.216 596.089 187.635 594.988 186.057C594.98 186.04 594.966 186.026 594.955 186.01C594.609 185.514 594.259 185.02 593.904 184.526C593.854 184.455 593.803 184.385 593.752 184.315C593.43 183.87 593.104 183.424 592.775 182.979C592.713 182.895 592.65 182.812 592.589 182.727C592.26 182.285 591.926 181.842 591.589 181.4C591.533 181.327 591.476 181.254 591.419 181.181C591.051 180.702 590.679 180.222 590.303 179.743C590.279 179.714 590.257 179.685 590.234 179.656C588.99 178.078 587.696 176.505 586.353 174.937C586.353 174.937 586.35 174.933 586.35 174.932C585.918 174.429 585.482 173.926 585.04 173.424C584.989 173.366 584.938 173.309 584.889 173.251C584.489 172.799 584.086 172.347 583.68 171.896L583.486 171.68C583.079 171.232 582.669 170.785 582.256 170.337L582.087 170.154C581.634 169.667 581.177 169.182 580.718 168.696L580.677 168.652C579.198 167.097 577.67 165.549 576.096 164.009C603.461 193.494 612.352 225.566 595.922 251.993ZM606.425 264.63C573.346 317.871 457.786 330.167 348.791 292.006C239.775 253.867 178.045 179.523 211.12 126.274C228.895 97.6626 270.501 80.8749 322.105 77.3866C262.91 79.4721 214.643 97.4604 194.723 129.521C159.756 185.803 225.285 264.452 340.791 304.877C456.299 345.3 578.692 332.423 613.661 276.141C633.608 244.034 620.879 204.653 584.837 169.239C614.559 201.195 624.228 235.973 606.424 264.63L606.425 264.63ZM616.936 277.289C581.355 334.557 456.943 347.797 339.617 306.733C222.323 265.684 155.866 185.644 191.45 128.375C210.637 97.4919 255.596 79.4124 311.334 75.7228C248.015 78.0097 196.404 97.2872 175.095 131.591C137.609 191.927 207.824 276.251 331.669 319.593C455.47 362.906 586.691 349.089 624.153 288.761C645.453 254.476 631.999 212.457 593.713 174.611C625.701 209.003 636.104 246.434 616.934 277.288L616.936 277.289ZM627.461 289.918C589.338 351.248 456.11 365.383 330.511 321.423C204.887 277.473 133.68 191.8 171.821 130.445C192.412 97.2839 240.772 77.9135 300.701 74.0449C233.185 76.5075 178.156 97.0784 155.417 133.674C115.408 198.054 190.38 288.084 322.488 334.304C454.638 380.554 594.673 365.78 634.665 301.417C657.378 264.86 643.064 220.047 602.282 179.675C636.764 216.584 648.041 256.793 627.459 289.919L627.461 289.918ZM637.955 302.536C597.329 367.959 455.276 383.03 321.347 336.173C187.399 289.278 111.508 197.932 152.142 132.526C174.11 97.1613 225.696 76.505 289.607 72.3878C218.122 75.103 159.904 96.9491 135.811 135.727C93.26 204.177 172.926 299.836 313.357 349.001C453.814 398.157 602.673 382.446 645.207 314.021C669.328 275.18 654.125 227.583 610.81 184.691C647.806 224.127 659.952 267.128 637.955 302.536ZM648.472 315.149C605.31 384.652 454.462 400.654 312.216 350.87C169.969 301.087 89.3385 204.073 132.506 134.577C155.901 96.9268 210.953 74.9804 279.125 70.7058C203.363 73.5693 141.657 96.7113 116.122 137.79C71.0868 210.31 155.424 311.668 304.217 363.744C452.978 415.807 610.664 399.158 655.724 326.634C681.21 285.612 665.237 235.335 619.6 189.982C658.924 231.875 671.837 277.557 648.47 315.15L648.472 315.149ZM658.999 327.78C613.293 401.345 453.645 418.277 303.059 365.575C152.517 312.903 67.1658 210.202 112.846 136.644C137.558 96.8771 195.648 73.6638 267.606 69.0752C188.064 72.2718 123.33 96.6956 96.4854 139.903C48.9183 216.447 138.009 323.45 295.085 378.437C452.177 433.401 618.644 415.847 666.208 339.294C693.073 296.072 676.352 243.123 628.421 195.312C670.038 239.65 683.708 287.99 658.996 327.779L658.999 327.78ZM669.494 340.461C621.29 418.009 452.836 435.919 293.936 380.292C135.045 324.682 45.0119 216.316 93.2056 138.75C119.332 96.679 180.832 72.1641 256.994 67.3981C173.257 70.7655 105.105 96.4769 76.8287 141.97C26.7532 222.589 120.558 335.268 285.939 393.163C451.347 451.053 626.655 432.535 676.729 351.908C705.025 306.384 687.403 250.614 636.9 200.266C681.094 247.159 695.659 298.345 669.493 340.461H669.494ZM680.011 353.073C629.309 434.713 451.961 453.535 284.789 395.014C117.594 336.497 22.847 222.455 73.5537 140.824C101.089 96.4959 165.929 70.695 246.202 65.7277C158.341 69.2956 86.8503 96.2979 57.1816 144.055C4.5805 228.718 103.097 347.064 276.797 407.842C450.519 468.657 634.635 449.226 687.236 364.564C716.926 316.78 698.495 258.28 645.591 205.449C692.184 254.82 707.566 308.724 680.011 353.073ZM690.519 365.729C637.273 451.43 451.161 471.134 275.657 409.712C100.132 348.295 0.652855 228.602 53.8982 142.902C82.8181 96.3551 150.937 69.2666 235.26 64.0714C143.342 67.8696 68.5681 96.1595 37.519 146.124C-17.5907 234.858 85.6327 358.863 267.675 422.559C449.695 486.262 642.618 465.919 697.753 377.177C728.842 327.156 709.564 265.897 654.197 210.558C703.257 262.445 719.481 319.117 690.519 365.729ZM701.04 378.342C645.274 468.098 450.334 488.737 266.526 424.409C82.7178 360.079 -21.4905 234.735 34.2748 144.979C64.6083 96.1396 136.167 67.7553 224.72 62.3919C128.593 66.3533 50.3943 95.9366 17.9262 148.204C-39.7286 241 68.1939 370.653 258.528 437.282C448.878 503.885 650.592 482.592 708.247 389.795C740.747 337.486 720.61 273.44 662.742 215.584C714.314 269.99 731.414 329.449 701.039 378.342H701.04ZM711.521 390.941C653.241 484.75 449.502 506.384 257.387 439.149C65.2645 371.892 -43.6398 240.856 14.6485 147.056C46.3809 95.9839 121.223 66.3177 213.827 60.7339C113.614 64.9149 32.1047 95.7883 -1.75298 150.285C-61.9278 247.138 50.7665 382.461 249.395 451.977C448.033 521.511 658.584 499.303 718.757 402.45C752.622 347.926 731.71 281.193 671.519 220.877C725.399 277.732 743.258 339.862 711.522 390.943L711.521 390.941ZM722.031 403.597C661.238 501.478 448.701 523.982 248.246 453.827C47.7919 383.673 -65.8318 247.004 -5.02855 149.14C28.0564 95.8795 106.08 64.9307 202.635 59.0851C98.4969 63.5378 13.8208 95.6897 -21.4021 152.372C-84.0932 253.276 33.3137 394.275 240.249 466.701C447.195 539.142 666.559 515.975 729.261 415.088C764.546 358.312 742.803 288.816 680.151 225.992C736.488 285.354 755.18 350.247 722.031 403.598V403.597ZM732.534 416.234C669.213 518.153 447.844 541.636 239.1 468.55C30.3181 395.495 -87.9934 253.151 -24.6713 151.233C9.88584 95.6052 91.5194 63.3406 192.486 57.384C83.9236 61.9337 -4.3709 95.3956 -41.0751 154.463C-106.266 259.405 15.819 406.061 231.127 481.415C446.377 556.762 674.577 532.676 739.761 427.724C776.459 368.658 753.844 296.376 688.688 231.031C747.535 292.919 767.1 360.602 732.534 416.236V416.234ZM743.043 428.891C677.227 534.858 447.043 559.235 229.967 483.248C12.8688 407.268 -110.197 259.282 -44.3557 153.308C-8.40049 95.4461 76.524 61.9039 181.555 55.7285C68.9428 60.4995 -22.6323 95.2398 -60.7088 156.523C-128.435 265.547 -1.63497 417.879 221.947 496.13C445.53 574.382 682.558 549.373 750.287 440.359C788.321 379.143 765.007 304.258 697.661 236.504C758.699 300.798 778.955 371.093 743.044 428.892L743.043 428.891ZM753.56 441.502C685.201 551.532 446.209 576.883 220.831 497.988C-4.57517 419.103 -132.322 265.399 -63.9793 155.385C-26.6555 95.3119 61.5332 60.4787 170.603 54.0706C53.937 59.0718 -40.9169 95.1006 -80.3612 158.6C-150.608 271.678 -19.0965 429.674 212.823 510.841C444.719 592.019 690.54 566.065 760.812 452.988C800.304 389.404 776.002 311.601 705.917 241.247C769.681 308.145 790.921 381.353 753.56 441.502ZM764.091 454.136C693.193 568.243 445.383 594.49 211.673 512.693C-22.0363 430.897 -154.536 271.553 -83.6457 157.445C-44.8794 95.0409 46.8627 58.9136 160.28 52.3795C39.2852 57.5083 -59.1048 94.8421 -100.014 160.686C-172.786 277.801 -36.5628 441.475 203.675 525.567C443.925 609.638 698.536 582.733 771.314 465.628C812.168 399.872 787.122 319.41 714.765 246.608C780.812 315.946 802.812 391.81 764.089 454.135L764.091 454.136ZM774.59 466.773C701.167 584.916 444.533 612.099 202.517 527.398C-39.4731 442.69 -176.681 277.685 -103.286 159.541C-63.1804 94.9945 31.613 57.5953 148.821 50.7521C24.0194 56.1934 -77.4203 94.7907 -119.639 162.756C-194.927 283.933 -53.9977 453.264 194.544 540.265C443.074 627.247 706.519 599.423 781.807 478.245C823.993 410.348 798.266 327.306 723.76 252.107C791.966 323.839 814.644 402.286 774.589 466.772L774.59 466.773ZM785.084 479.39C709.165 601.582 443.725 629.74 193.395 542.115C-56.9611 454.495 -198.853 283.816 -122.914 161.61C-81.4066 94.8006 16.7548 56.1113 138.126 49.0809C9.15864 54.7127 -95.6686 94.6084 -139.309 164.856C-217.121 290.08 -71.4397 465.099 185.388 554.969C442.261 644.869 714.502 616.115 792.295 490.908C835.958 420.628 809.274 334.68 732.068 256.892C802.967 331.216 826.606 412.559 785.084 479.39ZM795.593 492.048C717.133 618.3 442.923 647.339 184.248 556.838C-74.4213 466.292 -221.048 289.961 -142.583 163.71C-99.6231 94.5579 2.08343 54.5594 127.795 47.3923C-5.49456 53.1517 -113.858 94.3474 -158.961 166.932C-239.27 296.201 -88.9017 476.897 176.275 569.703C441.403 662.523 722.495 632.825 802.821 503.539C847.981 430.853 820.245 341.931 740.204 261.512C813.932 338.482 838.614 422.807 795.595 492.048L795.593 492.048ZM806.094 504.686C725.142 634.985 442.068 664.994 175.099 571.559C-91.8681 478.124 -243.2 296.077 -162.244 165.776C-117.909 94.4286 -12.9957 53.1492 116.685 45.7327C-20.5846 51.7415 -132.154 94.2165 -178.622 168.998C-261.466 302.338 -106.367 488.694 167.117 584.406C440.576 680.128 730.502 649.508 813.337 516.15C859.841 441.299 831.374 349.745 749.08 266.894C825.064 346.291 850.476 433.252 806.093 504.685L806.094 504.686ZM816.623 517.316C733.146 651.671 441.251 682.617 165.978 586.278C-109.329 489.926 -265.364 302.218 -181.9 167.847C-136.246 94.3739 -28.2942 51.8285 105.185 44.1042C-35.8834 50.4331 -150.484 94.1817 -198.248 171.069C-283.633 308.482 -123.852 500.5 157.971 599.133C439.77 697.773 738.461 666.211 823.85 528.808C871.551 452.033 842.699 358.192 758.789 273.123C836.398 354.719 862.197 443.96 816.622 517.315L816.623 517.316ZM827.123 529.953C741.138 668.382 440.41 700.247 156.822 600.982C-126.766 501.717 -287.538 308.348 -201.528 169.913C-154.398 94.0641 -42.7746 50.2078 95.1742 42.3967C-50.3577 48.8017 -168.637 93.8602 -217.918 173.171C-305.8 314.622 -141.264 512.282 148.839 613.829C438.924 715.338 746.434 682.883 834.315 541.435C883.514 462.267 853.648 365.475 766.959 277.787C847.361 362.012 874.185 454.207 827.123 529.953ZM837.593 542.58C749.078 685.043 439.585 717.85 147.689 615.68C-144.252 513.519 -309.685 314.472 -221.192 172.024C-172.054 92.9446 -54.842 47.6475 89.6507 40.4566C-62.6881 46.1497 -186.806 92.6654 -238.138 175.296C-328.623 320.917 -159.279 524.44 139.423 628.981C438.103 733.528 754.708 700.062 845.166 554.437C896.639 471.607 864.059 370.054 771.435 278.634C857.474 366.503 886.851 463.295 837.592 542.579L837.593 542.58ZM466.919 100.5C459.708 98.1879 452.298 99.0388 450.163 102.474C447.958 106.024 452.202 111.017 459.636 113.625C467.028 116.214 474.834 115.429 477.04 111.882C479.173 108.45 475.316 103.65 468.341 100.996C468.101 100.91 467.866 100.82 467.625 100.736C467.383 100.651 467.154 100.578 466.919 100.5Z" fill="white"/>
</g>
</g>
</g>
<defs>
<clipPath id="clip0_23_162">
<rect width="870" height="406" fill="white"/>
</clipPath>
</defs>
</svg>
