<svg width="78" height="78" viewBox="0 0 78 78" fill="none" xmlns="http://www.w3.org/2000/svg">
<g clip-path="url(#clip0_20_340)">
<path opacity="0.1" d="M39 78C60.5391 78 78 60.5391 78 39C78 17.4609 60.5391 0 39 0C17.4609 0 0 17.4609 0 39C0 60.5391 17.4609 78 39 78Z" fill="white"/>
<path d="M39.4699 41.1301H50.9055C51.1493 41.1301 51.2644 41.1301 51.282 40.8105C51.3754 39.6472 51.3754 38.4771 51.282 37.3124C51.282 37.0862 51.1696 36.9928 50.9244 36.9928H28.1656C27.8839 36.9928 27.8081 37.0862 27.8081 37.3503V40.6981C27.8081 41.1301 27.8081 41.1301 28.2591 41.1301H39.4699ZM50.0049 33.0802C50.0374 32.9949 50.0374 32.9015 50.0049 32.8175C49.8139 32.4017 49.5878 32.0049 49.325 31.6325C48.9296 30.996 48.4637 30.4096 47.9328 29.8827C47.6823 29.5645 47.3925 29.2787 47.0674 29.0363C45.4396 27.6509 43.5043 26.6704 41.4241 26.1774C40.3745 25.9418 39.3019 25.8294 38.2266 25.8388H28.1263C27.8446 25.8388 27.8067 25.9512 27.8067 26.1964V32.873C27.8067 33.1547 27.8067 33.2305 28.1643 33.2305H49.8694C49.8694 33.2305 50.0577 33.1926 50.0956 33.0802H50.0035H50.0049ZM50.0049 45.0427C49.6853 45.0074 49.3629 45.0074 49.0433 45.0427H28.1846C27.9029 45.0427 27.8081 45.0427 27.8081 45.4191V51.9468C27.8081 52.2475 27.8081 52.3233 28.1846 52.3233H37.8149C38.2754 52.3585 38.7358 52.326 39.1868 52.2299C40.5844 52.1297 41.959 51.8263 43.27 51.3266C43.7467 51.1613 44.2072 50.946 44.6419 50.6873H44.7733C47.0309 49.5132 48.8646 47.6686 50.0211 45.4043C50.0211 45.4043 50.1525 45.1199 50.0049 45.0454V45.0427ZM24.0283 55.7077V55.5953V51.2128V49.7271V45.3067C24.0283 45.0616 24.0283 45.0251 23.7276 45.0251H19.6458C19.4196 45.0251 19.3262 45.0251 19.3262 44.7244V41.1504H23.6897C23.9335 41.1504 24.0283 41.1504 24.0283 40.8308V37.2948C24.0283 37.0686 24.0283 37.0131 23.7276 37.0131H19.6458C19.4196 37.0131 19.3262 37.0131 19.3262 36.7124V33.4025C19.3262 33.1953 19.3262 33.1398 19.6268 33.1398H23.6707C23.9524 33.1398 24.0283 33.1398 24.0283 32.7823V22.6441C24.0283 22.3434 24.0283 22.2676 24.4048 22.2676H38.511C39.5349 22.3082 40.5519 22.4206 41.5582 22.6062C43.6316 22.9894 45.6237 23.7302 47.4453 24.7879C48.6533 25.4989 49.7652 26.3575 50.7551 27.3462C51.5 28.1195 52.1717 28.9564 52.7676 29.8475C53.3594 30.7508 53.8511 31.7165 54.237 32.7254C54.2844 32.9881 54.5363 33.1655 54.7991 33.1209H58.1658C58.5978 33.1209 58.5978 33.1209 58.6168 33.5353V36.6203C58.6168 36.921 58.5044 36.9968 58.2024 36.9968H55.6062C55.3435 36.9968 55.2676 36.9968 55.2866 37.3354C55.3895 38.4811 55.3895 39.6309 55.2866 40.7766C55.2866 41.0963 55.2866 41.1342 55.6455 41.1342H58.6154C58.7468 41.3035 58.6154 41.4728 58.6154 41.6434C58.6344 41.8614 58.6344 42.0822 58.6154 42.3002V44.5768C58.6154 44.8964 58.522 44.9912 58.239 44.9912H54.6839C54.4361 44.9438 54.195 45.1022 54.1382 45.3487C53.2917 47.5494 51.9374 49.5226 50.1877 51.1045C49.5485 51.68 48.8768 52.2217 48.1752 52.7215C47.4222 53.1548 46.6896 53.6058 45.9176 53.9634C44.497 54.6026 43.0073 55.0739 41.4783 55.3732C40.0265 55.6332 38.5544 55.751 37.0768 55.7307H24.0228V55.7117L24.0283 55.7077Z" fill="white"/>
</g>
<defs>
<clipPath id="clip0_20_340">
<rect width="78" height="78" fill="white"/>
</clipPath>
</defs>
</svg>
