<svg width="78" height="78" viewBox="0 0 78 78" fill="none" xmlns="http://www.w3.org/2000/svg">
<g clip-path="url(#clip0_20_332)">
<path opacity="0.1" d="M39 78C60.5391 78 78 60.5391 78 39C78 17.4609 60.5391 0 39 0C17.4609 0 0 17.4609 0 39C0 60.5391 17.4609 78 39 78Z" fill="white"/>
<path d="M38.996 18.4619L38.7178 19.4076V46.8491L38.996 47.1268L51.734 39.5974L38.996 18.4619Z" fill="white"/>
<path d="M38.9963 18.4619L26.2583 39.5974L38.9963 47.1269V33.8077V18.4619Z" fill="white"/>
<path d="M38.9961 49.5388L38.8394 49.73V59.5052L38.9961 59.9632L51.7418 42.0132L38.9961 49.5388Z" fill="white"/>
<path d="M38.9963 59.9627V49.5383L26.2583 42.0127L38.9963 59.9627Z" fill="white"/>
<path d="M38.9961 47.1267L51.7339 39.5974L38.9961 33.8076V47.1267Z" fill="white"/>
<path d="M26.2583 39.5974L38.9961 47.1267V33.8076L26.2583 39.5974Z" fill="white"/>
</g>
<defs>
<clipPath id="clip0_20_332">
<rect width="78" height="78" fill="white"/>
</clipPath>
</defs>
</svg>
