<svg width="119" height="32" viewBox="0 0 119 32" fill="none" xmlns="http://www.w3.org/2000/svg">
<path d="M7.83135 26.8437H3.35909V15.5757H0.3125V11.9071H3.35897V9.29663C3.35897 6.2032 4.70643 3.98462 9.16659 3.98462C10.1099 3.98462 11.5909 4.17679 11.5909 4.17679V7.5833H10.0354C8.45043 7.5833 7.83159 8.07056 7.83159 9.41766V11.9071H11.5316L11.2021 15.5757H7.83147L7.83135 26.8437ZM18.0931 11.6139C18.0279 11.6139 17.9609 11.6163 17.8945 11.618C13.7476 11.618 11.8502 14.7707 11.8502 19.246C11.8502 24.8837 14.3113 27.1401 17.9269 27.1401C19.9955 27.1401 21.3546 26.2601 22.1807 24.6179V26.8452H26.4344V11.9087H22.1807V14.2057C21.5062 12.7278 20.1091 11.6315 18.0931 11.6139ZM19.1747 15.1434C20.9164 15.1434 21.9618 16.3713 21.9618 18.4598L21.9658 20.593C21.9658 22.0007 21.1024 23.6476 19.1747 23.6476C16.211 23.6476 16.2902 20.4133 16.2902 19.3361C16.2902 15.7126 17.8692 15.1434 19.1747 15.1434ZM28.1523 19.3777C28.1523 17.5627 28.0664 11.6237 35.7222 11.6237C38.7954 11.6237 40.0786 12.6113 40.0786 12.6113L39.0472 15.8444C39.0472 15.8444 37.7656 15.1312 36.0957 15.1312C33.9568 15.1312 32.5921 16.3843 32.5921 18.5893L32.5944 20.1703C32.5944 22.2889 33.9113 23.7032 36.1001 23.7032C37.6214 23.7032 39.0236 22.9832 39.0236 22.9832L40.0524 26.1489C40.0524 26.1489 38.8791 27.1427 35.7437 27.1427C28.4541 27.1427 28.1523 21.8143 28.1523 19.3777ZM65.02 11.618C69.167 11.618 71.0943 14.7707 71.0943 19.246C71.0943 24.8837 68.6331 27.1401 65.0175 27.1401C62.9489 27.1401 61.4197 26.2602 60.5936 24.6179V26.8452L56.3934 26.8435V4.43877L60.853 4.04568V14.0033C61.4966 12.2612 63.6118 11.618 65.02 11.618ZM63.7697 15.1434C62.028 15.1434 60.853 16.3713 60.853 18.4598L60.8488 20.593C60.8462 22.0007 61.6625 23.6476 63.7697 23.6476C66.7334 23.6476 66.6542 20.4133 66.6542 19.3361C66.6542 15.7126 65.0753 15.1434 63.7697 15.1434ZM47.8163 11.6304C43.1128 11.6304 40.6296 14.2223 40.6296 18.8283V19.6841C40.6296 25.6623 44.1167 27.2015 48.2741 27.2015C52.3151 27.2015 54.1442 26.0592 54.1442 26.0592L53.3097 23.0171C53.3097 23.0171 51.1581 23.9423 48.8088 23.9423C46.3733 23.9423 45.3259 23.3149 45.0574 20.9494H54.5007V18.5089C54.5007 13.5125 51.7139 11.6304 47.8163 11.6304ZM47.9297 14.6765C49.5578 14.6765 50.6129 15.6856 50.5549 18.0258H45.0656C45.1608 15.5628 46.2986 14.6765 47.9297 14.6765ZM79.9865 11.6099C75.1562 11.6099 72.6134 14.3609 72.6134 19.291C72.6134 26.0553 76.9967 27.1442 79.9945 27.1442C84.3831 27.1442 87.3028 24.7562 87.3028 19.3524C87.3028 13.728 84.0199 11.6099 79.9865 11.6099ZM79.9257 15.1556C82.0496 15.1556 82.8912 16.7622 82.8912 18.5909V20.1632C82.8912 22.3785 81.7136 23.6599 79.9176 23.6599C78.238 23.6599 77.0575 22.4613 77.0575 20.1632V18.5909C77.0575 16.14 78.4622 15.1556 79.9257 15.1556ZM96.1871 11.6099C91.3569 11.6099 88.814 14.3609 88.814 19.291C88.814 26.0553 93.1973 27.1442 96.1951 27.1442C100.584 27.1442 103.503 24.7562 103.503 19.3524C103.503 13.728 100.22 11.6099 96.1871 11.6099ZM96.1263 15.1556C98.2502 15.1556 99.0917 16.7622 99.0917 18.5909V20.1632C99.0917 22.3785 97.9141 23.6599 96.1182 23.6599C94.4386 23.6599 93.2581 22.4613 93.2581 20.1632V18.5909C93.2581 16.14 94.6628 15.1556 96.1263 15.1556ZM105.189 26.8437V4.43877L109.661 4.04568V19.0628L114.098 11.9071H118.822L114.193 19.3183L119 26.8437H114.263L109.661 19.5367V26.8437H105.189Z" fill="#A0A9BD"/>
</svg>
