<svg width="190" height="24" viewBox="0 0 190 24" fill="none" xmlns="http://www.w3.org/2000/svg">
<path d="M57.3243 0H34.6411C33.5563 0 32.676 0.754095 32.676 1.68269V21.6677C32.676 22.5976 33.5563 23.3526 34.6411 23.3526H57.3243C58.4098 23.3526 59.2961 22.5976 59.2961 21.6677V1.68269C59.2961 0.754095 58.4098 0 57.3243 0ZM40.5711 19.8997H36.6209V8.75561H40.5711V19.8997ZM38.596 7.23185C37.3304 7.23185 36.3074 6.33213 36.3074 5.22288C36.3074 4.11525 37.3304 3.21553 38.596 3.21553C39.8586 3.21553 40.8842 4.11525 40.8842 5.22288C40.8842 6.33213 39.8586 7.23185 38.596 7.23185ZM55.3585 19.8997H51.4147V14.4806C51.4147 13.1877 51.3858 11.5255 49.3623 11.5255C47.3074 11.5255 46.9943 12.9335 46.9943 14.3868V19.9H43.0475V8.75561H46.8353V10.2774H46.8893C47.4165 9.4017 48.7046 8.47765 50.6257 8.47765C54.6209 8.47765 55.3589 10.785 55.3589 13.7868L55.3585 19.8997Z" fill="#29FCEF"/>
<path d="M25.1508 0H1.46928C0.657738 0 0 0.577005 0 1.28894V22.064C0 22.7756 0.657738 23.3526 1.46928 23.3526H14.2184V14.3093H10.7493V10.785H14.2184V8.18574C14.2184 5.16936 16.3185 3.52722 19.3857 3.52722C20.855 3.52722 22.1176 3.6229 22.4858 3.66604V6.81832L20.3584 6.81929C18.6903 6.81929 18.3675 7.51468 18.3675 8.53506V10.7853H22.3457L21.8277 14.3096H18.3675V23.3526H25.1512C25.9623 23.3526 26.6201 22.7756 26.6201 22.0637V1.28894C26.6201 0.577005 25.9623 0 25.1508 0Z" fill="#29FCEF"/>
<path d="M90.7364 0.352539H65.8836C65.3962 0.352539 65 0.796594 65 1.34247V3.33393C65 3.42569 65.0888 3.53099 65.1614 3.57358L78.2246 11.9293C78.2585 11.9514 78.2966 11.9614 78.3346 11.9614C78.3733 11.9614 78.4124 11.9502 78.4466 11.9274L91.115 3.58171C91.1862 3.53719 91.375 3.41949 91.4458 3.36529C91.5316 3.29987 91.6201 3.24063 91.6201 3.12333V1.34208C91.6201 0.796594 91.2239 0.352539 90.7364 0.352539Z" fill="#29FCEF"/>
<path d="M91.5098 6.33649C91.4407 6.29158 91.3563 6.29351 91.2868 6.33803L84.1177 11.0616C84.0603 11.0987 84.0206 11.1646 84.0109 11.2389C84.0022 11.3128 84.023 11.3883 84.0676 11.4429L91.2377 20.0983C91.2802 20.1498 91.3383 20.1773 91.3992 20.1773C91.4265 20.1773 91.4541 20.1715 91.4801 20.1606C91.5648 20.1231 91.6201 20.0321 91.6201 19.9299V6.55135C91.6201 6.46231 91.5782 6.38062 91.5098 6.33649Z" fill="#29FCEF"/>
<path d="M82.0517 12.6476C81.9812 12.562 81.8678 12.543 81.7782 12.6019L78.9047 14.4954C78.5672 14.7176 78.1351 14.7196 77.7956 14.5035L75.2667 12.8857C75.183 12.8326 75.0776 12.8454 75.0071 12.9189L65.4038 22.8941C65.3526 22.9475 65.327 23.0246 65.3346 23.1024C65.3422 23.1802 65.3827 23.2499 65.4432 23.289C65.5925 23.3873 65.7367 23.4342 65.8833 23.4342H90.482C90.5701 23.4342 90.6496 23.3757 90.6842 23.2851C90.7195 23.1953 90.7036 23.0904 90.6434 23.0184L82.0517 12.6476Z" fill="#29FCEF"/>
<path d="M72.8941 11.7386C72.9459 11.6856 72.9718 11.6074 72.9642 11.5296C72.9566 11.4514 72.9152 11.3821 72.8543 11.3426L65.3295 6.5296C65.2624 6.48624 65.1777 6.48702 65.1092 6.53115C65.0415 6.57528 65 6.65697 65 6.74485V19.3735C65 19.4714 65.0519 19.5605 65.1321 19.5996C65.1604 19.6139 65.1905 19.6209 65.2209 19.6209C65.2752 19.6209 65.3295 19.598 65.371 19.5547L72.8941 11.7386Z" fill="#29FCEF"/>
<path fill-rule="evenodd" clip-rule="evenodd" d="M111.337 0C103.987 0 98.028 5.36036 98.028 11.9726C98.028 17.262 101.841 21.7493 107.13 23.3315C107.796 23.4423 108.039 23.0736 108.039 22.7553C108.039 22.4717 108.027 21.7193 108.021 20.7191C104.319 21.4433 103.538 19.114 103.538 19.114C102.932 17.7311 102.06 17.3633 102.06 17.3633C100.851 16.6211 102.151 16.6355 102.151 16.6355C103.487 16.7205 104.19 17.8689 104.19 17.8689C105.377 19.6985 107.306 19.1689 108.064 18.8644C108.184 18.0893 108.529 17.5628 108.909 17.2629C105.954 16.9609 102.847 15.9337 102.847 11.3463C102.847 10.0389 103.365 8.97006 104.216 8.13294C104.08 7.83149 103.622 6.61435 104.347 4.96529C104.347 4.96529 105.464 4.64358 108.007 6.19349C109.068 5.92673 110.207 5.7935 111.339 5.78951C112.47 5.79381 113.609 5.92673 114.671 6.19349C117.213 4.64358 118.328 4.96529 118.328 4.96529C119.055 6.61435 118.597 7.83149 118.461 8.13294C119.314 8.97006 119.829 10.0389 119.829 11.3463C119.829 15.9445 116.717 16.9575 113.752 17.2528C114.229 17.6227 114.655 18.3548 114.655 19.4719C114.655 21.0715 114.639 22.3624 114.639 22.755C114.639 23.0758 114.878 23.4487 115.554 23.3299C120.838 21.7444 124.648 17.2605 124.648 11.9726C124.648 5.36036 118.689 0 111.337 0Z" fill="#29FCEF"/>
<path d="M149.301 13.8472C148.077 13.8472 147.674 14.6455 147.551 15.0162H150.818C150.788 14.8103 150.692 14.4486 150.386 14.1849C150.126 13.9611 149.762 13.8472 149.301 13.8472Z" fill="#29FCEF"/>
<path d="M140.902 15.3384C140.901 15.3384 140.901 15.3384 140.901 15.3384H137.807V17.6005H140.733C141.254 17.5893 141.901 17.4453 141.901 16.5051C141.901 15.371 141.004 15.3384 140.902 15.3384Z" fill="#29FCEF"/>
<path d="M154.852 0.352539H133.202C132.026 0.352539 131.032 1.0193 130.704 1.93574V21.8161C130.981 22.5904 131.733 23.1861 132.669 23.3525H155.385C156.295 23.1909 157.029 22.6224 157.324 21.8794V1.87236C156.974 0.988894 156 0.352539 154.852 0.352539ZM146.727 10.0755C146.727 9.98685 146.811 9.91482 146.914 9.91482H151.567C151.669 9.91482 151.754 9.98685 151.754 10.0755V11.2666C151.754 11.3553 151.669 11.427 151.567 11.427H146.914C146.811 11.427 146.727 11.3553 146.727 11.2666V10.0755ZM144.751 16.682C144.751 18.2025 143.813 18.9358 143.024 19.2812C142.166 19.6586 141.275 19.6881 141.022 19.6881H135.116C135.014 19.6881 134.929 19.6154 134.929 19.527V9.85849C134.929 9.76982 135.014 9.69748 135.116 9.69748H140.984C143.067 9.69748 144.361 10.7455 144.361 12.4334C144.361 13.4788 143.767 13.9804 143.245 14.2192C143.538 14.3078 143.793 14.4493 144.007 14.6446C144.825 15.3872 144.755 16.6292 144.751 16.682ZM153.449 16.5364C153.438 16.6164 153.358 16.6763 153.264 16.6763H147.615C147.656 17.2073 147.901 17.5905 148.344 17.8168C148.736 18.0162 149.17 18.038 149.336 18.038C149.371 18.038 149.392 18.0367 149.395 18.036C150.043 18.036 150.504 17.9134 150.775 17.6714C151.035 17.439 151.028 17.1762 151.026 17.165C151.026 17.1209 151.043 17.0783 151.08 17.0463C151.115 17.0149 151.163 16.9967 151.215 16.9967H153.198C153.302 16.9967 153.386 17.0687 153.386 17.1577C153.386 19.7604 150.145 19.8923 149.494 19.8923C149.389 19.8923 149.33 19.8891 149.33 19.8891C149.33 19.8891 149.329 19.8891 149.328 19.8891C147.865 19.8891 146.72 19.5232 145.935 18.8023C144.704 17.6711 144.817 16.0886 144.822 16.022C144.822 15.9935 144.827 15.0556 145.38 14.1039C145.899 13.2163 147.005 12.1574 149.341 12.1574C150.68 12.1574 151.723 12.5102 152.435 13.2054C153.744 14.4861 153.464 16.4531 153.449 16.5364Z" fill="#29FCEF"/>
<path d="M141.509 12.5357C141.509 11.7005 140.925 11.6909 140.901 11.6909H140.477H137.807V13.5264H140.696C141.126 13.5264 141.509 13.4508 141.509 12.5357Z" fill="#29FCEF"/>
<path d="M190 3.07537C189.021 3.53702 187.968 3.84907 186.863 3.98911C187.991 3.27054 188.857 2.1326 189.264 0.77743C188.209 1.4427 187.04 1.9264 185.797 2.18589C184.801 1.05824 183.381 0.352539 181.81 0.352539C178.794 0.352539 176.349 2.95187 176.349 6.15914C176.349 6.6138 176.397 7.05744 176.491 7.4827C171.952 7.24048 167.928 4.92857 165.234 1.41514C164.764 2.273 164.494 3.27091 164.494 4.33461C164.494 6.34917 165.459 8.12592 166.924 9.16756C166.029 9.13706 165.187 8.87573 164.451 8.44128C164.45 8.46554 164.45 8.48943 164.45 8.51442C164.45 11.3269 166.332 13.6738 168.83 14.2078C168.372 14.3398 167.89 14.4111 167.392 14.4111C167.04 14.4111 166.698 14.3751 166.364 14.3071C167.059 16.6135 169.076 18.2928 171.466 18.3399C169.596 19.8968 167.242 20.8256 164.683 20.8256C164.242 20.8256 163.808 20.7984 163.38 20.7444C165.797 22.3918 168.667 23.3525 171.751 23.3525C181.797 23.3525 187.29 14.5052 187.29 6.83287C187.29 6.58146 187.285 6.33042 187.274 6.08085C188.342 5.26268 189.268 4.23978 190 3.07537Z" fill="#29FCEF"/>
</svg>
