<svg width="78" height="78" viewBox="0 0 78 78" fill="none" xmlns="http://www.w3.org/2000/svg">
<g clip-path="url(#clip0_20_329)">
<path opacity="0.1" d="M39 78C60.5391 78 78 60.5391 78 39C78 17.4609 60.5391 0 39 0C17.4609 0 0 17.4609 0 39C0 60.5391 17.4609 78 39 78Z" fill="white"/>
<path d="M52.923 50.6903H37.5148L40.3955 40.9765L44.8169 39.7037L45.7548 36.488L41.3334 37.8279L46.0228 21.8838V21.6828C46.0228 21.2139 45.6878 20.8789 45.2189 20.8789H39.2566C38.7877 20.8789 38.3857 21.2139 38.2517 21.6828L32.7584 40.5076L28.3369 41.8474L27.332 44.996L31.7535 43.6562L27.801 57.1216H51.3152C51.7841 57.1216 52.1861 56.7866 52.32 56.3847L53.6599 51.7622V51.5612C53.7269 51.0253 53.3919 50.6903 52.923 50.6903Z" fill="white"/>
</g>
<defs>
<clipPath id="clip0_20_329">
<rect width="78" height="78" fill="white"/>
</clipPath>
</defs>
</svg>
