<svg width="78" height="78" viewBox="0 0 78 78" fill="none" xmlns="http://www.w3.org/2000/svg">
<g clip-path="url(#clip0_20_346)">
<path opacity="0.1" d="M39 78C60.5391 78 78 60.5391 78 39C78 17.4609 60.5391 0 39 0C17.4609 0 0 17.4609 0 39C0 60.5391 17.4609 78 39 78Z" fill="white"/>
<path d="M50.9905 24.7407H55.9324L45.6554 34.9942C43.8693 36.7783 41.448 37.7805 38.9235 37.7805C36.3989 37.7805 33.9776 36.7783 32.1915 34.9942L21.9438 24.7407H26.8798L34.6859 32.5292C35.8172 33.6592 37.3509 34.294 38.9499 34.294C40.5489 34.294 42.0826 33.6592 43.2138 32.5292L50.9905 24.7407Z" fill="white"/>
<path d="M26.8564 53.2591H21.9438L32.256 42.9411C34.0422 41.157 36.4634 40.1548 38.988 40.1548C41.5126 40.1548 43.9339 41.157 45.72 42.9411L56.0557 53.2591H51.1197L43.2549 45.4061C42.1236 44.2761 40.59 43.6413 38.991 43.6413C37.3919 43.6413 35.8583 44.2761 34.727 45.4061L26.8564 53.2591Z" fill="white"/>
</g>
<defs>
<clipPath id="clip0_20_346">
<rect width="78" height="78" fill="white"/>
</clipPath>
</defs>
</svg>
