<svg width="78" height="78" viewBox="0 0 78 78" fill="none" xmlns="http://www.w3.org/2000/svg">
<g clip-path="url(#clip0_20_326)">
<path opacity="0.1" d="M39 78C60.5391 78 78 60.5391 78 39C78 17.4609 60.5391 0 39 0C17.4609 0 0 17.4609 0 39C0 60.5391 17.4609 78 39 78Z" fill="white"/>
<path fill-rule="evenodd" clip-rule="evenodd" d="M42.7066 40.2599C42.4996 40.2754 41.43 40.3393 39.0442 40.3393C37.1466 40.3393 35.7993 40.2823 35.3266 40.2599C27.9933 39.9373 22.5196 38.6608 22.5196 37.1323C22.5196 35.6039 27.9933 34.3291 35.3266 34.0013V38.9885C35.8062 39.023 37.1794 39.1041 39.077 39.1041C41.3541 39.1041 42.4944 39.0092 42.6997 38.9903V34.0048C50.0175 34.3308 55.4791 35.6074 55.4791 37.1323C55.4791 38.6573 50.0192 39.9339 42.6997 40.2582L42.7066 40.2599ZM42.7066 33.489V29.0262H52.9191V22.2207H25.1141V29.0262H35.3249V33.4872C27.0255 33.8685 20.7842 35.5125 20.7842 37.4825C20.7842 39.4526 27.0255 41.0949 35.3249 41.4778V55.7788H42.7048V41.4727C50.9852 41.0914 57.2163 39.4491 57.2163 37.4808C57.2163 35.5125 50.9904 33.8702 42.7048 33.4872L42.7066 33.489Z" fill="white"/>
</g>
<defs>
<clipPath id="clip0_20_326">
<rect width="78" height="78" fill="white"/>
</clipPath>
</defs>
</svg>
